<?xml version="1.0" encoding="utf-8"?>
<!-- Generator: Adobe Illustrator 22.0.0, SVG Export Plug-In . SVG Version: 6.00 Build 0)  -->
<svg version="1.1" id="Livello_1" xmlns="http://www.w3.org/2000/svg" xmlns:xlink="http://www.w3.org/1999/xlink" x="0px" y="0px"
	 viewBox="0 0 580 210" style="enable-background:new 0 0 580 210;" xml:space="preserve">
<style type="text/css">
	.st0{fill:#B55E31;stroke:#DB8C65;stroke-width:0.7;stroke-miterlimit:10;}
	.st1{fill:#D17C47;}
	.st2{fill:#F6CEBA;}
	.st3{fill:#D17C47;stroke:#D17C47;stroke-width:1.41;stroke-miterlimit:10;}
	.st4{fill:#EDAF84;stroke:#D17C47;stroke-width:1.41;stroke-miterlimit:10;}
	.st5{fill:none;stroke:#B55E31;stroke-width:0.7;stroke-miterlimit:10;}
	.st6{fill:#DB8C65;}
	.st7{fill:#F6CEBA;stroke:#EDAF84;stroke-width:0.7;stroke-miterlimit:10;}
	.st8{fill:#B55E31;}
	.st9{fill:#EDAF84;}
	.st10{fill:#EDAF84;stroke:#D17C47;stroke-width:0.7;stroke-miterlimit:10;}
</style>
<title>loppure-raccontiamo-promozione</title>
<polygon id="_Tracciato_" class="st0" points="541.9,147.6 375,147.6 386.3,116.6 528.4,116.6 "/>
<g id="_Gruppo_">
	<path id="_Tracciato_composto_" class="st1" d="M436.4,168.5v28.1h8.2v-28.1H436.4z M443.5,195.5h-6v-25.8h6V195.5z"/>
	<polygon id="_Tracciato_2" class="st2" points="443.5,169.7 443.5,189.3 437.6,189.3 437.5,189.5 437.5,169.7 	"/>
	<path id="_Tracciato_composto_2" class="st1" d="M375.1,168.1v28.7l8.2-0.1v-28.6H375.1z M382.1,195.3h-5.9v-26.1h5.9V195.3z"/>
	<rect id="_Tracciato_3" x="376.2" y="169.7" class="st2" width="5.9" height="25.6"/>
	<path id="_Tracciato_composto_3" class="st1" d="M497.8,166.9v29.8h8.2v-29.8H497.8z M504.9,195.4h-6v-27.4h6V195.4z"/>
	<rect id="_Tracciato_4" x="498.9" y="169.7" class="st2" width="6" height="19.6"/>
	<path id="_Tracciato_composto_4" class="st1" d="M559.2,168.2v28.5h8.2v-28.5H559.2z M566.3,195.5h-5.9v-26.1h5.9V195.5z"/>
	<path id="_Tracciato_5" class="st1" d="M405.6,169.7c-12.9,2.1-22.4,13.2-22.4,26.3v-26.3H405.6z"/>
	<path id="_Tracciato_6" class="st1" d="M436.4,169.7V196c0-13.1-9.5-24.2-22.4-26.3H436.4z"/>
	<path id="_Tracciato_7" class="st3" d="M559.2,169.7V196c0-13.1-9.5-24.2-22.4-26.3H559.2z"/>
	<path id="_Tracciato_8" class="st1" d="M467,169.7c-12.9,2.1-22.4,13.2-22.4,26.3v-26.3H467z"/>
	<path id="_Tracciato_9" class="st1" d="M528.4,169.7c-12.9,2.1-22.4,13.2-22.4,26.3v-26.3H528.4z"/>
	<rect id="_Tracciato_10" x="375.6" y="162.5" class="st4" width="191.8" height="7.2"/>
	<rect id="_Rettangolo_" x="375.1" y="145.8" class="st1" width="192.2" height="3.2"/>
	<rect id="_Rettangolo_2" x="375.6" y="149" class="st4" width="8.2" height="13.5"/>
	<rect id="_Rettangolo_3" x="398.3" y="149" class="st4" width="4.3" height="13.5"/>
	<rect id="_Rettangolo_4" x="416.9" y="149" class="st4" width="4.7" height="13.5"/>
	<rect id="_Rettangolo_5" x="459.4" y="149" class="st4" width="4.6" height="13.5"/>
	<rect id="_Rettangolo_6" x="478.4" y="149" class="st4" width="4.3" height="13.5"/>
	<rect id="_Rettangolo_7" x="520.7" y="149" class="st4" width="4.7" height="13.5"/>
	<rect id="_Rettangolo_8" x="539.8" y="149" class="st4" width="4.3" height="13.5"/>
	<rect id="_Rettangolo_9" x="436" y="149" class="st4" width="8.9" height="13.5"/>
	<rect id="_Rettangolo_10" x="497.2" y="149" class="st4" width="8.9" height="13.5"/>
	<rect id="_Rettangolo_11" x="558.5" y="149" class="st4" width="8.3" height="13.5"/>
	<path id="_Tracciato_11" class="st5" d="M387.9,151c0.1-0.9-0.6-1.7-1.5-1.7c-0.9-0.1-1.7,0.6-1.7,1.5c0,0.1,0,0.2,0,0.3v11
		c-0.1-0.9,0.6-1.7,1.5-1.7c0.9-0.1,1.7,0.6,1.7,1.5c0,0.1,0,0.2,0,0.3"/>
	<path id="_Tracciato_12" class="st5" d="M391.1,151c0.1-0.9-0.6-1.7-1.5-1.7c-0.9-0.1-1.7,0.6-1.7,1.5c0,0.1,0,0.2,0,0.3"/>
	<path id="_Tracciato_13" class="st5" d="M394.3,151c0.1-0.9-0.6-1.7-1.5-1.7c-0.9-0.1-1.7,0.6-1.7,1.5c0,0.1,0,0.2,0,0.3"/>
	<path id="_Tracciato_14" class="st5" d="M397.5,151c0.1-0.9-0.6-1.7-1.5-1.7c-0.9-0.1-1.7,0.6-1.7,1.5c0,0.1,0,0.2,0,0.3"/>
	<path id="_Tracciato_15" class="st5" d="M391.1,162.1c0.1-0.9-0.6-1.7-1.5-1.7c-0.9-0.1-1.7,0.6-1.7,1.5c0,0.1,0,0.2,0,0.3"/>
	<path id="_Tracciato_16" class="st5" d="M394.3,162.1c0.1-0.9-0.6-1.7-1.5-1.7c-0.9-0.1-1.7,0.6-1.7,1.5c0,0.1,0,0.2,0,0.3"/>
	<polygon id="_Tracciato_17" class="st5" points="389.2,152.5 387.9,154 386.5,152.5 387.9,151 	"/>
	<polygon id="_Tracciato_18" class="st5" points="392.5,152.5 391.1,154 389.7,152.5 391.1,151 	"/>
	<polygon id="_Tracciato_19" class="st5" points="395.7,152.5 394.3,154 392.9,152.5 394.3,151 	"/>
	<polygon id="_Tracciato_20" class="st5" points="389.2,155.9 387.9,157.3 386.5,155.9 387.9,154.4 	"/>
	<polygon id="_Tracciato_21" class="st5" points="392.5,155.9 391.1,157.3 389.7,155.9 391.1,154.4 	"/>
	<polygon id="_Tracciato_22" class="st5" points="395.7,155.9 394.3,157.3 392.9,155.9 394.3,154.4 	"/>
	<polygon id="_Tracciato_23" class="st5" points="389.2,159.2 387.9,160.7 386.5,159.2 387.9,157.8 	"/>
	<polygon id="_Tracciato_24" class="st5" points="392.5,159.2 391.1,160.7 389.7,159.2 391.1,157.8 	"/>
	<polygon id="_Tracciato_25" class="st5" points="395.7,159.2 394.3,160.7 392.9,159.2 394.3,157.8 	"/>
	<path id="_Tracciato_26" class="st5" d="M397.5,150.8v11.2c0.1-0.9-0.6-1.7-1.5-1.7c-0.9-0.1-1.7,0.6-1.7,1.5c0,0.1,0,0.2,0,0.3"/>
	<path id="_Tracciato_27" class="st5" d="M406.6,150.9c0.1-0.9-0.6-1.7-1.5-1.7c-0.9-0.1-1.7,0.6-1.7,1.5c0,0.1,0,0.2,0,0.3v11
		c-0.1-0.9,0.6-1.7,1.5-1.7c0.9-0.1,1.7,0.6,1.7,1.5c0,0.1,0,0.2,0,0.3"/>
	<path id="_Tracciato_28" class="st5" d="M409.8,150.9c0.1-0.9-0.6-1.7-1.5-1.7c-0.9-0.1-1.7,0.6-1.7,1.5c0,0.1,0,0.2,0,0.3"/>
	<path id="_Tracciato_29" class="st5" d="M413,150.9c0.1-0.9-0.6-1.7-1.5-1.7c-0.9-0.1-1.7,0.6-1.7,1.5c0,0.1,0,0.2,0,0.3"/>
	<path id="_Tracciato_30" class="st5" d="M416.3,150.9c0.1-0.9-0.6-1.7-1.5-1.7c-0.9-0.1-1.7,0.6-1.7,1.5c0,0.1,0,0.2,0,0.3"/>
	<path id="_Tracciato_31" class="st5" d="M409.8,161.9c0.1-0.9-0.6-1.7-1.5-1.7c-0.9-0.1-1.7,0.6-1.7,1.5c0,0.1,0,0.2,0,0.3"/>
	<path id="_Tracciato_32" class="st5" d="M413,161.9c0.1-0.9-0.6-1.7-1.5-1.7c-0.9-0.1-1.7,0.6-1.7,1.5c0,0.1,0,0.2,0,0.3"/>
	<polygon id="_Tracciato_33" class="st5" points="408,152.4 406.6,153.8 405.2,152.4 406.6,150.9 	"/>
	<polygon id="_Tracciato_34" class="st5" points="411.2,152.4 409.8,153.8 408.4,152.4 409.8,150.9 	"/>
	<polygon id="_Tracciato_35" class="st5" points="414.4,152.4 413,153.8 411.7,152.4 413,150.9 	"/>
	<polygon id="_Tracciato_36" class="st5" points="408,155.8 406.6,157.2 405.2,155.8 406.6,154.3 	"/>
	<polygon id="_Tracciato_37" class="st5" points="411.2,155.8 409.8,157.2 408.4,155.8 409.8,154.3 	"/>
	<polygon id="_Tracciato_38" class="st5" points="414.4,155.8 413,157.2 411.7,155.8 413,154.3 	"/>
	<polygon id="_Tracciato_39" class="st5" points="408,159.1 406.6,160.6 405.2,159.1 406.6,157.6 	"/>
	<polygon id="_Tracciato_40" class="st5" points="411.2,159.1 409.8,160.6 408.4,159.1 409.8,157.6 	"/>
	<polygon id="_Tracciato_41" class="st5" points="414.4,159.1 413,160.6 411.7,159.1 413,157.6 	"/>
	<path id="_Tracciato_42" class="st5" d="M416.2,150.7v11.2c0.1-0.9-0.6-1.7-1.5-1.7c-0.9-0.1-1.7,0.6-1.7,1.5c0,0.1,0,0.2,0,0.3"/>
	<path id="_Tracciato_43" class="st5" d="M425.5,150.9c0.1-0.9-0.6-1.7-1.5-1.7c-0.9-0.1-1.7,0.6-1.7,1.5c0,0.1,0,0.2,0,0.3v11
		c-0.1-0.9,0.6-1.7,1.5-1.7c0.9-0.1,1.7,0.6,1.7,1.5c0,0.1,0,0.2,0,0.3"/>
	<path id="_Tracciato_44" class="st5" d="M428.8,150.9c0.1-0.9-0.6-1.7-1.5-1.7c-0.9-0.1-1.7,0.6-1.7,1.5c0,0.1,0,0.2,0,0.3"/>
	<path id="_Tracciato_45" class="st5" d="M432,150.9c0.1-0.9-0.6-1.7-1.5-1.7c-0.9-0.1-1.7,0.6-1.7,1.5c0,0.1,0,0.2,0,0.3"/>
	<path id="_Tracciato_46" class="st5" d="M435.2,150.9c0.1-0.9-0.6-1.7-1.5-1.7c-0.9-0.1-1.7,0.6-1.7,1.5c0,0.1,0,0.2,0,0.3"/>
	<path id="_Tracciato_47" class="st5" d="M428.8,161.9c0.1-0.9-0.6-1.7-1.5-1.7c-0.9-0.1-1.7,0.6-1.7,1.5c0,0.1,0,0.2,0,0.3"/>
	<path id="_Tracciato_48" class="st5" d="M432,161.9c0.1-0.9-0.6-1.7-1.5-1.7c-0.9-0.1-1.7,0.6-1.7,1.5c0,0.1,0,0.2,0,0.3"/>
	<polygon id="_Tracciato_49" class="st5" points="426.9,152.4 425.5,153.8 424.2,152.4 425.5,150.9 	"/>
	<polygon id="_Tracciato_50" class="st5" points="430.1,152.4 428.8,153.8 427.4,152.4 428.8,150.9 	"/>
	<polygon id="_Tracciato_51" class="st5" points="433.3,152.4 432,153.8 430.6,152.4 432,150.9 	"/>
	<polygon id="_Tracciato_52" class="st5" points="426.9,155.8 425.5,157.2 424.2,155.8 425.5,154.3 	"/>
	<polygon id="_Tracciato_53" class="st5" points="430.1,155.8 428.8,157.2 427.4,155.8 428.8,154.3 	"/>
	<polygon id="_Tracciato_54" class="st5" points="433.3,155.8 432,157.2 430.6,155.8 432,154.3 	"/>
	<polygon id="_Tracciato_55" class="st5" points="426.9,159.1 425.5,160.6 424.2,159.1 425.5,157.6 	"/>
	<polygon id="_Tracciato_56" class="st5" points="430.1,159.1 428.8,160.6 427.4,159.1 428.8,157.6 	"/>
	<polygon id="_Tracciato_57" class="st5" points="433.3,159.1 432,160.6 430.6,159.1 432,157.6 	"/>
	<path id="_Tracciato_58" class="st5" d="M435.2,150.7v11.2c0.1-0.9-0.6-1.7-1.5-1.7c-0.9-0.1-1.7,0.6-1.7,1.5c0,0.1,0,0.2,0,0.3"/>
	<path id="_Tracciato_59" class="st5" d="M448.9,150.9c0.1-0.9-0.6-1.7-1.5-1.7c-0.9-0.1-1.7,0.6-1.7,1.5c0,0.1,0,0.2,0,0.3v11
		c-0.1-0.9,0.6-1.7,1.5-1.7c0.9-0.1,1.7,0.6,1.7,1.5c0,0.1,0,0.2,0,0.3"/>
	<path id="_Tracciato_60" class="st5" d="M452.1,150.9c0.1-0.9-0.6-1.7-1.5-1.7c-0.9-0.1-1.7,0.6-1.7,1.5c0,0.1,0,0.2,0,0.3"/>
	<path id="_Tracciato_61" class="st5" d="M455.3,150.9c0.1-0.9-0.6-1.7-1.5-1.7c-0.9-0.1-1.7,0.6-1.7,1.5c0,0.1,0,0.2,0,0.3"/>
	<path id="_Tracciato_62" class="st5" d="M458.6,150.9c0.1-0.9-0.6-1.7-1.5-1.7c-0.9-0.1-1.7,0.6-1.7,1.5c0,0.1,0,0.2,0,0.3"/>
	<path id="_Tracciato_63" class="st5" d="M452.1,161.9c0.1-0.9-0.6-1.7-1.5-1.7c-0.9-0.1-1.7,0.6-1.7,1.5c0,0.1,0,0.2,0,0.3"/>
	<path id="_Tracciato_64" class="st5" d="M455.3,161.9c0.1-0.9-0.6-1.7-1.5-1.7c-0.9-0.1-1.7,0.6-1.7,1.5c0,0.1,0,0.2,0,0.3"/>
	<polygon id="_Tracciato_65" class="st5" points="450.3,152.4 448.9,153.8 447.5,152.4 448.9,150.9 	"/>
	<polygon id="_Tracciato_66" class="st5" points="453.5,152.4 452.1,153.8 450.8,152.4 452.1,150.9 	"/>
	<polygon id="_Tracciato_67" class="st5" points="456.7,152.4 455.3,153.8 454,152.4 455.3,150.9 	"/>
	<polygon id="_Tracciato_68" class="st5" points="450.3,155.8 448.9,157.2 447.5,155.8 448.9,154.3 	"/>
	<polygon id="_Tracciato_69" class="st5" points="453.5,155.8 452.1,157.2 450.8,155.8 452.1,154.3 	"/>
	<polygon id="_Tracciato_70" class="st5" points="456.7,155.8 455.3,157.2 454,155.8 455.3,154.3 	"/>
	<polygon id="_Tracciato_71" class="st5" points="450.3,159.1 448.9,160.6 447.5,159.1 448.9,157.6 	"/>
	<polygon id="_Tracciato_72" class="st5" points="453.5,159.1 452.1,160.6 450.8,159.1 452.1,157.6 	"/>
	<polygon id="_Tracciato_73" class="st5" points="456.7,159.1 455.3,160.6 454,159.1 455.3,157.6 	"/>
	<path id="_Tracciato_74" class="st5" d="M458.6,150.7v11.2c0.1-0.9-0.6-1.7-1.5-1.7c-0.9-0.1-1.7,0.6-1.7,1.5c0,0.1,0,0.2,0,0.3"/>
	<path id="_Tracciato_75" class="st5" d="M468,150.9c0.1-0.9-0.6-1.7-1.5-1.7c-0.9-0.1-1.7,0.6-1.7,1.5c0,0.1,0,0.2,0,0.3v11
		c-0.1-0.9,0.6-1.7,1.5-1.7c0.9-0.1,1.7,0.6,1.7,1.5c0,0.1,0,0.2,0,0.3"/>
	<path id="_Tracciato_76" class="st5" d="M471.2,150.9c0.1-0.9-0.6-1.7-1.5-1.7c-0.9-0.1-1.7,0.6-1.7,1.5c0,0.1,0,0.2,0,0.3"/>
	<path id="_Tracciato_77" class="st5" d="M474.4,150.9c0.1-0.9-0.6-1.7-1.5-1.7c-0.9-0.1-1.7,0.6-1.7,1.5c0,0.1,0,0.2,0,0.3"/>
	<path id="_Tracciato_78" class="st5" d="M477.6,150.9c0.1-0.9-0.6-1.7-1.5-1.7c-0.9-0.1-1.7,0.6-1.7,1.5c0,0.1,0,0.2,0,0.3"/>
	<path id="_Tracciato_79" class="st5" d="M471.2,161.9c0.1-0.9-0.6-1.7-1.5-1.7c-0.9-0.1-1.7,0.6-1.7,1.5c0,0.1,0,0.2,0,0.3"/>
	<path id="_Tracciato_80" class="st5" d="M474.4,161.9c0.1-0.9-0.6-1.7-1.5-1.7c-0.9-0.1-1.7,0.6-1.7,1.5c0,0.1,0,0.2,0,0.3"/>
	<polygon id="_Tracciato_81" class="st5" points="469.4,152.4 468,153.8 466.6,152.4 468,150.9 	"/>
	<polygon id="_Tracciato_82" class="st5" points="472.6,152.4 471.2,153.8 469.8,152.4 471.2,150.9 	"/>
	<polygon id="_Tracciato_83" class="st5" points="475.8,152.4 474.4,153.8 473.1,152.4 474.4,150.9 	"/>
	<polygon id="_Tracciato_84" class="st5" points="469.4,155.8 468,157.2 466.6,155.8 468,154.3 	"/>
	<polygon id="_Tracciato_85" class="st5" points="472.6,155.8 471.2,157.2 469.8,155.8 471.2,154.3 	"/>
	<polygon id="_Tracciato_86" class="st5" points="475.8,155.8 474.4,157.2 473.1,155.8 474.4,154.3 	"/>
	<polygon id="_Tracciato_87" class="st5" points="469.4,159.1 468,160.6 466.6,159.1 468,157.6 	"/>
	<polygon id="_Tracciato_88" class="st5" points="472.6,159.1 471.2,160.6 469.8,159.1 471.2,157.6 	"/>
	<polygon id="_Tracciato_89" class="st5" points="475.8,159.1 474.4,160.6 473.1,159.1 474.4,157.6 	"/>
	<path id="_Tracciato_90" class="st5" d="M477.6,150.7v11.2c0.1-0.9-0.6-1.7-1.5-1.7c-0.9-0.1-1.7,0.6-1.7,1.5c0,0.1,0,0.2,0,0.3"/>
	<path id="_Tracciato_91" class="st5" d="M486.8,150.9c0.1-0.9-0.6-1.7-1.5-1.7c-0.9-0.1-1.7,0.6-1.7,1.5c0,0.1,0,0.2,0,0.3v11
		c-0.1-0.9,0.6-1.7,1.5-1.7c0.9-0.1,1.7,0.6,1.7,1.5c0,0.1,0,0.2,0,0.3"/>
	<path id="_Tracciato_92" class="st5" d="M490,150.9c0.1-0.9-0.6-1.7-1.5-1.7c-0.9-0.1-1.7,0.6-1.7,1.5c0,0.1,0,0.2,0,0.3"/>
	<path id="_Tracciato_93" class="st5" d="M493.2,150.9c0.1-0.9-0.6-1.7-1.5-1.7c-0.9-0.1-1.7,0.6-1.7,1.5c0,0.1,0,0.2,0,0.3"/>
	<path id="_Tracciato_94" class="st5" d="M496.4,150.9c0.1-0.9-0.6-1.7-1.5-1.7c-0.9-0.1-1.7,0.6-1.7,1.5c0,0.1,0,0.2,0,0.3"/>
	<path id="_Tracciato_95" class="st5" d="M490,161.9c0.1-0.9-0.6-1.7-1.5-1.7c-0.9-0.1-1.7,0.6-1.7,1.5c0,0.1,0,0.2,0,0.3"/>
	<path id="_Tracciato_96" class="st5" d="M493.2,161.9c0.1-0.9-0.6-1.7-1.5-1.7c-0.9-0.1-1.7,0.6-1.7,1.5c0,0.1,0,0.2,0,0.3"/>
	<polygon id="_Tracciato_97" class="st5" points="488.2,152.4 486.8,153.8 485.4,152.4 486.8,150.9 	"/>
	<polygon id="_Tracciato_98" class="st5" points="491.4,152.4 490,153.8 488.6,152.4 490,150.9 	"/>
	<polygon id="_Tracciato_99" class="st5" points="494.6,152.4 493.2,153.8 491.8,152.4 493.2,150.9 	"/>
	<polygon id="_Tracciato_100" class="st5" points="488.2,155.8 486.8,157.2 485.4,155.8 486.8,154.3 	"/>
	<polygon id="_Tracciato_101" class="st5" points="491.4,155.8 490,157.2 488.6,155.8 490,154.3 	"/>
	<polygon id="_Tracciato_102" class="st5" points="494.6,155.8 493.2,157.2 491.8,155.8 493.2,154.3 	"/>
	<polygon id="_Tracciato_103" class="st5" points="488.2,159.1 486.8,160.6 485.4,159.1 486.8,157.6 	"/>
	<polygon id="_Tracciato_104" class="st5" points="491.4,159.1 490,160.6 488.6,159.1 490,157.6 	"/>
	<polygon id="_Tracciato_105" class="st5" points="494.6,159.1 493.2,160.6 491.8,159.1 493.2,157.6 	"/>
	<path id="_Tracciato_106" class="st5" d="M496.4,150.7v11.2c0.1-0.9-0.6-1.7-1.5-1.7c-0.9-0.1-1.7,0.6-1.7,1.5c0,0.1,0,0.2,0,0.3"
		/>
	<path id="_Tracciato_107" class="st5" d="M510.2,150.9c0.1-0.9-0.6-1.7-1.5-1.7c-0.9-0.1-1.7,0.6-1.7,1.5c0,0.1,0,0.2,0,0.3v11
		c-0.1-0.9,0.6-1.7,1.5-1.7c0.9-0.1,1.7,0.6,1.7,1.5c0,0.1,0,0.2,0,0.3"/>
	<path id="_Tracciato_108" class="st5" d="M513.4,150.9c0.1-0.9-0.6-1.7-1.5-1.7c-0.9-0.1-1.7,0.6-1.7,1.5c0,0.1,0,0.2,0,0.3"/>
	<path id="_Tracciato_109" class="st5" d="M516.6,150.9c0.1-0.9-0.6-1.7-1.5-1.7c-0.9-0.1-1.7,0.6-1.7,1.5c0,0.1,0,0.2,0,0.3"/>
	<path id="_Tracciato_110" class="st5" d="M519.8,150.9c0.1-0.9-0.6-1.7-1.5-1.7c-0.9-0.1-1.7,0.6-1.7,1.5c0,0.1,0,0.2,0,0.3"/>
	<path id="_Tracciato_111" class="st5" d="M513.4,161.9c0.1-0.9-0.6-1.7-1.5-1.7c-0.9-0.1-1.7,0.6-1.7,1.5c0,0.1,0,0.2,0,0.3"/>
	<path id="_Tracciato_112" class="st5" d="M516.6,161.9c0.1-0.9-0.6-1.7-1.5-1.7c-0.9-0.1-1.7,0.6-1.7,1.5c0,0.1,0,0.2,0,0.3"/>
	<polygon id="_Tracciato_113" class="st5" points="511.6,152.4 510.2,153.8 508.8,152.4 510.2,150.9 	"/>
	<polygon id="_Tracciato_114" class="st5" points="514.8,152.4 513.4,153.8 512,152.4 513.4,150.9 	"/>
	<polygon id="_Tracciato_115" class="st5" points="518,152.4 516.6,153.8 515.3,152.4 516.6,150.9 	"/>
	<polygon id="_Tracciato_116" class="st5" points="511.6,155.8 510.2,157.2 508.8,155.8 510.2,154.3 	"/>
	<polygon id="_Tracciato_117" class="st5" points="514.8,155.8 513.4,157.2 512,155.8 513.4,154.3 	"/>
	<polygon id="_Tracciato_118" class="st5" points="518,155.8 516.6,157.2 515.3,155.8 516.6,154.3 	"/>
	<polygon id="_Tracciato_119" class="st5" points="511.6,159.1 510.2,160.6 508.8,159.1 510.2,157.6 	"/>
	<polygon id="_Tracciato_120" class="st5" points="514.8,159.1 513.4,160.6 512,159.1 513.4,157.6 	"/>
	<polygon id="_Tracciato_121" class="st5" points="518,159.1 516.6,160.6 515.3,159.1 516.6,157.6 	"/>
	<path id="_Tracciato_122" class="st5" d="M519.8,150.7v11.2c0.1-0.9-0.6-1.7-1.5-1.7c-0.9-0.1-1.7,0.6-1.7,1.5c0,0.1,0,0.2,0,0.3"
		/>
	<path id="_Tracciato_123" class="st5" d="M529.3,151.1c0.1-0.9-0.6-1.7-1.5-1.7c-0.9-0.1-1.7,0.6-1.7,1.5c0,0.1,0,0.2,0,0.3v11
		c-0.1-0.9,0.6-1.7,1.5-1.7c0.9-0.1,1.7,0.6,1.7,1.5c0,0.1,0,0.2,0,0.3"/>
	<path id="_Tracciato_124" class="st5" d="M532.5,151.1c0.1-0.9-0.6-1.7-1.5-1.7c-0.9-0.1-1.7,0.6-1.7,1.5c0,0.1,0,0.2,0,0.3"/>
	<path id="_Tracciato_125" class="st5" d="M535.7,151.1c0.1-0.9-0.6-1.7-1.5-1.7c-0.9-0.1-1.7,0.6-1.7,1.5c0,0.1,0,0.2,0,0.3"/>
	<path id="_Tracciato_126" class="st5" d="M538.9,151.1c0.1-0.9-0.6-1.7-1.5-1.7c-0.9-0.1-1.7,0.6-1.7,1.5c0,0.1,0,0.2,0,0.3"/>
	<path id="_Tracciato_127" class="st5" d="M532.5,162.1c0.1-0.9-0.6-1.7-1.5-1.7c-0.9-0.1-1.7,0.6-1.7,1.5c0,0.1,0,0.2,0,0.3"/>
	<path id="_Tracciato_128" class="st5" d="M535.7,162.1c0.1-0.9-0.6-1.7-1.5-1.7c-0.9-0.1-1.7,0.6-1.7,1.5c0,0.1,0,0.2,0,0.3"/>
	<polygon id="_Tracciato_129" class="st5" points="530.7,152.6 529.3,154 527.9,152.6 529.3,151.1 	"/>
	<polygon id="_Tracciato_130" class="st5" points="533.9,152.6 532.5,154 531.1,152.6 532.5,151.1 	"/>
	<polygon id="_Tracciato_131" class="st5" points="537.1,152.6 535.7,154 534.4,152.6 535.7,151.1 	"/>
	<polygon id="_Tracciato_132" class="st5" points="530.7,155.9 529.3,157.4 527.9,155.9 529.3,154.5 	"/>
	<polygon id="_Tracciato_133" class="st5" points="533.9,155.9 532.5,157.4 531.1,155.9 532.5,154.5 	"/>
	<polygon id="_Tracciato_134" class="st5" points="537.1,155.9 535.7,157.4 534.4,155.9 535.7,154.5 	"/>
	<polygon id="_Tracciato_135" class="st5" points="530.7,159.3 529.3,160.8 527.9,159.3 529.3,157.8 	"/>
	<polygon id="_Tracciato_136" class="st5" points="533.9,159.3 532.5,160.8 531.1,159.3 532.5,157.8 	"/>
	<polygon id="_Tracciato_137" class="st5" points="537.1,159.3 535.7,160.8 534.4,159.3 535.7,157.8 	"/>
	<path id="_Tracciato_138" class="st5" d="M538.9,150.9v11.2c0.1-0.9-0.6-1.7-1.5-1.7c-0.9-0.1-1.7,0.6-1.7,1.5c0,0.1,0,0.2,0,0.3"
		/>
	<path id="_Tracciato_139" class="st5" d="M548.1,150.9c0.1-0.9-0.6-1.7-1.5-1.7c-0.9-0.1-1.7,0.6-1.7,1.5c0,0.1,0,0.2,0,0.3v11
		c-0.1-0.9,0.6-1.7,1.5-1.7c0.9-0.1,1.7,0.6,1.7,1.5c0,0.1,0,0.2,0,0.3"/>
	<path id="_Tracciato_140" class="st5" d="M551.3,150.9c0.1-0.9-0.6-1.7-1.5-1.7c-0.9-0.1-1.7,0.6-1.7,1.5c0,0.1,0,0.2,0,0.3"/>
	<path id="_Tracciato_141" class="st5" d="M554.5,150.9c0.1-0.9-0.6-1.7-1.5-1.7c-0.9-0.1-1.7,0.6-1.7,1.5c0,0.1,0,0.2,0,0.3"/>
	<path id="_Tracciato_142" class="st5" d="M557.7,150.9c0.1-0.9-0.6-1.7-1.5-1.7c-0.9-0.1-1.7,0.6-1.7,1.5c0,0.1,0,0.2,0,0.3"/>
	<path id="_Tracciato_143" class="st5" d="M551.3,161.9c0.1-0.9-0.6-1.7-1.5-1.7c-0.9-0.1-1.7,0.6-1.7,1.5c0,0.1,0,0.2,0,0.3"/>
	<path id="_Tracciato_144" class="st5" d="M554.5,161.9c0.1-0.9-0.6-1.7-1.5-1.7c-0.9-0.1-1.7,0.6-1.7,1.5c0,0.1,0,0.2,0,0.3"/>
	<polygon id="_Tracciato_145" class="st5" points="549.4,152.4 548.1,153.8 546.7,152.4 548.1,150.9 	"/>
	<polygon id="_Tracciato_146" class="st5" points="552.6,152.4 551.3,153.8 549.9,152.4 551.3,150.9 	"/>
	<polygon id="_Tracciato_147" class="st5" points="555.9,152.4 554.5,153.8 553.1,152.4 554.5,150.9 	"/>
	<polygon id="_Tracciato_148" class="st5" points="549.4,155.8 548.1,157.2 546.7,155.8 548.1,154.3 	"/>
	<polygon id="_Tracciato_149" class="st5" points="552.6,155.8 551.3,157.2 549.9,155.8 551.3,154.3 	"/>
	<polygon id="_Tracciato_150" class="st5" points="555.9,155.8 554.5,157.2 553.1,155.8 554.5,154.3 	"/>
	<polygon id="_Tracciato_151" class="st5" points="549.4,159.1 548.1,160.6 546.7,159.1 548.1,157.6 	"/>
	<polygon id="_Tracciato_152" class="st5" points="552.6,159.1 551.3,160.6 549.9,159.1 551.3,157.6 	"/>
	<polygon id="_Tracciato_153" class="st5" points="555.9,159.1 554.5,160.6 553.1,159.1 554.5,157.6 	"/>
	<path id="_Tracciato_154" class="st5" d="M557.6,150.7v11.2c0.1-0.9-0.6-1.7-1.5-1.7c-0.9-0.1-1.7,0.6-1.7,1.5c0,0.1,0,0.2,0,0.3"
		/>
	<path id="_Tracciato_155" class="st6" d="M436.4,196v0.7h-7.4l0.5-1.4h5.5c-0.4-13.9-12-24.9-25.9-24.5
		c-13.4,0.4-24.1,11.1-24.5,24.5h4.8h1.6l0.2,1.4h-7.9v-0.7c0-13.1,9.5-24.3,22.4-26.3c2.8-0.4,5.6-0.4,8.4,0
		c12.3,2,21.6,12.2,22.4,24.6C436.4,194.9,436.4,195.4,436.4,196z"/>
	<path id="_Tracciato_156" class="st6" d="M559.2,196v0.7h-7.4l0.5-1.4h5.5c-0.4-13.9-12-24.9-25.9-24.5
		c-13.4,0.4-24.1,11.1-24.5,24.5h4.8h1.5l0.2,1.4H506v-0.7c0-0.9,0-1.7,0.1-2.6c1.2-12,10.3-21.8,22.3-23.7c2.8-0.4,5.6-0.4,8.4,0
		C549.7,171.9,559.2,182.9,559.2,196z"/>
	<path id="_Tracciato_157" class="st1" d="M497.8,169.7V196c0-13.1-9.5-24.2-22.4-26.3H497.8z"/>
	<path id="_Tracciato_158" class="st6" d="M497.8,196v0.7h-7.4l0.5-1.4h5.5c-0.4-13.9-12-24.9-25.9-24.5
		c-13.4,0.4-24.1,11.1-24.5,24.5h4.8h1.5l0.2,1.4h-7.9v-0.7c0-0.9,0-1.8,0.1-2.7c1.2-12,10.4-21.7,22.3-23.6c2.8-0.4,5.6-0.4,8.4,0
		c12.2,2,21.5,12.1,22.3,24.5C497.8,194.8,497.8,195.4,497.8,196z"/>
	<path id="_Tracciato_159" class="st2" d="M496.4,195.3h-5c-0.6-11.2-10.2-19.8-21.4-19.2c-10.4,0.5-18.6,8.8-19.2,19.2H446
		c0.4-13.9,12-24.9,25.9-24.5C485.3,171.1,496.1,181.9,496.4,195.3L496.4,195.3z"/>
	<path id="_Tracciato_160" class="st1" d="M491.5,196.7h-40.7v-0.3c0-0.4,0-0.7,0-1.1c0.6-11.2,10.2-19.8,21.4-19.2
		c10.4,0.6,18.6,8.9,19.2,19.2c0,0.3,0,0.7,0,1L491.5,196.7z"/>
	<polygon id="_Tracciato_161" class="st7" points="445.7,196.3 435.9,196.3 436.4,194.4 436.4,194.4 436.4,194.1 437.5,189.5 
		437.6,189.3 443.5,189.3 444.6,192.9 444.8,193.3 444.8,193.3 	"/>
	<path id="_Tracciato_162" class="st2" d="M557.8,195.3h-5c-0.6-11.2-10.2-19.8-21.4-19.2c-10.4,0.5-18.6,8.8-19.2,19.2h-4.8
		c0.4-13.9,12-24.9,25.9-24.5C546.7,171.1,557.5,181.9,557.8,195.3L557.8,195.3z"/>
	<path id="_Tracciato_163" class="st1" d="M552.8,196.7h-40.7v-0.3c0-0.4,0-0.7,0-1.1c0.6-11.2,10.2-19.8,21.4-19.2
		c10.4,0.6,18.6,8.9,19.2,19.2c0,0.3,0,0.7,0,1L552.8,196.7z"/>
	<path id="_Tracciato_164" class="st2" d="M435.1,195.3h-5c-0.6-11.2-10.2-19.8-21.4-19.2c-10.4,0.5-18.6,8.8-19.2,19.2l0,0h-4.8
		c0.4-13.9,12-24.9,25.9-24.5C424,171.1,434.7,181.9,435.1,195.3L435.1,195.3z"/>
	<path id="_Tracciato_165" class="st1" d="M430.1,196.7h-40.6v-0.3c0-0.4,0-0.7,0-1.1l0,0c0.6-11.2,10.2-19.8,21.4-19.2
		c10.4,0.6,18.6,8.9,19.2,19.2c0,0.3,0,0.7,0,1L430.1,196.7z"/>
	<polygon id="_Tracciato_166" class="st7" points="507,196.3 497.3,196.3 497.8,194.2 497.8,194.2 497.8,194 498.9,189.3 
		504.9,189.3 506,193 506.1,193.4 506.1,193.4 	"/>
</g>
<path id="_Tracciato_167" class="st1" d="M297.5,112.4v0.4c-1.5,0.1-2.6,1.3-2.6,2.8v34.8h-0.7v-34.8c0-1.6,1.2-3,2.7-3.4
	c0.2,0,0.4-0.1,0.6-0.1L297.5,112.4z"/>
<path id="_Tracciato_168" class="st1" d="M306.6,115.5v34.8h-0.7v-34.8c0-1.5-1.1-2.7-2.6-2.8V112c0.2,0,0.4,0,0.6,0.1
	C305.5,112.5,306.6,113.9,306.6,115.5z"/>
<path id="_Tracciato_169" class="st1" d="M303.9,112.4h-0.7c0-1.5-1.2-2.8-2.8-2.8c-1.5,0-2.8,1.2-2.8,2.8c0,0,0,0,0,0h-0.7
	c0-0.1,0-0.2,0-0.3c0.1-1.9,1.8-3.4,3.7-3.2c1.7,0.1,3.1,1.5,3.2,3.2C303.9,112.2,303.9,112.3,303.9,112.4z"/>
<path id="_Tracciato_170" class="st1" d="M219.8,112v0.7c-1.5,0.1-2.6,1.3-2.6,2.8v34.8h-0.7v-34.8c0-1.6,1.2-3,2.7-3.4
	C219.5,112,219.7,112,219.8,112z"/>
<path id="_Tracciato_171" class="st1" d="M229,115.4v34.8h-0.7v-34.8c0-1.5-1.2-2.7-2.6-2.8V112c0.2,0,0.4,0,0.5,0.1
	C227.8,112.4,228.9,113.8,229,115.4z"/>
<path id="_Tracciato_172" class="st1" d="M226.2,112.3h-0.7c-0.1-1.5-1.4-2.7-2.9-2.6c-1.4,0.1-2.5,1.2-2.6,2.6h-0.7
	c0-0.1,0-0.2,0-0.3c0.2-1.9,1.9-3.3,3.8-3.1c1.7,0.2,3,1.5,3.1,3.1C226.2,112.1,226.2,112.3,226.2,112.3z"/>
<path id="_Tracciato_composto_5" class="st6" d="M14.2,122.3v14.1h10.3v-14.1H14.2z M23.8,135.7h-8.9V123h8.9V135.7z"/>
<rect id="_Tracciato_173" x="14.9" y="123" class="st8" width="8.9" height="12.6"/>
<path id="_Tracciato_composto_6" class="st6" d="M45.9,122.3v14.1h10.3v-14.1H45.9z M55.5,135.7h-8.9V123h8.9V135.7z"/>
<rect id="_Tracciato_174" x="46.6" y="123" class="st8" width="8.9" height="12.6"/>
<path id="_Tracciato_composto_7" class="st6" d="M14.2,97.8v10.3h10.3V97.8H14.2z M23.8,107.5h-8.9v-8.9h8.9V107.5z"/>
<rect id="_Tracciato_175" x="14.9" y="98.6" class="st8" width="8.9" height="8.9"/>
<path id="_Tracciato_composto_8" class="st6" d="M45.9,97.8v10.3h10.3V97.8H45.9z M55.5,107.5h-8.9v-8.9h8.9V107.5z"/>
<rect id="_Tracciato_176" x="46.6" y="98.6" class="st8" width="8.9" height="8.9"/>
<path id="_Tracciato_composto_9" class="st6" d="M30.6,182.9v-2.3l-0.1-20.3v-0.2c0-0.2,0-0.4,0-0.5c-0.3-6.2-5.5-11-11.6-10.7
	c-5.8,0.2-10.5,4.9-10.7,10.7c0,0.2,0,0.4,0,0.5v25.8h22.5L30.6,182.9z M8.8,185.3v-25.2c0-5.8,4.7-10.5,10.5-10.5
	s10.5,4.7,10.5,10.5l0.1,20.5v4.7H8.8z"/>
<path id="_Tracciato_177" class="st6" d="M64.8,159.9v0.4h-2.9v-0.7h2.2c0-7.2-5.8-13-13-13s-13,5.8-13,13h2.1v0.7h-2.8v-0.4
	c0.2-7.6,6.5-13.5,14.1-13.3C58.7,146.8,64.6,152.6,64.8,159.9L64.8,159.9z"/>
<path id="_Tracciato_178" class="st6" d="M96.3,159.9v0.4h-2.9v-0.7h2.3c0-7.2-5.8-13-13-13s-13,5.8-13,13h2.1v0.7h-2.8v-0.4
	c0.2-7.6,6.5-13.5,14.1-13.3C90.3,146.8,96.2,152.6,96.3,159.9L96.3,159.9z"/>
<path id="_Tracciato_179" class="st6" d="M128.1,160.1v0.4h-2.9v-0.7h2.2c0-7.2-5.8-13-13-13c-7.2,0-13,5.8-13,13h2.1v0.7h-2.8v-0.4
	c-0.2-7.6,5.8-13.9,13.3-14.1c7.6-0.2,13.9,5.8,14.1,13.3C128.1,159.6,128.1,159.8,128.1,160.1L128.1,160.1z"/>
<path id="_Tracciato_180" class="st6" d="M159.6,160.1v0.4h-2.9v-0.7h2.2c0-7.2-5.8-13-13-13s-13,5.8-13,13h2.1v0.7h-2.8v-0.4
	c0.2-7.6,6.5-13.5,14.1-13.3C153.6,146.9,159.5,152.8,159.6,160.1L159.6,160.1z"/>
<path id="_Tracciato_181" class="st9" d="M32.4,159.5h-1.9c-0.3-6.2-5.5-11-11.6-10.7c-5.8,0.2-10.5,4.9-10.7,10.7H6.3
	c0-7.2,5.8-13,13-13S32.3,152.4,32.4,159.5L32.4,159.5z"/>
<path id="_Tracciato_182" class="st6" d="M33.1,159.9v0.4h-2.9v-0.7h2.2c0-7.2-5.8-13-13-13s-13,5.8-13,13h2.1v0.7H5.6v-0.4
	c0.2-7.6,6.5-13.5,14.1-13.3C27,146.8,32.9,152.6,33.1,159.9L33.1,159.9z"/>
<path id="_Tracciato_183" class="st1" d="M310,110.5v0.4h-2v-0.7h1.3c-0.2-4.9-4.3-8.8-9.2-8.6c-4.7,0.2-8.5,3.9-8.6,8.6h1.3v0.7h-2
	v-0.4c-0.2-5.3,4-9.8,9.3-9.9c5.3-0.2,9.8,4,9.9,9.3C310,110.1,310,110.3,310,110.5L310,110.5z"/>
<path id="_Tracciato_composto_10" class="st8" d="M358.5,165.9c-0.2-5.9-5.1-10.5-10.9-10.3c-5.6,0.2-10.1,4.7-10.3,10.3
	c0,0.1,0,0.2,0,0.4v0.4h21.2v-0.4C358.5,166.1,358.5,166,358.5,165.9z M338,165.9c0.2-5.5,4.9-9.7,10.3-9.5c5.1,0.2,9.2,4.3,9.5,9.5
	H338z"/>
<path id="_Tracciato_184" class="st6" d="M357.8,165.9H338c0.2-5.5,4.9-9.7,10.3-9.5C353.5,156.7,357.6,160.8,357.8,165.9z"/>
<path id="_Tracciato_185" class="st6" d="M27.8,196.4h-0.7c0-0.1,0-0.2,0-0.4c-0.2-4.3-3.9-7.6-8.2-7.4c-4,0.2-7.2,3.4-7.4,7.4
	c0,0.1,0,0.2,0,0.4h-0.7c0-0.1,0-0.2,0-0.4c0.3-4.7,4.4-8.2,9.1-7.9c4.2,0.3,7.6,3.7,7.9,7.9C27.8,196.2,27.8,196.3,27.8,196.4z"/>
<path id="_Tracciato_186" class="st6" d="M59.6,196.4h-0.7c0-0.1,0-0.2,0-0.4c-0.2-4.3-3.9-7.6-8.2-7.4c-4,0.2-7.2,3.4-7.4,7.4
	c0,0.1,0,0.2,0,0.4h-0.7c0-0.1,0-0.2,0-0.4c0.3-4.7,4.4-8.2,9.1-7.9c4.2,0.3,7.6,3.7,7.9,7.9C59.6,196.2,59.6,196.3,59.6,196.4z"/>
<path id="_Tracciato_187" class="st9" d="M64.1,159.5h-1.9c-0.3-6.2-5.5-11-11.6-10.7c-5.8,0.2-10.5,4.9-10.7,10.7H38
	c0-7.2,5.8-13,13-13S64,152.4,64.1,159.5L64.1,159.5z"/>
<path id="_Tracciato_188" class="st6" d="M62.2,159.9h-0.7c-0.1-5.8-4.8-10.5-10.6-10.4s-10.5,4.8-10.4,10.6h-0.7c0-0.2,0-0.4,0-0.5
	c0.3-6.2,5.5-11,11.6-10.7c5.8,0.2,10.5,4.9,10.7,10.7C62.2,159.6,62.2,159.8,62.2,159.9z"/>
<polygon id="_Tracciato_189" class="st6" points="62.3,185.9 39.8,185.9 39.8,160.1 40.5,160.1 40.5,185.2 61.6,185.2 61.6,182.9 
	61.6,182.1 61.6,180.5 61.5,159.9 61.5,159.9 61.8,159.9 62.2,159.9 62.2,160.2 62.3,180.5 62.3,182.9 "/>
<path id="_Tracciato_composto_11" class="st8" d="M28.8,112.1v4h4v-4H28.8z M32.1,115.4h-2.6v-2.6h2.6V115.4z"/>
<rect id="_Tracciato_190" x="29.5" y="112.8" class="st6" width="2.6" height="2.6"/>
<path id="_Tracciato_composto_12" class="st8" d="M37.1,112.1v4h4v-4H37.1z M40.4,115.4h-2.6v-2.6h2.6V115.4z"/>
<rect id="_Tracciato_191" x="37.8" y="112.8" class="st6" width="2.6" height="2.6"/>
<path id="_Tracciato_composto_13" class="st8" d="M28.8,143.9v4h4v-4H28.8z M32.1,147.3h-2.6v-2.6h2.6V147.3z"/>
<rect id="_Tracciato_192" x="29.5" y="144.6" class="st6" width="2.6" height="2.6"/>
<path id="_Tracciato_composto_14" class="st8" d="M37.1,143.9v4h4v-4H37.1z M40.4,147.3h-2.6v-2.6h2.6V147.3z"/>
<rect id="_Tracciato_193" x="37.8" y="144.6" class="st6" width="2.6" height="2.6"/>
<path id="_Tracciato_composto_15" class="st8" d="M60.6,112.1v4h4v-4H60.6z M63.9,115.4h-2.6v-2.6h2.6V115.4z"/>
<rect id="_Tracciato_194" x="61.3" y="112.8" class="st6" width="2.6" height="2.6"/>
<path id="_Tracciato_composto_16" class="st8" d="M68.9,112.1v4h4v-4H68.9z M72.3,115.4h-2.6v-2.6h2.6L72.3,115.4z"/>
<rect id="_Tracciato_195" x="69.6" y="112.8" class="st6" width="2.6" height="2.6"/>
<path id="_Tracciato_composto_17" class="st8" d="M60.6,143.9v4h4v-4H60.6z M63.9,147.3h-2.6v-2.6h2.6V147.3z"/>
<rect id="_Tracciato_196" x="61.3" y="144.6" class="st6" width="2.6" height="2.6"/>
<path id="_Tracciato_composto_18" class="st8" d="M68.9,143.9v4h4v-4H68.9z M72.3,147.3h-2.6v-2.6h2.6L72.3,147.3z"/>
<rect id="_Tracciato_197" x="69.6" y="144.6" class="st6" width="2.6" height="2.6"/>
<path id="_Tracciato_composto_19" class="st8" d="M92.4,112.1v4h4v-4H92.4z M95.8,115.4h-2.6v-2.6h2.6V115.4z"/>
<rect id="_Tracciato_198" x="93.1" y="112.8" class="st6" width="2.6" height="2.6"/>
<path id="_Tracciato_composto_20" class="st8" d="M100.8,112.1v4h4v-4H100.8z M104.1,115.4h-2.6v-2.6h2.6V115.4z"/>
<rect id="_Tracciato_199" x="101.5" y="112.8" class="st6" width="2.6" height="2.6"/>
<path id="_Tracciato_composto_21" class="st8" d="M92.4,143.9v4h4v-4H92.4z M95.8,147.3h-2.6v-2.6h2.6V147.3z"/>
<rect id="_Tracciato_200" x="93.1" y="144.6" class="st6" width="2.6" height="2.6"/>
<path id="_Tracciato_composto_22" class="st8" d="M100.8,143.9v4h4v-4H100.8z M104.1,147.3h-2.6v-2.6h2.6V147.3z"/>
<rect id="_Tracciato_201" x="101.5" y="144.6" class="st6" width="2.6" height="2.6"/>
<path id="_Tracciato_composto_23" class="st8" d="M124.2,112.1v4h4v-4H124.2z M127.6,115.4h-2.6v-2.6h2.6V115.4z"/>
<rect id="_Tracciato_202" x="124.9" y="112.8" class="st6" width="2.6" height="2.6"/>
<path id="_Tracciato_composto_24" class="st8" d="M132.6,112.1v4h4v-4H132.6z M135.9,115.4h-2.6v-2.6h2.6V115.4z"/>
<rect id="_Tracciato_203" x="133.3" y="112.8" class="st6" width="2.6" height="2.6"/>
<path id="_Tracciato_composto_25" class="st8" d="M124.2,143.9v4h4v-4H124.2z M127.6,147.3h-2.6v-2.6h2.6V147.3z"/>
<rect id="_Tracciato_204" x="124.9" y="144.6" class="st6" width="2.6" height="2.6"/>
<path id="_Tracciato_composto_26" class="st8" d="M132.6,143.9v4h4v-4H132.6z M135.9,147.3h-2.6v-2.6h2.6V147.3z"/>
<rect id="_Tracciato_205" x="133.3" y="144.6" class="st6" width="2.6" height="2.6"/>
<path id="_Tracciato_composto_27" class="st8" d="M156.1,112.1v4h4v-4H156.1z M159.4,115.4h-2.6v-2.6h2.6V115.4z"/>
<rect id="_Tracciato_206" x="156.8" y="112.8" class="st6" width="2.6" height="2.6"/>
<path id="_Tracciato_composto_28" class="st8" d="M156.1,143.9v4h4v-4H156.1z M159.4,147.3h-2.6v-2.6h2.6V147.3z"/>
<rect id="_Tracciato_207" x="156.8" y="144.6" class="st6" width="2.6" height="2.6"/>
<path id="_Tracciato_composto_29" class="st6" d="M77.5,122.3v14.1h10.3v-14.1H77.5z M87.1,135.7h-8.9V123h8.9V135.7z"/>
<rect id="_Tracciato_208" x="78.2" y="123" class="st8" width="8.9" height="12.6"/>
<path id="_Tracciato_composto_30" class="st6" d="M109.2,122.3v14.1h10.3v-14.1H109.2z M118.8,135.7h-8.9V123h8.9V135.7z"/>
<rect id="_Tracciato_209" x="109.9" y="123" class="st8" width="8.9" height="12.6"/>
<path id="_Tracciato_composto_31" class="st6" d="M77.5,97.8v10.3h10.3V97.8H77.5z M87.1,107.5h-8.9v-8.9h8.9V107.5z"/>
<rect id="_Tracciato_210" x="78.2" y="98.6" class="st8" width="8.9" height="8.9"/>
<path id="_Tracciato_composto_32" class="st6" d="M109.2,97.8v10.3h10.3V97.8H109.2z M118.8,107.5h-8.9v-8.9h8.9V107.5z"/>
<rect id="_Tracciato_211" x="109.9" y="98.6" class="st8" width="8.9" height="8.9"/>
<path id="_Tracciato_composto_33" class="st6" d="M93.8,160.3v-0.2c0-0.2,0-0.4,0-0.5c-0.3-6.2-5.5-11-11.6-10.7
	c-5.8,0.2-10.5,4.9-10.7,10.7c0,0.2,0,0.4,0,0.5v25.8h22.5L93.8,160.3z M72.1,185.3v-25.2c0-5.8,4.7-10.5,10.5-10.5
	s10.5,4.7,10.5,10.5l0.1,20.5v4.7H72.1z"/>
<path id="_Tracciato_212" class="st9" d="M95.6,159.5h-1.9c-0.3-6.2-5.5-11-11.6-10.7c-5.8,0.2-10.5,4.9-10.7,10.7h-1.8
	c0-7.2,5.8-13,13-13S95.6,152.4,95.6,159.5z"/>
<path id="_Tracciato_213" class="st6" d="M91.1,196.4h-0.7c0-0.1,0-0.2,0-0.4c-0.2-4.3-3.9-7.6-8.2-7.4c-4,0.2-7.2,3.4-7.4,7.4
	c0,0.1,0,0.2,0,0.4h-0.7c0-0.1,0-0.2,0-0.4c0.3-4.7,4.4-8.2,9.1-7.9c4.2,0.3,7.6,3.7,7.9,7.9C91.1,196.2,91.1,196.3,91.1,196.4z"/>
<path id="_Tracciato_214" class="st6" d="M122.9,196.4h-0.7c0-0.1,0-0.2,0-0.4c-0.2-4.3-3.9-7.6-8.2-7.4c-4,0.2-7.2,3.4-7.4,7.4
	c0,0.1,0,0.2,0,0.4h-0.7c0-0.1,0-0.2,0-0.4c0.3-4.7,4.4-8.2,9.1-7.9c4.2,0.3,7.6,3.7,7.9,7.9C122.8,196.2,122.9,196.3,122.9,196.4z"
	/>
<path id="_Tracciato_composto_34" class="st6" d="M125.6,182.9v-2.3l-0.1-20.1v-0.4c0-0.1,0-0.2,0-0.3c0-6.2-5-11.2-11.2-11.2
	c-6.2,0-11.2,5-11.2,11.2c0,0.1,0,0.2,0,0.4v25.8h22.5L125.6,182.9z M103.8,185.3v-25.2c0-5.8,4.7-10.5,10.5-10.5
	s10.5,4.7,10.5,10.5l0.1,20.5v4.7H103.8z"/>
<path id="_Tracciato_215" class="st9" d="M127.4,159.7h-1.9c0-6.2-5-11.2-11.2-11.2c-6.2,0-11.2,5-11.2,11.2h-1.8
	c0-7.2,5.8-13,13-13C121.5,146.7,127.3,152.5,127.4,159.7L127.4,159.7z"/>
<path id="_Tracciato_composto_35" class="st6" d="M140.8,122.3v14.1h10.3v-14.1H140.8z M150.4,135.7h-8.9V123h8.9V135.7z"/>
<rect id="_Tracciato_216" x="141.5" y="123" class="st8" width="8.9" height="12.6"/>
<path id="_Tracciato_composto_36" class="st6" d="M140.8,97.8v10.3h10.3V97.8H140.8z M150.4,107.5h-8.9v-8.9h8.9V107.5z"/>
<rect id="_Tracciato_217" x="141.5" y="98.6" class="st8" width="8.9" height="8.9"/>
<path id="_Tracciato_composto_37" class="st6" d="M157.1,160.4v-0.4c0-0.1,0-0.2,0-0.4c-0.2-6.2-5.3-11-11.5-10.8
	c-5.9,0.2-10.7,4.9-10.8,10.8c0,0.1,0,0.2,0,0.4v25.8h22.5L157.1,160.4z M135.4,185.3v-25.2c0-5.8,4.7-10.5,10.5-10.5
	s10.5,4.7,10.5,10.5l0.1,20.5v4.7H135.4z"/>
<path id="_Tracciato_218" class="st9" d="M158.9,159.7H157c-0.2-6.2-5.3-11-11.5-10.8c-5.9,0.2-10.7,4.9-10.8,10.8h-1.8
	c0-7.2,5.8-13,13-13S158.9,152.5,158.9,159.7L158.9,159.7z"/>
<path id="_Tracciato_composto_38" class="st1" d="M230.8,150l-0.1-38.7v-0.1c0-0.2,0-0.4,0-0.6c-0.4-4.4-4.3-7.6-8.7-7.2
	c-3.8,0.4-6.9,3.4-7.2,7.2c0,0.2,0,0.4,0,0.6v42.5h16L230.8,150z M230.1,152.8h-14.6v-41.8c0-4,3.3-7.3,7.3-7.3s7.3,3.3,7.3,7.3
	l0.1,38.9L230.1,152.8L230.1,152.8z"/>
<path id="_Tracciato_composto_39" class="st1" d="M308.4,150l-0.1-38.9v-0.2c0-0.2,0-0.5,0-0.7c-0.5-4.4-4.5-7.5-8.9-7
	c-3.6,0.4-6.5,3.3-7,7c0,0.2,0,0.5,0,0.7v42.6h16L308.4,150z M307.7,152.8h-14.6v-41.8c0-4,3.3-7.3,7.3-7.3s7.3,3.3,7.3,7.3
	l0.1,38.9L307.7,152.8L307.7,152.8z"/>
<path id="_Tracciato_219" class="st2" d="M309.3,110.2h-1c-0.5-4.4-4.5-7.5-8.9-7c-3.6,0.4-6.5,3.3-7,7h-1c0.2-4.9,4.3-8.8,9.2-8.6
	C305.4,101.7,309.1,105.5,309.3,110.2L309.3,110.2z"/>
<path id="_Tracciato_composto_40" class="st6" d="M355.3,123v-4.2c0-4.4-7.5-9-7.8-9.2l-0.2-0.1l-0.2,0.1c-0.3,0.2-7.8,4.8-7.8,9.2
	v25.8h16v-1.9L355.3,123z M354.6,143.8H340v-25.1c0-3.6,6.1-7.7,7.3-8.5c1.1,0.8,7.3,4.9,7.3,8.5v4.9v18.9L354.6,143.8z"/>
<polygon id="_Tracciato_220" class="st2" points="354.6,142.6 353.9,142.6 353.9,123.7 354.6,123.7 "/>
<path id="_Tracciato_composto_41" class="st9" d="M354.6,118.8c0-3.6-6.1-7.8-7.3-8.5c-1.1,0.8-7.3,4.9-7.3,8.5v4.2h1
	c0.2-0.4,0.6-0.7,1.1-0.9c0.2-0.9,0.9-1.5,1.8-1.5c0.9,0.1,1.6,0.7,1.8,1.5c0.5,0.1,0.9,0.4,1.1,0.8h1.3c0.2-0.4,0.6-0.7,1.1-0.9
	l0,0c0.1-1,1-1.6,2-1.5c0.8,0.1,1.4,0.7,1.5,1.5c0.5,0.1,0.9,0.4,1.1,0.8h1L354.6,118.8z M349.3,117.6c-0.1,1.1-1.1,1.8-2.1,1.7
	c-0.9-0.1-1.6-0.8-1.7-1.7c-1-0.4-1.5-1.5-1.1-2.5c0.2-0.5,0.6-0.9,1.1-1.1c0-0.2-0.1-0.3-0.1-0.5c0-1.1,0.9-1.9,1.9-1.9
	s1.9,0.9,1.9,1.9c0,0.2,0,0.3-0.1,0.5c0.7,0.3,1.1,1,1.2,1.7C350.4,116.6,349.9,117.3,349.3,117.6L349.3,117.6z"/>
<path id="_Tracciato_221" class="st8" d="M353.2,140.3v2.3h-4.8v-18.7c0-0.6,0.4-1.1,1-1.1v-0.1h0.2c0-0.6,0.5-1.4,1.1-1.4
	s1.1,0.8,1.1,1.4h0.2v0.1c0.6,0.1,1,0.5,1,1.1L353.2,140.3L353.2,140.3z"/>
<path id="_Tracciato_222" class="st8" d="M346.3,140.3v2.3h-4.8v-18.7c0-0.6,0.4-1.1,1-1.1v-0.1h0.3c0-0.7,0.4-1.3,1.1-1.4
	c0.6,0,1.1,0.8,1.1,1.4h0.2v0.1c0.6,0.1,1,0.5,1,1.1L346.3,140.3L346.3,140.3z"/>
<path id="_Tracciato_composto_42" class="st8" d="M196.2,50.2c0-5.2-4.2-9.4-9.4-9.4s-9.4,4.2-9.4,9.4v11.2l18.8,0.1L196.2,50.2z
	 M178.2,60.6V50.2c0-4.8,3.9-8.7,8.7-8.7c4.8,0,8.7,3.9,8.7,8.7v10.5L178.2,60.6z"/>
<path id="_Tracciato_223" class="st1" d="M195.5,60.7l-17.4-0.1V50.2c0-4.8,3.9-8.7,8.7-8.7c4.8,0,8.7,3.9,8.7,8.7L195.5,60.7z"/>
<path id="_Tracciato_224" class="st8" d="M322.4,101.2L322.4,101.2l-0.7,0.1V99c0-0.9-0.7-1.5-1.5-1.5c-0.9,0-1.5,0.7-1.5,1.5
	c0,0,0,0,0,0v2.3h-0.7V99c0-1.2,1-2.2,2.2-2.2s2.2,1,2.2,2.2L322.4,101.2z"/>
<polygon id="_Tracciato_225" class="st8" points="322.1,100.9 322.1,101.3 322.1,101.3 322,101.6 321.9,101.6 321.8,101.6 
	321.8,101.5 321.8,101.5 321.8,101.3 321.8,100.9 "/>
<path id="_Tracciato_226" class="st8" d="M327.2,101.2L327.2,101.2l-0.7,0.1V99c0-0.9-0.7-1.5-1.5-1.5c-0.9,0-1.5,0.7-1.5,1.5
	c0,0,0,0,0,0v2.3h-0.7V99c0-1.2,1-2.2,2.2-2.2s2.2,1,2.2,2.2L327.2,101.2z"/>
<rect id="_Tracciato_227" x="323" y="100.9" class="st8" width="0.3" height="0.7"/>
<path id="_Tracciato_228" class="st8" d="M169.4,20.2h-0.7c0-2.7-1.8-5-4.1-5.2v12.2l-0.7,0.1v-13h0.4c2.3,0.1,4.2,1.6,4.9,3.8
	C169.3,18.7,169.4,19.4,169.4,20.2z"/>
<path id="_Tracciato_229" class="st8" d="M181.3,20.2h-0.7c0-2.7-1.8-5-4.1-5.2v12.3h-2.9V15c-2.3,0.2-4.1,2.5-4.1,5.2h-0.7
	c0-0.7,0.1-1.4,0.3-2.1c0.6-2.2,2.6-3.7,4.8-3.8h0.4v12.3h1.5V14.3h0.4c2.3,0.1,4.2,1.6,4.9,3.8C181.2,18.7,181.3,19.4,181.3,20.2z"
	/>
<path id="_Tracciato_230" class="st8" d="M193.1,20.1h-0.7c0-2.7-1.8-5-4.1-5.2v12.3h-2.8V15c-2.3,0.2-4.1,2.5-4.1,5.2h-0.7
	c0-0.7,0.1-1.4,0.3-2.1c0.6-2.2,2.6-3.7,4.8-3.8h0.4v12.3h1.4V14.3h0.4c2.3,0.1,4.2,1.6,4.9,3.8C193,18.7,193.1,19.4,193.1,20.1z"/>
<path id="_Tracciato_231" class="st8" d="M205,20.1h-0.7c0-2.7-1.8-5-4.1-5.2v12.3h-2.9V15c-2.3,0.2-4.1,2.5-4.1,5.2h-0.7
	c0-0.7,0.1-1.4,0.3-2.1c0.6-2.2,2.6-3.7,4.9-3.8h0.4v12.2h1.5V14.2h0.4c2.3,0.1,4.2,1.6,4.8,3.8C204.9,18.7,205,19.4,205,20.1z"/>
<path id="_Tracciato_232" class="st8" d="M209.9,26.9v0.3l-0.7,0.1V14.9c-2.3,0.2-4.1,2.5-4.1,5.2h-0.7c0-0.7,0.1-1.4,0.3-2.1
	c0.6-2.2,2.6-3.7,4.8-3.8h0.4L209.9,26.9z"/>
<path id="_Tracciato_233" class="st8" d="M206.2,71.8v0.7h-4.3v-1.9c0-1.7-1.4-3.2-3.2-3.2s-3.2,1.4-3.2,3.2v2H194v-2
	c0-1.7-1.4-3.2-3.2-3.2s-3.2,1.4-3.2,3.2v2h-1.5v-2c0-1.7-1.4-3.2-3.2-3.2s-3.2,1.4-3.2,3.2v2.1h-1.5v-2.1c0-1.7-1.4-3.2-3.2-3.2
	s-3.2,1.4-3.2,3.2v2h-4.5v-0.7h3.8v-1.3c0-2.1,1.7-3.9,3.9-3.9c2.1,0,3.9,1.7,3.9,3.9V72h0.1v-1.4c0-2.1,1.7-3.9,3.9-3.9
	c2.1,0,3.9,1.7,3.9,3.9v1.3h0.1v-1.3c0-2.1,1.7-3.9,3.9-3.9c2.1,0,3.9,1.7,3.9,3.9v1.3h0.1v-1.3c0-2.1,1.7-3.9,3.9-3.9
	c2.1,0,3.9,1.7,3.9,3.9v1.2H206.2z"/>
<path id="_Tracciato_234" class="st6" d="M154.4,196.4h-0.7c0-0.1,0-0.2,0-0.4c-0.2-4.3-3.9-7.6-8.2-7.4c-4,0.2-7.2,3.4-7.4,7.4
	c0,0.1,0,0.2,0,0.4h-0.7c0-0.1,0-0.2,0-0.4c0.3-4.7,4.4-8.2,9.1-7.9c4.2,0.3,7.6,3.7,7.9,7.9C154.4,196.2,154.4,196.3,154.4,196.4z"
	/>
<polygon id="_Tracciato_235" class="st6" points="25.9,119.9 25.6,120.4 24.5,122.8 24.5,122.8 23.9,122.5 24,122.3 24.7,120.6 
	14,120.6 14.7,122.3 14.8,122.5 14.2,122.8 14.2,122.8 13.1,120.4 12.9,119.9 "/>
<polygon id="_Tracciato_236" class="st6" points="57.5,119.9 57.3,120.4 56.2,122.7 56.2,122.8 55.5,122.5 55.6,122.3 56.4,120.6 
	45.7,120.6 46.4,122.3 46.5,122.5 45.9,122.8 45.9,122.8 44.8,120.4 44.6,119.9 "/>
<polygon id="_Tracciato_237" class="st6" points="89.2,119.9 89,120.4 87.9,122.8 87.8,122.8 87.2,122.5 87.3,122.3 88.1,120.6 
	77.4,120.6 78.1,122.3 78.2,122.5 77.6,122.8 77.5,122.6 76.5,120.4 76.3,119.9 "/>
<polygon id="_Tracciato_238" class="st6" points="120.9,119.9 120.7,120.4 119.5,122.8 119.5,122.8 118.9,122.5 119,122.3 
	119.8,120.6 109,120.6 109.8,122.3 109.9,122.5 109.3,122.8 109.2,122.6 108.2,120.4 108,119.9 "/>
<polygon id="_Tracciato_239" class="st6" points="152.6,119.9 152.4,120.4 151.2,122.8 151.1,122.8 150.6,122.5 150.7,122.3 
	151.5,120.6 140.7,120.6 141.5,122.3 141.6,122.5 140.9,122.8 140.8,122.4 139.9,120.4 139.6,119.9 "/>
<path id="_Tracciato_composto_43" class="st6" d="M12.6,118.1v2.3h13.3v-2.3H12.6z M13.3,118.8h11.9v0.9H13.4L13.3,118.8z"/>
<rect id="_Tracciato_240" x="13.4" y="118.8" class="st9" width="11.9" height="0.9"/>
<path id="_Tracciato_composto_44" class="st8" d="M8.1,180.5v2.3h22.5v-2.3H8.1z M29.9,182.1H8.8v-0.9h21.1V182.1z"/>
<rect id="_Tracciato_241" x="8.8" y="181.2" class="st6" width="21.1" height="0.9"/>
<path id="_Tracciato_composto_45" class="st8" d="M39.8,180.5v2.3h22.5v-2.3H39.8z M61.6,182.1h-21v-0.9h21V182.1z"/>
<rect id="_Tracciato_242" x="40.5" y="181.2" class="st6" width="21.1" height="0.9"/>
<path id="_Tracciato_composto_46" class="st8" d="M71.4,180.5v2.3h22.5v-2.3H71.4z M93.1,182.1h-21v-0.9h21V182.1z"/>
<rect id="_Tracciato_243" x="72.1" y="181.2" class="st6" width="21.1" height="0.9"/>
<path id="_Tracciato_composto_47" class="st8" d="M103.1,180.5v2.3h22.5v-2.3H103.1z M124.9,182.1h-21.1v-0.9h21.1L124.9,182.1z"/>
<rect id="_Tracciato_244" x="103.8" y="181.2" class="st6" width="21.1" height="0.9"/>
<path id="_Tracciato_composto_48" class="st8" d="M134.6,180.5v2.3h22.5v-2.3H134.6z M156.4,182.1h-21v-0.9h21V182.1z"/>
<rect id="_Tracciato_245" x="135.4" y="181.2" class="st6" width="21" height="0.9"/>
<path id="_Tracciato_composto_49" class="st6" d="M44.4,118.1v2.3h13.3v-2.3H44.4z M45.1,118.8H57v0.9H45.1L45.1,118.8z"/>
<rect id="_Tracciato_246" x="45.1" y="118.8" class="st9" width="11.9" height="0.9"/>
<path id="_Tracciato_composto_50" class="st6" d="M76.1,118.1v2.3h13.3v-2.3H76.1z M76.8,118.8h11.9v0.9H76.9L76.8,118.8z"/>
<rect id="_Tracciato_247" x="76.9" y="118.8" class="st9" width="11.9" height="0.9"/>
<path id="_Tracciato_composto_51" class="st6" d="M107.9,118.1v2.3h13.3v-2.3H107.9z M108.6,118.8h11.9v0.9h-11.9V118.8z"/>
<rect id="_Tracciato_248" x="108.6" y="118.8" class="st9" width="11.9" height="0.9"/>
<path id="_Tracciato_composto_52" class="st6" d="M139.6,118.1v2.3h13.3v-2.3H139.6z M140.3,118.8h11.9v0.9h-11.9L140.3,118.8z"/>
<rect id="_Tracciato_249" x="140.3" y="118.8" class="st9" width="11.9" height="0.9"/>
<path id="_Tracciato_composto_53" class="st8" d="M0.5,89.4v107.3h167.8V89.4H0.5z M167.6,196.1H1.2V90.2h166.4V196.1z"/>
<path id="_Tracciato_composto_54" class="st2" d="M1.2,90.2v105.9h9.6c0.3-4.7,4.4-8.2,9.1-7.9c4.2,0.3,7.6,3.7,7.9,7.9h14.7
	c0.3-4.7,4.4-8.2,9.1-7.9c4.2,0.3,7.6,3.7,7.9,7.9h14.5c0.3-4.7,4.4-8.2,9.1-7.9c4.2,0.3,7.6,3.7,7.9,7.9h14.7
	c0.3-4.7,4.4-8.2,9.1-7.9c4.2,0.3,7.6,3.7,7.9,7.9h14.5c0.3-4.7,4.4-8.2,9.1-7.9c4.2,0.3,7.6,3.7,7.9,7.9h12.8V90.2H1.2z
	 M140.7,97.8h10.3v10.3h-10.3L140.7,97.8z M139.6,118.1h13.3v2.3h-0.5l-1.1,2.4l-0.1-0.1v13.6h-10.4v-14l-0.9-1.9h-0.2V118.1z
	 M132.6,112.1h4v4h-4V112.1z M132.6,143.9h4v4h-4V143.9z M109.2,97.8h10.3v10.3h-10.3V97.8z M107.9,118.1h13.3v2.3h-0.5l-1.1,2.4
	l0,0v13.6h-10.4v-13.8l-1-2.2h-0.3L107.9,118.1z M100.8,112.1h4v4h-4V112.1z M100.8,143.9h4v4h-4V143.9z M77.5,97.8h10.3v10.3H77.5
	V97.8z M76.1,118.1h13.3v2.3H89l-1.1,2.4l0,0v13.6H77.5v-13.8l-1-2.1h-0.4L76.1,118.1z M68.9,112.1h4v4h-4V112.1z M68.9,143.9h4v4
	h-4V143.9z M60.6,112.1h4v4h-4V112.1z M60.6,143.9h4v4h-4V143.9z M45.9,97.8h10.3v10.3H45.9V97.8z M44.4,118.1h13.3v2.3h-0.4
	l-1.1,2.3v13.6H45.9v-13.6l-1.1-2.4h-0.4L44.4,118.1z M37.1,112.1h4v4h-4V112.1z M28.8,112.1h4v4h-4V112.1z M28.8,143.9h4v4h-4
	V143.9z M14.2,97.8h10.3v10.3H14.2V97.8z M12.6,118.1h13.3v2.3h-0.3l-1.1,2.3v13.6H14.2v-13.6l-1-2.3h-0.5V118.1z M33.1,160.3h-2.6
	l0.1,20.3l0,0v2.3l0,0v3.1H8.1v-25.7H5.6v-0.4c0.2-7.6,6.5-13.5,14.1-13.3c7.3,0.2,13.1,6.1,13.3,13.3L33.1,160.3z M37.1,143.9h4v4
	h-4V143.9z M64.8,160.3h-2.6l0.1,20.3l0,0v2.3l0,0v3.1H39.8v-25.7h-2.5v-0.4c0.2-7.6,6.5-13.5,14.1-13.3c7.3,0.2,13.1,6.1,13.3,13.3
	V160.3z M96.3,160.3h-2.6l0.1,25.7H71.4v-3.1l0,0v-2.3l0,0v-20.3h-2.5v-0.4c0.2-7.6,6.5-13.5,14.1-13.3c7.3,0.2,13.1,6.1,13.3,13.3
	L96.3,160.3z M96.5,148h-4v-4h4V148z M96.5,116.1h-4v-4h4V116.1z M128.1,160.4h-2.6l0.1,20.1l0,0v2.3l0,0v3.1h-22.5v-25.5h-2.5v-0.4
	c-0.2-7.6,5.8-13.9,13.3-14.1c7.6-0.2,13.9,5.8,14.1,13.3c0,0.2,0,0.5,0,0.7L128.1,160.4z M128.3,148h-4v-4h4V148z M128.3,116.1h-4
	v-4h4V116.1z M159.6,160.4h-2.6l0.1,25.5h-22.5v-3.1l0,0v-2.3l0,0v-20.1h-2.5v-0.4c0.2-7.6,6.5-13.5,14.1-13.3
	c7.3,0.2,13.1,6.1,13.3,13.3L159.6,160.4z M160.1,148h-4v-4h4V148z M160.1,116.1h-4v-4h4V116.1z"/>
<polygon id="_Tracciato_250" class="st1" points="151.5,120.6 150.7,122.3 141.5,122.3 140.7,120.6 "/>
<polygon id="_Tracciato_251" class="st1" points="119.8,120.6 119,122.3 109.8,122.3 109,120.6 "/>
<polygon id="_Tracciato_252" class="st1" points="88.1,120.6 87.3,122.3 78.1,122.3 77.4,120.6 "/>
<polygon id="_Tracciato_253" class="st8" points="56.4,120.6 55.6,122.3 46.4,122.3 45.7,120.6 "/>
<polygon id="_Tracciato_254" class="st1" points="24.7,120.6 24,122.3 14.7,122.3 14,120.6 "/>
<rect id="_Tracciato_255" x="135.4" y="182.9" class="st9" width="21" height="2.4"/>
<rect id="_Tracciato_256" x="103.8" y="182.9" class="st9" width="21.1" height="2.4"/>
<rect id="_Tracciato_257" x="72.1" y="182.9" class="st9" width="21" height="2.4"/>
<rect id="_Tracciato_258" x="40.5" y="182.9" class="st9" width="21" height="2.4"/>
<rect id="_Tracciato_259" x="8.8" y="182.9" class="st9" width="21" height="2.4"/>
<path id="_Tracciato_260" class="st1" d="M156.4,180.5h-21v-20.5c0-5.8,4.7-10.5,10.5-10.5s10.5,4.7,10.5,10.5V180.5z"/>
<path id="_Tracciato_261" class="st1" d="M124.9,180.5h-21v-20.5c0-5.8,4.7-10.5,10.5-10.5c5.8,0,10.5,4.7,10.5,10.5V180.5z"/>
<path id="_Tracciato_262" class="st1" d="M93.1,180.5h-21v-20.5c0-5.8,4.7-10.5,10.5-10.5s10.5,4.7,10.5,10.5V180.5z"/>
<path id="_Tracciato_263" class="st1" d="M61.6,180.5h-21v-20.5c-0.1-5.8,4.6-10.5,10.4-10.6s10.5,4.6,10.6,10.4l0,0V180.5z"/>
<path id="_Tracciato_264" class="st1" d="M29.9,180.5h-21v-20.5c0-5.8,4.7-10.5,10.5-10.5s10.5,4.7,10.5,10.5V180.5z"/>
<path id="_Tracciato_265" class="st8" d="M153.7,196.1h-15.6c0.2-4.3,3.9-7.6,8.2-7.4C150.3,188.8,153.5,192,153.7,196.1
	L153.7,196.1z"/>
<path id="_Tracciato_266" class="st8" d="M122.2,196.1h-15.6c0.2-4.3,3.9-7.6,8.2-7.4C118.8,188.8,122,192,122.2,196.1L122.2,196.1z
	"/>
<path id="_Tracciato_267" class="st8" d="M90.4,196.1H74.8c0.2-4.3,3.9-7.6,8.2-7.4C87,188.8,90.2,192,90.4,196.1z"/>
<path id="_Tracciato_268" class="st8" d="M58.9,196.1H43.2c0.2-4.3,3.9-7.6,8.2-7.4C55.5,188.8,58.7,192,58.9,196.1z"/>
<path id="_Tracciato_269" class="st8" d="M27.1,196.1H11.5c0.2-4.3,3.9-7.6,8.2-7.4C23.7,188.8,26.9,192,27.1,196.1z"/>
<path id="_Tracciato_composto_55" class="st8" d="M168.4,89.7l-0.1-0.3l-0.4-1.1l-0.7-2l-7.9-22.7l-0.1-0.2H11.4L0.6,89.4l-0.1,0.3
	l-0.2,0.4h168.1L168.4,89.7z M1.4,89.4l10.5-25.4h146.8l8.5,24.4l0.3,1L1.4,89.4z"/>
<polygon id="_Tracciato_270" class="st6" points="167.5,89.4 1.4,89.4 11.9,64.1 158.7,64.1 167.2,88.4 "/>
<rect id="_Tracciato_271" x="205.9" y="72.2" class="st8" width="0.7" height="3.3"/>
<polygon id="_Tracciato_272" class="st8" points="206.6,71.8 206.6,196.8 167.2,196.8 167.2,71.8 167.5,71.8 167.9,71.8 
	167.9,196.1 205.9,196.1 205.9,71.8 "/>
<path id="_Tracciato_composto_56" class="st8" d="M186.9,84.3c-7.3,0-13.3,6-13.3,13.3c0,7.3,6,13.3,13.3,13.3
	c7.3,0,13.3-6,13.3-13.3C200.1,90.2,194.2,84.3,186.9,84.3z M186.9,110.1c-7,0-12.6-5.6-12.6-12.6S179.9,85,186.9,85
	c7,0,12.6,5.6,12.6,12.6v0C199.5,104.5,193.8,110.1,186.9,110.1L186.9,110.1z"/>
<path id="_Tracciato_composto_57" class="st6" d="M186.9,85c-7,0-12.6,5.6-12.6,12.6s5.6,12.6,12.6,12.6c7,0,12.6-5.6,12.6-12.6
	C199.4,90.6,193.8,85,186.9,85z M186.9,109.6c-6.6,0-12-5.4-12-12s5.4-12,12-12s12,5.4,12,12S193.5,109.6,186.9,109.6L186.9,109.6z"
	/>
<path id="_Tracciato_composto_58" class="st8" d="M186.9,85.6c-6.6,0-12,5.4-12,12s5.4,12,12,12s12-5.4,12-12l0,0
	C198.9,90.9,193.5,85.6,186.9,85.6z M186.9,108.8c-6.2,0-11.3-5.1-11.3-11.3c0-6.2,5.1-11.3,11.3-11.3c6.2,0,11.3,5.1,11.3,11.3
	C198.1,103.8,193.1,108.8,186.9,108.8L186.9,108.8z"/>
<path id="_Tracciato_composto_59" class="st2" d="M186.9,86.3c-6.2,0-11.3,5.1-11.3,11.3c0,6.2,5.1,11.3,11.3,11.3
	c6.2,0,11.3-5.1,11.3-11.3C198.1,91.3,193.1,86.3,186.9,86.3z M187.8,97.5c-0.1,0.5-0.5,0.9-1,0.8c-0.4,0-0.8-0.4-0.8-0.8
	c0-0.1,0-0.2,0.1-0.3l-2.7-2.6l0.5-0.5l2.7,2.6c0.1-0.1,0.3-0.1,0.4-0.1c0.2,0,0.3,0,0.4,0.1l4.5-3.8l0.5,0.5l-4.6,3.8
	C187.8,97.3,187.8,97.4,187.8,97.5L187.8,97.5z"/>
<path id="_Tracciato_273" class="st6" d="M187.8,97.6c-0.1,0.5-0.5,0.9-1,0.8c-0.4,0-0.8-0.4-0.8-0.8c0-0.1,0-0.2,0.1-0.3
	c0.1-0.2,0.3-0.4,0.5-0.5c0.1-0.1,0.3-0.1,0.4-0.1c0.4,0,0.8,0.3,0.9,0.7C187.8,97.3,187.8,97.4,187.8,97.6z"/>
<polygon id="_Tracciato_274" class="st8" points="209.9,26.9 209.9,72.5 209.9,72.5 206.2,72.5 206.2,71.8 209.2,71.8 209.2,26.9 
	"/>
<path id="_Tracciato_composto_60" class="st6" d="M209.1,14.9c-2.3,0.2-4.1,2.5-4.1,5.2h-0.7c0-2.7-1.8-5-4.1-5.2v12.3h-2.9V15
	c-2.3,0.2-4.1,2.5-4.1,5.2h-0.7c0-2.7-1.8-5-4.1-5.2v12.3h-2.8V15c-2.3,0.2-4.1,2.5-4.1,5.2h-0.7c0-2.7-1.8-5-4.1-5.2v12.3h-2.9V15
	c-2.3,0.2-4.1,2.5-4.1,5.2h-0.7c0-2.7-1.8-5-4.1-5.2v56.8h2.6h4.1v-1.2c0-2.1,1.7-3.9,3.9-3.9c2.1,0,3.9,1.7,3.9,3.9V72h0.1v-1.4
	c0-2.1,1.7-3.9,3.9-3.9c2.1,0,3.9,1.7,3.9,3.9v1.3h0.1v-1.3c0-2.1,1.7-3.9,3.9-3.9c2.1,0,3.9,1.7,3.9,3.9v1.3h0.1v-1.3
	c0-2.1,1.7-3.9,3.9-3.9c2.1,0,3.9,1.7,3.9,3.9v1.2h6.6L209.1,14.9L209.1,14.9z M177.5,61.3V50.2c0-5.2,4.2-9.4,9.4-9.4
	s9.4,4.2,9.4,9.4v11.2L177.5,61.3z"/>
<polygon id="_Tracciato_275" class="st8" points="167.5,71.8 167.5,72.2 167.5,72.6 167.2,72.6 163.9,72.5 163.9,26.9 164.6,26.9 
	164.6,71.8 167.2,71.8 167.5,71.8 "/>
<path id="_Tracciato_composto_61" class="st9" d="M261.8,41.8l-55.2,37.2l0,0v117.1h43.5v-35.6h25.2v35.6h41.7V78.9L261.8,41.8z
	 M232.4,111.3h-1.7l0.1,38.8l0,0v3.6h-16v-42.3h-1.6v-0.4c0.2-5.3,4.6-9.5,9.9-9.3c5.1,0.2,9.2,4.2,9.3,9.3L232.4,111.3z
	 M261.8,110.9c-11.7,0-21.1-9.5-21.1-21.1s9.5-21.1,21.1-21.1c11.7,0,21.1,9.5,21.1,21.1c0,0,0,0,0,0
	C282.9,101.4,273.4,110.9,261.8,110.9L261.8,110.9z M310,110.9h-1.7v0.2l0.1,38.9l0,0v3.6h-16v-42.7h-1.6v-0.4
	c-0.2-5.3,4-9.8,9.3-9.9c5.3-0.2,9.8,4,9.9,9.3c0,0.2,0,0.4,0,0.6L310,110.9z"/>
<path id="_Tracciato_276" class="st8" d="M305.9,115.5V150h-11v-34.5c0-1.5,1.1-2.7,2.6-2.8v-0.4h0.1c0-1.5,1.2-2.8,2.8-2.8
	c1.5,0,2.8,1.2,2.8,2.8c0,0,0,0,0,0h0.1v0.4C304.8,112.8,305.9,114,305.9,115.5z"/>
<path id="_Tracciato_composto_62" class="st8" d="M261.8,68.6c-11.7,0-21.1,9.5-21.1,21.1s9.5,21.1,21.1,21.1
	c11.7,0,21.1-9.5,21.1-21.1c0,0,0,0,0,0C282.9,78.1,273.5,68.7,261.8,68.6z M261.8,110.2c-11.3,0-20.4-9.1-20.4-20.4
	s9.1-20.4,20.4-20.4s20.4,9.1,20.4,20.4C282.2,101,273.1,110.2,261.8,110.2L261.8,110.2z"/>
<path id="_Tracciato_composto_63" class="st1" d="M261.8,69.3c-11.3,0-20.4,9.1-20.4,20.4s9.1,20.4,20.4,20.4s20.4-9.1,20.4-20.4
	C282.2,78.5,273.1,69.4,261.8,69.3z M261.8,109.1c-10.7,0-19.4-8.7-19.4-19.4s8.7-19.3,19.4-19.3c10.7,0,19.4,8.7,19.4,19.4
	C281.1,100.4,272.5,109.1,261.8,109.1z"/>
<path id="_Tracciato_composto_64" class="st8" d="M261.8,70.4c-10.7,0-19.4,8.7-19.4,19.4s8.7,19.3,19.4,19.3s19.4-8.7,19.4-19.3
	C281.1,79.1,272.5,70.4,261.8,70.4z M261.8,108.4c-10.3,0-18.6-8.3-18.6-18.6s8.3-18.6,18.6-18.6s18.6,8.3,18.6,18.6c0,0,0,0,0,0
	C280.4,100.1,272.1,108.4,261.8,108.4L261.8,108.4z"/>
<path id="_Tracciato_composto_65" class="st6" d="M261.8,71.1c-10.3,0-18.6,8.3-18.6,18.6s8.3,18.6,18.6,18.6
	c10.3,0,18.6-8.3,18.6-18.6c0,0,0,0,0,0C280.4,79.5,272.1,71.1,261.8,71.1z M261.8,106.9c-2.8,0-5.5-0.7-7.9-1.9l0,0
	c-8.3-4.4-11.5-14.8-7.1-23.1c4.4-8.3,14.8-11.5,23.1-7.1c8.3,4.4,11.5,14.8,7.1,23.1C274.1,103.5,268.2,107,261.8,106.9
	L261.8,106.9z"/>
<path id="_Tracciato_composto_66" class="st8" d="M261.8,72.6c-9.5,0-17.1,7.7-17.1,17.1c0,6.4,3.5,12.2,9.2,15.2l0,0
	c2.4,1.3,5.1,1.9,7.9,1.9c9.5,0,17.1-7.7,17.1-17.1C278.9,80.3,271.2,72.6,261.8,72.6L261.8,72.6z M276.3,97.4c-1.6,3-4,5.5-7.1,7
	c-0.2,0.1-0.5,0.2-0.7,0.3c-4.5,2-9.6,1.9-14-0.2c-0.2-0.1-0.5-0.2-0.7-0.4c-2.8-1.5-5.1-3.9-6.6-6.7c-0.1-0.2-0.3-0.5-0.4-0.7
	c-2.1-4.4-2.1-9.6,0-14c0.1-0.2,0.2-0.5,0.4-0.7c1.5-2.8,3.8-5.1,6.6-6.7c0.2-0.1,0.5-0.3,0.7-0.4c4.4-2.2,9.5-2.3,14-0.2
	c0.2,0.1,0.5,0.2,0.7,0.3c3,1.5,5.5,4,7.1,7c0.1,0.2,0.3,0.5,0.4,0.7c2.1,4.4,2.1,9.6,0,14C276.6,97,276.4,97.3,276.3,97.4
	L276.3,97.4z"/>
<path id="_Tracciato_277" class="st2" d="M253.9,97.4v6.7c-2.8-1.5-5.1-3.9-6.6-6.7H253.9z"/>
<path id="_Tracciato_278" class="st2" d="M276.3,97.4c-1.6,3-4,5.5-7.1,7v-7H276.3z"/>
<path id="_Tracciato_279" class="st2" d="M278.2,89.8c0,2.4-0.5,4.8-1.6,7h-7.4v-14h7.4C277.7,84.9,278.2,87.3,278.2,89.8z"/>
<path id="_Tracciato_280" class="st2" d="M276.3,82.1h-7.1v-7C272.3,76.6,274.7,79.1,276.3,82.1z"/>
<path id="_Tracciato_281" class="st2" d="M253.9,75.4v6.7h-6.6C248.8,79.3,251.1,76.9,253.9,75.4z"/>
<path id="_Tracciato_282" class="st2" d="M253.9,82.8v14h-6.9c-2.1-4.4-2.1-9.6,0-14H253.9z"/>
<path id="_Tracciato_283" class="st2" d="M268.5,97.4v7.3c-4.5,2-9.6,1.9-14-0.2v-7H268.5z"/>
<rect id="_Tracciato_284" x="254.6" y="82.8" class="st2" width="14" height="14"/>
<path id="_Tracciato_285" class="st2" d="M268.5,74.8v7.3h-14V75C258.9,72.8,264.1,72.8,268.5,74.8z"/>
<rect id="_Tracciato_286" x="253.9" y="74.8" class="st8" width="0.7" height="30.2"/>
<rect id="_Tracciato_287" x="268.5" y="74.7" class="st8" width="0.7" height="30.2"/>
<rect id="_Tracciato_288" x="246.8" y="96.7" class="st8" width="30.1" height="0.7"/>
<rect id="_Tracciato_289" x="246.7" y="82.1" class="st8" width="30.2" height="0.7"/>
<path id="_Tracciato_composto_67" class="st1" d="M252.6,162.3v34.5h20v-34.5H252.6z M272,196h-18.6V163h18.6L272,196z"/>
<path id="_Tracciato_composto_68" class="st8" d="M250.1,160.5v36.3h25.3v-36.3H250.1z M250.8,196.1v-34.9h23.9v34.9H250.8z"/>
<rect id="_Tracciato_290" x="253.3" y="163" class="st8" width="18.6" height="31.8"/>
<polygon id="_Tracciato_291" class="st6" points="274.6,161.2 274.6,196.1 272.6,196.1 272.6,162.3 252.6,162.3 252.6,196.1 
	250.8,196.1 250.8,161.2 "/>
<path id="_Tracciato_composto_69" class="st1" d="M339.3,167.4v29.3h17.1v-29.3H339.3z M340,196.1v-27.9h15.6v27.9L340,196.1z"/>
<rect id="_Tracciato_292" x="340" y="168.1" class="st8" width="15.7" height="27.9"/>
<path id="_Tracciato_composto_70" class="st8" d="M337.2,165.9v30.9h21.5v-30.9H337.2z M358,196.1h-20.1v-29.4H358V196.1z"/>
<polygon id="_Tracciato_293" class="st9" points="358,166.6 358,196.1 356.4,196.1 356.4,167.4 339.3,167.4 339.3,196.1 
	337.9,196.1 337.9,166.6 "/>
<g id="_Gruppo_2">
	<path id="_Tracciato_294" class="st8" d="M552.4,128.9c0,0.3,0,0.6-0.2,0.8c-0.6,1.2-2.6,1.9-2.9,2h-0.1c0,0-3.9,0.3-5.5,2.4
		s-3,11.4-3,11.5c-0.1,1.1,0.1,2.2,0.5,3.2c0.1,0.3,0.4,0.5,0.7,0.7c0.7,0.2,1.4,0.1,2-0.2l2.3-2.6l0.1,0.1l0.2,0.3
		c0.1,0.2,0.2,0.3,0.3,0.5c0.7,1.5,0.7,3.2,0.1,4.8c-0.9,2.5-2.2,7.8-2.6,9.4l-0.1,0.4l-0.7-0.2c0,0,0-0.1,0.1-0.3
		c0.3-1.3,1.7-6.9,2.6-9.6c0.5-1.4,0.5-2.9-0.1-4.2l-1.9,2.1c-0.5,0.2-1,0.3-1.6,0.4c-0.2,0-0.5,0-0.7-0.1c-0.1,0-0.2,0-0.3-0.1
		c-0.5-0.2-0.9-0.5-1.1-1c-0.5-1.1-0.7-2.3-0.5-3.6c0.4-3,1.1-6,1.9-9c0.2-0.6,0.4-1.3,0.7-1.9c0.1-0.3,0.3-0.6,0.5-0.9
		c1.7-2.3,5.5-2.7,6-2.7c0.7-0.3,2.7-1.2,2.5-2L552.4,128.9z"/>
	<path id="_Tracciato_295" class="st8" d="M553,144.6v0.1l-0.1,0.1l-1.2,1.5c-0.6,0.4-1.2,0.8-1.9,1c-0.8,0.2-1.5,0.3-2.3,0.3h-0.8
		h-0.6l0.1-0.7l0,0c0.9,0.1,1.8,0.1,2.8-0.1c0.2,0,0.4-0.1,0.6-0.1c0.4-0.1,0.8-0.3,1.2-0.5c0.1-0.1,0.3-0.2,0.4-0.3l0.3-0.4
		l0.7-0.9c0,0,0-0.1,0-0.1s0-0.3,0-0.4s0-0.2-0.1-0.3c-0.2-0.1-0.3-0.2-0.4-0.3c-0.1-0.1-0.2-0.3-0.3-0.4c-1.4,0.4-4.2,0.9-4.7,0.1
		s-0.1-2.8,0.1-3.5c-0.1-0.1-0.1-0.1-0.2-0.2c-0.3,0.4-1.5,2.7-2.2,4.2c-0.3,0.5-0.8,0.9-1.3,1.2c-0.5,0.1-1,0.2-1.4,0.3l-0.1-0.7
		c0.4-0.1,0.8-0.2,1.2-0.3c0.4-0.2,0.8-0.5,1-0.9c0.3-0.5,0.7-1.4,1.1-2.3c0.3-0.7,0.7-1.3,0.9-1.7c0.1-0.2,0.2-0.3,0.3-0.5
		c0.1-0.1,0.3-0.2,0.5-0.2c0.4,0.1,0.7,0.3,0.9,0.6l0.1,0.1v0.1c-0.3,1-0.5,2.6-0.2,3.1c0.2,0.3,2.2,0.1,4.2-0.4l0.3-0.1l0.1,0.2
		c0.1,0.2,0.3,0.4,0.5,0.6c0.2,0,0.4,0.2,0.5,0.9C552.9,144.2,553,144.4,553,144.6z"/>
	<polygon id="_Tracciato_296" class="st8" points="546.2,136.6 545.9,139.4 545.6,141.3 544.9,141.2 544.9,141.1 545.5,136.6 	"/>
	<path id="_Tracciato_composto_71" class="st8" d="M550,140.1c-0.6,0-1.1,0.5-1.1,1.1s0.5,1.1,1.1,1.1c0.6,0,1.1-0.5,1.1-1.1
		c0,0,0,0,0,0C551.1,140.6,550.6,140.1,550,140.1z M550,141.7c-0.2,0-0.4-0.2-0.4-0.4c0-0.2,0.1-0.4,0.4-0.5s0.4,0.1,0.5,0.4
		c0,0,0,0.1,0,0.1C550.4,141.5,550.2,141.7,550,141.7C550,141.7,550,141.7,550,141.7L550,141.7z"/>
	<circle id="_Tracciato_297" class="st1" cx="550" cy="141.3" r="0.4"/>
	<path id="_Tracciato_298" class="st8" d="M552.6,143.8l-0.4,0.2c-1.3,0.4-2.6,0.7-3.9,0.7V144c1.2,0,2.3-0.2,3.4-0.6
		c0.2-0.1,0.3-0.1,0.5-0.2L552.6,143.8z"/>
	<path id="_Tracciato_299" class="st8" d="M555,141.3L555,141.3c-0.3,1.5-1.1,2.7-2.2,3.6h-0.1c-0.4,0.2-0.8,0.4-1.3,0.5
		c-0.8,0.2-1.7,0.3-2.6,0.3c-0.2,0-0.5,0-0.7,0l0.1-0.7c1.3,0.1,2.7-0.1,3.9-0.6l0.2-0.1c0.2-0.1,0.3-0.2,0.5-0.4
		c0.7-0.8,1.2-1.8,1.4-2.8L555,141.3L555,141.3z"/>
	<path id="_Tracciato_300" class="st8" d="M551.1,146.8c-0.4,0.1-0.7,0.1-1.1,0.1h-1h-0.9l0.1-0.7c0.9,0.1,1.7,0.1,2.6,0v0.1
		L551.1,146.8z"/>
	<path id="_Tracciato_301" class="st8" d="M554.3,124.7l-0.2,0.2c-0.3,0.3-0.6,0.5-1,0.5H553c-0.4,0-0.7-0.2-1-0.5l-0.2-0.2l0.2-0.2
		c0.3-0.3,0.6-0.5,1-0.5h0.1c0.4,0.1,0.7,0.2,0.9,0.5L554.3,124.7z"/>
	<path id="_Tracciato_302" class="st8" d="M558.1,124.7l-0.2,0.2c-0.3,0.3-0.6,0.5-1,0.5h-0.1c-0.4,0-0.7-0.2-1-0.5l-0.1-0.1
		l-0.1-0.1l0.1-0.1l0.1-0.1c0.3-0.3,0.6-0.5,1-0.5h0.1c0.4,0.1,0.7,0.2,0.9,0.5L558.1,124.7z"/>
	<path id="_Tracciato_303" class="st8" d="M558.3,123.8l-0.6,0.4c-0.4-0.5-1.1-0.6-1.6-0.2c-0.1,0.1-0.2,0.1-0.3,0.2
		c0,0.1,0,0.3,0,0.4c0,0.1,0,0.1,0,0.2s0,0.4,0,0.7v0.5l0.4,0.5l0,0l-0.5,0.4l-0.6-0.7v-0.8c0-0.5,0-1.1,0.1-1.6
		c0.1-0.3,0.3-0.6,0.7-0.6C556.7,122.9,557.8,123,558.3,123.8L558.3,123.8z"/>
	<path id="_Tracciato_304" class="st8" d="M556.4,128.1l-0.2,0.7c-0.7-0.2-1.5-0.2-2.2,0l-0.2-0.7
		C554.6,127.9,555.5,127.9,556.4,128.1z"/>
	<path id="_Tracciato_305" class="st8" d="M555,126.3l-0.6,0.7l-0.5-0.4l0.4-0.5v-0.5c0-0.3,0-0.5,0-0.7c0-0.1,0-0.2,0-0.2
		c0-0.5-0.1-0.6-0.3-0.7c-0.5-0.3-1.2-0.2-1.6,0.2l-0.6-0.4c0.6-0.7,1.6-0.9,2.5-0.5c0.8,0.3,0.8,0.7,0.8,2.2L555,126.3z"/>
	<path id="_Tracciato_306" class="st8" d="M555.1,119L555.1,119c-0.2,0-0.3,0-0.4,0.1c-0.2,0-0.3,0.1-0.5,0.1
		c-0.2,0.1-0.4,0.1-0.7,0.3c-0.4,0.2-0.8,0.5-1.2,0.8c-0.2,0.1-0.3,0.3-0.5,0.5c-0.2,0.2-0.3,0.4-0.4,0.6c-0.1,0.1-0.2,0.3-0.2,0.4
		l0,0c-0.1,0.2-0.2,0.5-0.3,0.7c-0.1,0.2-0.1,0.3-0.1,0.5l0,0c-0.1,0.5-0.1,1-0.2,1.4c0,0.1,0,0.3,0,0.5h0H550l0,0
		c0-0.2,0-0.3,0-0.5c0-0.7,0.1-1.5,0.3-2.1c0.7-2.1,2.5-3.7,4.7-3.9l0,0v0.4L555.1,119z"/>
	<path id="_Tracciato_307" class="st8" d="M555.1,116.6v0.7H555c-1.6,0-3.1,0.8-4,2.2c-0.5,0.8-0.7,1.8-0.7,2.7c0,0.5,0,1,0.1,1.5
		l0,0c0.1,0.4,0.1,0.8,0.3,1.1c0,0.2,0.1,0.3,0.1,0.3l-0.7,0.2v-0.1l0,0c-0.2-0.5-1.1-3.7,0.3-6.1
		C551.5,117.5,553.2,116.6,555.1,116.6L555.1,116.6z"/>
	<path id="_Tracciato_308" class="st8" d="M569.5,149.2c-0.2,0.5-0.6,0.8-1.1,1c-0.9,0.2-1.8,0.2-2.6-0.2l-0.1-0.1l-1.8-2
		c-0.6,1.3-0.6,2.9-0.1,4.2c0.9,2.7,2.3,8.3,2.6,9.6c0,0.2,0.1,0.3,0.1,0.3l-0.7,0.2c0,0,0-0.2-0.1-0.4c-0.4-1.5-1.7-6.8-2.6-9.4
		c-0.6-1.5-0.6-3.2,0.1-4.8c0.1-0.2,0.2-0.3,0.3-0.5l0.2-0.2l0.1-0.1l2.3,2.6c0.6,0.3,1.3,0.3,2,0.2c0.3-0.1,0.5-0.4,0.7-0.7
		c0.4-1,0.6-2.1,0.5-3.2c0-0.1-1.3-9.3-3-11.5s-5.5-2.4-5.5-2.4h-0.1c-0.3-0.1-2.3-0.8-2.9-2c-0.1-0.2-0.2-0.5-0.2-0.8l0.7,0.1l0,0
		c-0.1,0.9,1.8,1.8,2.5,2c0.5,0,4.2,0.4,6,2.7s3,11.5,3.1,11.8C570.2,146.8,570,148,569.5,149.2z"/>
	<path id="_Tracciato_309" class="st8" d="M568.5,144.5l-0.1,0.7c-0.5-0.1-0.9-0.2-1.3-0.3c-0.5-0.2-1-0.6-1.3-1.1
		c-0.8-1.6-2-3.8-2.3-4.3c-0.1,0.1-0.1,0.1-0.2,0.2c0.2,0.7,0.6,2.7,0.1,3.5s-3.3,0.3-4.7-0.1c-0.1,0.1-0.2,0.3-0.3,0.4
		c-0.1,0.1-0.2,0.3-0.4,0.3c0,0.1,0,0.1-0.1,0.3s0,0.3,0,0.4s0,0.1,0,0.1l0.7,0.9l0.3,0.4c0.1,0.1,0.3,0.2,0.4,0.3
		c0.4,0.2,0.8,0.4,1.2,0.6c0.2,0.1,0.4,0.1,0.5,0.1c0.9,0.1,1.9,0.1,2.8,0.1l0,0l0.1,0.7h-0.6h-0.8c-0.8,0-1.6-0.1-2.3-0.3
		c-0.7-0.2-1.3-0.6-1.9-1l-0.1-0.1l-1.1-1.4l-0.1-0.1v-0.1c0-0.3,0-0.5,0.1-0.6c0.1-0.7,0.3-0.9,0.5-0.9c0.2-0.2,0.3-0.4,0.5-0.6
		l0.1-0.2l0.3,0.1c2,0.5,4,0.7,4.2,0.4c0.3-0.5,0.1-2.1-0.2-3.1v-0.1l0.1-0.1c0.2-0.3,0.5-0.5,0.9-0.6c0.2,0,0.4,0.1,0.5,0.2
		c0.1,0.1,0.2,0.3,0.3,0.4c0.3,0.4,0.6,1,0.9,1.7c0.4,0.8,0.9,1.8,1.2,2.3c0.2,0.3,0.6,0.6,0.9,0.8
		C567.7,144.3,568.1,144.4,568.5,144.5z"/>
	<polygon id="_Tracciato_310" class="st8" points="565.1,141.2 564.4,141.3 564.2,139.4 563.9,136.7 564.5,136.6 565.1,141.1 	"/>
	<path id="_Tracciato_composto_72" class="st8" d="M560.1,140.1c-0.6,0-1.1,0.5-1.1,1.1c0,0.6,0.5,1.1,1.1,1.1
		c0.6,0,1.1-0.5,1.1-1.1C561.2,140.6,560.7,140.1,560.1,140.1C560.1,140.1,560.1,140.1,560.1,140.1z M560.1,141.7
		c-0.2,0-0.4-0.2-0.4-0.4c0-0.2,0.2-0.4,0.4-0.4c0.2,0,0.4,0.2,0.4,0.4v0C560.5,141.5,560.3,141.7,560.1,141.7
		C560.1,141.7,560.1,141.7,560.1,141.7L560.1,141.7z"/>
	<circle id="_Tracciato_311" class="st1" cx="560.1" cy="141.3" r="0.4"/>
	<path id="_Tracciato_312" class="st8" d="M561.8,144v0.7c-1.3,0-2.6-0.2-3.9-0.7l-0.4-0.2l0.4-0.6c0.2,0.1,0.3,0.2,0.5,0.2
		C559.4,143.8,560.6,144,561.8,144z"/>
	<path id="_Tracciato_313" class="st8" d="M561.8,145.8c0,0-0.3,0-0.7,0c-0.9,0-1.7-0.1-2.6-0.3c-0.4-0.1-0.9-0.3-1.3-0.5h-0.1
		c-1.1-0.9-1.9-2.1-2.2-3.5v-0.1l0,0l0.7-0.1c0.2,1.1,0.7,2,1.5,2.8c0.1,0.1,0.3,0.3,0.5,0.4l0.2,0.1c1.2,0.5,2.6,0.7,3.9,0.6
		L561.8,145.8z"/>
	<path id="_Tracciato_314" class="st8" d="M561.9,146.8l-0.9,0.1h-0.9c-0.4,0-0.7,0-1.1-0.1l0.3-0.6v-0.1c0.9,0.1,1.7,0.1,2.6,0
		L561.9,146.8z"/>
	<path id="_Tracciato_315" class="st8" d="M558.2,124.7L558,125c-0.3,0.3-0.6,0.5-1,0.5l0,0c-0.4,0-0.7-0.2-1-0.5l-0.2-0.2l0.2-0.2
		c0.3-0.3,0.6-0.5,1-0.5l0,0c0.4,0,0.7,0.2,1,0.5L558.2,124.7z"/>
	<path id="_Tracciato_316" class="st8" d="M554.4,124.7l-0.1,0.1l-0.1,0.1c-0.3,0.3-0.6,0.5-1,0.5l0,0c-0.4,0-0.7-0.2-1-0.5
		l-0.2-0.2l0.2-0.2c0.3-0.3,0.6-0.5,1-0.5l0,0c0.4,0,0.7,0.2,1,0.5l0.1,0.1L554.4,124.7z"/>
	<path id="_Tracciato_317" class="st8" d="M558.3,123.8L558.3,123.8l-0.6,0.4c-0.4-0.5-1.1-0.6-1.6-0.2c-0.2,0.1-0.2,0.1-0.3,0.3
		c0,0.1,0,0.3,0,0.4c0,0.1,0,0.1,0,0.2s0,0.4,0,0.7v0.5l0.4,0.5l0,0l-0.5,0.4l-0.6-0.7v-0.7c0-0.5,0-1.1,0.1-1.6
		c0.1-0.3,0.3-0.6,0.7-0.7C556.7,122.9,557.7,123.1,558.3,123.8z"/>
	<path id="_Tracciato_318" class="st8" d="M560.1,124.4c0,0.1,0,0.3,0,0.5v0.1h-0.7h-0.1c0-0.2,0-0.3,0-0.5c0-0.5-0.1-1-0.2-1.5l0,0
		c0-0.2-0.1-0.4-0.1-0.6c-0.1-0.2-0.2-0.5-0.3-0.7c-0.1-0.2-0.1-0.3-0.2-0.4c-0.1-0.2-0.3-0.4-0.4-0.6c-0.1-0.2-0.3-0.3-0.4-0.4
		c-0.2-0.2-0.4-0.3-0.6-0.4c-0.2-0.1-0.3-0.2-0.5-0.3c-0.2-0.1-0.4-0.2-0.7-0.3c-0.2-0.1-0.4-0.1-0.6-0.1L555,119H555v-0.2v-0.5l0,0
		c2.2,0.2,4.1,1.8,4.7,3.9C559.9,122.9,560.1,123.6,560.1,124.4z"/>
	<path id="_Tracciato_319" class="st6" d="M559.8,122.3c-0.7-2.1-2.5-3.7-4.7-3.9l0,0c-2.2,0.2-4.1,1.8-4.7,3.9c0-1,0.2-1.9,0.7-2.7
		c0.9-1.3,2.4-2.2,4-2.2h0.1c1.6,0,3.1,0.8,4,2.2C559.5,120.3,559.8,121.3,559.8,122.3z"/>
	<path id="_Tracciato_320" class="st8" d="M560,125.3L560,125.3L560,125.3l-0.7-0.2c0,0,0-0.1,0.1-0.3c0.1-0.4,0.2-0.8,0.3-1.2l0,0
		c0.1-0.5,0.1-1,0.1-1.5c0-1-0.2-1.9-0.7-2.7c-0.9-1.3-2.4-2.2-4-2.2h-0.1v-0.7h0.1c1.9,0,3.6,1,4.6,2.5
		C561.1,121.5,560.2,124.7,560,125.3z"/>
	<path id="_Tracciato_composto_73" class="st6" d="M544.3,161.8h21.5c-0.4-1.5-1.7-6.8-2.6-9.4c-0.6-1.5-0.6-3.2,0.1-4.8h-0.8
		c-0.8,0-1.6-0.1-2.3-0.3c-0.7-0.2-1.3-0.6-1.9-1l-0.1-0.1l-1.1-1.4c-1.1-0.9-1.9-2.1-2.2-3.5c-0.3,1.4-1.1,2.6-2.2,3.5l-1.2,1.5
		c-0.6,0.4-1.2,0.8-1.9,1c-0.8,0.2-1.5,0.3-2.3,0.3h-0.8c0.7,1.5,0.7,3.2,0.1,4.8C546,154.9,544.6,160.3,544.3,161.8z M554.7,153.6
		h0.7v0.7h-0.7V153.6z"/>
	<rect id="_Tracciato_321" x="554.7" y="153.6" class="st8" width="0.7" height="0.7"/>
	<polygon id="_Tracciato_322" class="st8" points="551.7,122.2 551.2,122.7 551,122.4 550.6,122.1 551.1,121.6 551.2,121.7 
		551.2,121.7 551.6,122 	"/>
	<polygon id="_Tracciato_323" class="st8" points="552.6,121.4 552,121.9 551.9,121.7 551.5,121.3 551.2,121 551.7,120.5 
		551.9,120.7 552.5,121.4 	"/>
	<polygon id="_Tracciato_324" class="st8" points="553.5,121.1 552.8,121.4 552.8,121.2 552.3,120.2 552.2,119.9 552.8,119.6 
		552.9,119.8 553.4,120.9 	"/>
	<polygon id="_Tracciato_325" class="st8" points="554.6,120.9 553.9,121.1 553.9,120.8 553.5,119.4 553.4,119.1 554.1,118.9 
		554.2,119.2 554.6,120.7 	"/>
	<path id="_Tracciato_composto_74" class="st8" d="M560.1,124.8L560.1,124.8c-0.1-0.4-0.2-0.8-0.4-1.1l0,0c-0.1-0.3-0.3-0.5-0.4-0.8
		l0,0c-0.1-0.1-0.2-0.3-0.3-0.4c-0.1-0.2-0.3-0.4-0.5-0.5c-0.1-0.1-0.2-0.2-0.3-0.2c-0.2-0.1-0.4-0.3-0.6-0.4l-0.4-0.2
		c-0.2-0.1-0.4-0.2-0.7-0.3l-0.3-0.1c-0.2-0.1-0.5-0.1-0.7-0.1h-0.1v-1.6v-0.3h-0.8v0.3v1.6h-0.2c-0.2,0-0.5,0.1-0.7,0.1
		c-0.2,0-0.3,0.1-0.5,0.1c-0.2,0.1-0.4,0.2-0.7,0.3c-0.1,0-0.2,0.1-0.3,0.1c-0.2,0.1-0.4,0.2-0.6,0.4c-0.1,0.1-0.2,0.2-0.3,0.3
		c-0.2,0.2-0.3,0.3-0.5,0.5c-0.1,0.1-0.2,0.2-0.3,0.3l0,0c-0.2,0.2-0.3,0.5-0.4,0.8l0,0c-0.2,0.4-0.3,0.7-0.4,1.1v0.1
		c0,0.1,0,0.2,0,0.4l0,0c0,0.5,0.2,1.1,0.6,1.4c0.1,0.2,0.2,0.4,0.2,0.6c0.2,0.6,0.5,1.2,0.8,1.7c0.2,0.3,0.3,0.5,0.5,0.7
		c0.6,0.8,1.5,1.2,2.5,1.3h0.8c0.9,0,1.8-0.5,2.4-1.2c0.2-0.2,0.4-0.5,0.5-0.7c0.3-0.6,0.6-1.1,0.8-1.7c0.1-0.2,0.1-0.4,0.2-0.6
		c0.4-0.4,0.6-0.9,0.6-1.4l0,0C560.1,125.1,560.1,125,560.1,124.8L560.1,124.8L560.1,124.8L560.1,124.8z M559.1,126.1
		c-0.2,0.1-0.3,0.4-0.5,0.9c-0.5,1.2-1.2,3.1-3.1,3.2h-0.8c-1.9-0.1-2.7-2-3.1-3.2c-0.2-0.5-0.3-0.8-0.5-0.9c-0.2-0.3-0.3-0.6-0.3-1
		v-0.2c0.5-2,2.3-3.5,4.3-3.5c2.1,0,3.9,1.5,4.4,3.5v0.2C559.3,125.5,559.2,125.8,559.1,126.1z"/>
	<path id="_Tracciato_326" class="st6" d="M551.1,122.6c-0.1,0.1-0.2,0.2-0.3,0.3c0-0.2,0.1-0.3,0.1-0.5L551.1,122.6z"/>
	<path id="_Tracciato_327" class="st6" d="M554.7,120.7h-0.2l-0.4-1.5c0.2-0.1,0.3-0.1,0.5-0.1L554.7,120.7z"/>
	<path id="_Tracciato_328" class="st6" d="M553.9,120.8c-0.2,0-0.3,0.1-0.5,0.1l-0.5-1.2c0.2-0.1,0.4-0.2,0.6-0.3L553.9,120.8z"/>
	<path id="_Tracciato_329" class="st6" d="M552.8,121.2c-0.1,0-0.2,0.1-0.3,0.1l-0.6-0.7c0.1-0.2,0.3-0.3,0.5-0.5L552.8,121.2z"/>
	<path id="_Tracciato_330" class="st6" d="M551.9,121.7c-0.1,0.1-0.2,0.2-0.3,0.3l-0.3-0.3l0,0c0.1-0.1,0.1-0.3,0.2-0.4L551.9,121.7
		z"/>
	<path id="_Tracciato_composto_75" class="st6" d="M555,121.4c-2.1,0.1-3.9,1.5-4.3,3.5v0.2c0,0.4,0.1,0.7,0.3,1
		c0.2,0.1,0.3,0.4,0.5,0.9c0.5,1.2,1.2,3.1,3.1,3.2h0.8c1.9-0.1,2.7-2,3.1-3.2c0.2-0.5,0.3-0.8,0.5-0.9c0.2-0.3,0.3-0.7,0.3-1v-0.2
		C558.9,122.9,557.1,121.4,555,121.4z M553.1,125.4L553.1,125.4c-0.4,0-0.8-0.2-1.1-0.5l-0.2-0.2l0.2-0.2c0.3-0.3,0.6-0.5,1-0.5h0.1
		c0.4,0,0.7,0.2,1,0.5l0.1,0.1c0-0.5-0.1-0.6-0.3-0.7c-0.5-0.3-1.2-0.2-1.6,0.2l-0.6-0.4c0.6-0.7,1.6-0.9,2.5-0.5
		c0.8,0.3,0.8,0.7,0.8,2.2v0.7l-0.6,0.7l-0.5-0.4l0.4-0.5v-0.5c0-0.3,0-0.5,0-0.7l-0.1,0.1C553.9,125.2,553.5,125.4,553.1,125.4
		L553.1,125.4z M556.2,128.8c-0.7-0.2-1.5-0.2-2.2,0l-0.2-0.7c0.9-0.2,1.8-0.2,2.6,0L556.2,128.8z M558.3,123.8l-0.6,0.4
		c-0.4-0.5-1.1-0.6-1.6-0.2c-0.1,0.1-0.2,0.1-0.3,0.2c0,0.1,0,0.3,0,0.4l0.1-0.1c0.3-0.3,0.6-0.5,1-0.5h0.1c0.4,0,0.7,0.2,1,0.5
		l0.2,0.2l-0.2,0.2c-0.3,0.3-0.6,0.5-1,0.5H557c-0.4,0-0.7-0.2-1-0.5l-0.1-0.1c0,0.2,0,0.4,0,0.7v0.5l0.4,0.5l0,0l-0.5,0.4l-0.6-0.7
		v-0.8c0-0.5,0-1.1,0.1-1.6c0.1-0.3,0.3-0.6,0.7-0.7C556.7,122.9,557.8,123.1,558.3,123.8L558.3,123.8L558.3,123.8z"/>
	<path id="_Tracciato_composto_76" class="st6" d="M569.3,145.7c0-0.1-1.3-9.3-3-11.5s-5.5-2.4-5.5-2.4h-0.1c-0.3-0.1-2.3-0.8-2.9-2
		c-0.6,0.7-1.5,1.2-2.4,1.2h-0.8c-0.9,0-1.8-0.5-2.4-1.2c-0.6,1.2-2.6,1.9-2.9,2h-0.1c0,0-3.9,0.3-5.5,2.4s-3,11.4-3,11.5
		c-0.1,1.1,0.1,2.2,0.5,3.2c0.1,0.3,0.4,0.5,0.7,0.7c0.7,0.2,1.4,0.1,2-0.2l2.3-2.6l0.1,0.1c0.9,0.1,1.8,0.1,2.8-0.1h-0.9l0.1-0.7
		c0.9,0.1,1.7,0.1,2.6,0v0.1c0.1-0.1,0.3-0.2,0.4-0.3l0.3-0.4c-0.8,0.2-1.7,0.3-2.6,0.3c-0.2,0-0.5,0-0.7,0l0.1-0.7
		c1.3,0.1,2.7-0.1,3.9-0.6c0-0.1,0-0.3,0-0.4c-1.3,0.4-2.6,0.7-3.9,0.7v-0.7c1.2,0,2.3-0.2,3.4-0.6c-0.1-0.1-0.2-0.3-0.3-0.4
		c-1.4,0.4-4.2,0.9-4.7,0.1s-0.1-2.8,0.1-3.5c-0.1-0.1-0.1-0.1-0.2-0.2c-0.3,0.4-1.5,2.7-2.2,4.2c-0.3,0.5-0.8,0.9-1.3,1.2
		c-0.5,0.1-1,0.2-1.4,0.3l-0.1-0.7c0.4-0.1,0.8-0.2,1.2-0.3c0.4-0.2,0.8-0.5,1-0.9c0.3-0.5,0.7-1.4,1.1-2.3l0.6-4.6l0.7,0.1
		l-0.4,2.8c0.1-0.2,0.2-0.3,0.3-0.5c0.1-0.1,0.3-0.2,0.5-0.2c0.4,0.1,0.7,0.3,0.9,0.6l0.1,0.1v0.1c-0.3,1-0.5,2.6-0.2,3.1
		c0.2,0.3,2.2,0.1,4.2-0.4l0.3-0.1l0.1,0.2c0.1,0.2,0.3,0.4,0.5,0.6c0.2,0,0.4,0.2,0.5,0.9c0.7-0.8,1.2-1.8,1.4-2.8l0.7,0.1l0.7-0.1
		c0.2,1.1,0.7,2,1.5,2.8c0.1-0.7,0.3-0.9,0.5-0.9c0.2-0.2,0.3-0.4,0.5-0.6l0.1-0.2l0.3,0.1c2,0.5,4,0.7,4.2,0.4
		c0.3-0.5,0.1-2.1-0.2-3.1v-0.1l0.1-0.1c0.2-0.3,0.5-0.5,0.9-0.6c0.2,0,0.4,0.1,0.5,0.2c0.1,0.1,0.2,0.3,0.3,0.4l-0.3-2.7l0.7-0.1
		l0.6,4.5c0.4,0.8,0.9,1.8,1.2,2.3c0.2,0.3,0.6,0.6,0.9,0.8c0.4,0.1,0.8,0.2,1.2,0.3l-0.1,0.7c-0.5-0.1-0.9-0.2-1.3-0.3
		c-0.5-0.2-1-0.6-1.3-1.1c-0.8-1.6-2-3.8-2.3-4.3c-0.1,0.1-0.1,0.1-0.2,0.2c0.2,0.7,0.6,2.7,0.1,3.5s-3.3,0.3-4.7-0.1
		c-0.1,0.1-0.2,0.3-0.3,0.4c1.1,0.4,2.3,0.5,3.4,0.6v0.7c-1.3,0-2.6-0.2-3.9-0.7c0,0.1,0,0.3,0,0.4c1.2,0.5,2.6,0.7,3.9,0.6l0.1,0.7
		c0,0-0.3,0-0.7,0c-0.9,0-1.7-0.1-2.6-0.3l0.3,0.4c0.1,0.1,0.3,0.2,0.4,0.3v-0.1c0.9,0.1,1.7,0.1,2.6,0v0.7l-0.9,0.1
		c0.9,0.1,1.9,0.1,2.8,0.1l0.1-0.1l2.3,2.6c0.6,0.3,1.3,0.3,2,0.2c0.3-0.1,0.5-0.4,0.7-0.7C569.3,147.9,569.4,146.8,569.3,145.7z
		 M550,142.4c-0.6,0-1.1-0.5-1.1-1.1c0-0.6,0.5-1.1,1.1-1.1c0.6,0,1.1,0.5,1.1,1.1C551.1,141.9,550.6,142.4,550,142.4L550,142.4
		L550,142.4z M560.1,142.4c-0.6,0-1.1-0.5-1.1-1.1s0.5-1.1,1.1-1.1c0.6,0,1.1,0.5,1.1,1.1C561.2,141.9,560.7,142.4,560.1,142.4
		C560.1,142.4,560.1,142.4,560.1,142.4L560.1,142.4z"/>
	<path id="_Tracciato_331" class="st6" d="M556,119.3l-0.5,1.5h-0.1v-1.6C555.6,119.1,555.8,119.2,556,119.3z"/>
	<polygon id="_Tracciato_332" class="st8" points="556.7,119.1 556.6,119.5 556.2,120.8 556.1,121.1 555.4,120.9 555.5,120.7 
		556,119.2 556,118.9 	"/>
	<path id="_Tracciato_333" class="st6" d="M557.1,119.7l-0.6,1.1l-0.3-0.1l0.4-1.3C556.8,119.5,557,119.6,557.1,119.7z"/>
	<polygon id="_Tracciato_334" class="st8" points="557.9,119.8 557.7,120.2 557.2,121.1 557,121.4 556.4,121.1 556.5,120.9 
		557.1,119.7 557.3,119.5 	"/>
	<path id="_Tracciato_335" class="st6" d="M558.1,120.6l-0.5,0.8l-0.4-0.2l0.5-1C557.8,120.3,558,120.4,558.1,120.6z"/>
	<polygon id="_Tracciato_336" class="st8" points="558.8,120.9 558.6,121.2 558.2,121.8 558.1,121.9 557.5,121.6 557.6,121.4 
		558.1,120.6 558.2,120.5 	"/>
	<path id="_Tracciato_337" class="st6" d="M558.8,121.6l-0.3,0.4c-0.1-0.1-0.2-0.2-0.3-0.2l0.4-0.6
		C558.6,121.3,558.7,121.5,558.8,121.6z"/>
	<path id="_Tracciato_338" class="st6" d="M559.2,122.9c-0.1-0.1-0.2-0.3-0.3-0.4l0.2-0.2C559.1,122.5,559.2,122.7,559.2,122.9z"/>
	<polygon id="_Tracciato_339" class="st8" points="559.4,122 559.1,122.3 558.9,122.5 558.7,122.7 558.2,122.3 558.5,122 
		558.8,121.6 558.9,121.5 	"/>
	<path id="_Tracciato_composto_77" class="st8" d="M533.1,161.8v4.3h42.5v-4.3H533.1z M574.9,165.4h-41v-2.9h41V165.4z"/>
	<rect id="_Tracciato_340" x="533.9" y="162.5" class="st2" width="41" height="2.9"/>
	<path id="_Tracciato_composto_78" class="st8" d="M534.7,165.4v1.7h40v-1.7H534.7z M574,166.4h-38.6v-0.3H574L574,166.4z"/>
	<rect id="_Tracciato_341" x="535.4" y="166.1" class="st2" width="38.6" height="0.3"/>
	<path id="_Tracciato_composto_79" class="st8" d="M533.1,168.1v1.7h42.5v-1.7H533.1z M574.9,169.1h-41v-0.3h41V169.1z"/>
	<rect id="_Tracciato_342" x="533.9" y="168.8" class="st2" width="41" height="0.3"/>
	<path id="_Tracciato_343" class="st9" d="M573.3,167.6c0,0.2,0.1,0.3,0.1,0.5h-37.6c0.1-0.2,0.1-0.4,0.1-0.6c0-0.2,0-0.3-0.1-0.5
		h37.6C573.3,167.3,573.3,167.4,573.3,167.6z"/>
	<path id="_Tracciato_344" class="st8" d="M575.8,168.8H534l0.9-0.6l0.1-0.1c0.2-0.1,0.3-0.3,0.3-0.5c0-0.2-0.2-0.4-0.3-0.5
		l-0.1-0.1l0.4-0.6c0.3,0.2,0.5,0.4,0.6,0.6c0.1,0.1,0.1,0.3,0.1,0.5c0,0.2,0,0.4-0.1,0.6h37.6c-0.1-0.2-0.1-0.3-0.1-0.5
		c0-0.2,0-0.4,0.1-0.5c0.2-0.3,0.4-0.5,0.7-0.6l0.4,0.6h-0.1c-0.3,0.2-0.4,0.4-0.4,0.5s0.3,0.4,0.4,0.5h0.1l1.1,0.6L575.8,168.8z"/>
	<path id="_Tracciato_345" class="st8" d="M574.5,176.4c-2,2.7-5.8,3.3-7.2,3.5h-0.5h-0.2h-0.5h-0.7h-0.6h-0.7h-0.6H547h-0.6h-0.7
		h-0.6h-0.3h-0.3h-0.6h-0.3h-0.3h-0.4h-0.4h-0.3c-3.2-0.3-5.6-1.4-7.1-3.3c-1.5-2.1-2.1-4.6-1.7-7.1l0,0l0.7,0.1v0.3
		c-0.3,2.2,0.3,4.5,1.5,6.3c1.4,1.8,3.8,2.9,6.9,3.1c10.4,0.7,24.4,0,24.5,0s4.9-0.2,7.2-3.3c1.2-1.8,1.6-4.1,1-6.2
		c0-0.1,0-0.2-0.1-0.3l0.7-0.2l0,0C576.3,172.3,575.9,174.6,574.5,176.4z"/>
	<path id="_Tracciato_composto_80" class="st8" d="M541.9,179.3v17h25.5v-17H541.9z M566.6,195.6h-24v-15.6h24V195.6z"/>
	<path id="_Tracciato_346" class="st2" d="M566.6,179.9v15.6h-0.5V180L566.6,179.9z"/>
	<path id="_Tracciato_347" class="st2" d="M565.4,180v15.6h-0.6V180L565.4,180z"/>
	<path id="_Tracciato_348" class="st2" d="M564.1,180.1v15.6h-0.6v-15.5L564.1,180.1z"/>
	<path id="_Tracciato_349" class="st2" d="M562.8,180.1v15.5h-0.6v-15.5L562.8,180.1z"/>
	<path id="_Tracciato_350" class="st2" d="M561.5,180.1v15.5h-0.6v-15.4L561.5,180.1z"/>
	<path id="_Tracciato_351" class="st2" d="M560.2,180.2v15.4h-0.6v-15.4L560.2,180.2z"/>
	<path id="_Tracciato_352" class="st2" d="M558.9,180.2v15.4h-0.6v-15.3L558.9,180.2z"/>
	<rect id="_Tracciato_353" x="556.9" y="180.2" class="st2" width="0.6" height="15.4"/>
	<path id="_Tracciato_354" class="st2" d="M556.2,180.3v15.4h-0.6v-15.4H556.2z"/>
	<path id="_Tracciato_355" class="st2" d="M554.9,180.3v15.4h-0.6v-15.4H554.9z"/>
	<rect id="_Tracciato_356" x="553" y="180.3" class="st2" width="0.6" height="15.3"/>
	<rect id="_Tracciato_357" x="550.3" y="180.2" class="st2" width="0.6" height="15.4"/>
	<path id="_Tracciato_358" class="st2" d="M549.6,180.3v15.4h-0.6v-15.4H549.6z"/>
	<path id="_Tracciato_359" class="st2" d="M548.3,180.2v15.4h-0.6v-15.4L548.3,180.2z"/>
	<path id="_Tracciato_360" class="st2" d="M547,180.2v15.4h-0.6v-15.4L547,180.2z"/>
	<path id="_Tracciato_361" class="st2" d="M545.7,180.1v15.5h-0.6v-15.5L545.7,180.1z"/>
	<path id="_Tracciato_362" class="st2" d="M544.4,180.1v15.5h-0.6V180L544.4,180.1z"/>
	<path id="_Tracciato_363" class="st2" d="M543.1,180v15.6h-0.4V180L543.1,180z"/>
	<path id="_Tracciato_364" class="st2" d="M552.3,180.3v15.4h-0.6v-15.4H552.3z"/>
	<path id="_Tracciato_365" class="st9" d="M574,176c-2.3,3-7.1,3.3-7.2,3.3h-24.5c-3.2-0.2-5.5-1.3-6.9-3.1
		c-1.3-1.8-1.8-4.1-1.5-6.3H575C575.6,171.9,575.2,174.2,574,176z"/>
	<g id="_Gruppo_3">
		<rect id="_Tracciato_366" x="543.1" y="179.9" class="st1" width="0.7" height="15.7"/>
	</g>
	<g id="_Gruppo_4">
		<rect id="_Tracciato_367" x="544.4" y="179.9" class="st1" width="0.7" height="15.7"/>
	</g>
	<g id="_Gruppo_5">
		<rect id="_Tracciato_368" x="545.7" y="179.9" class="st1" width="0.7" height="15.7"/>
	</g>
	<g id="_Gruppo_6">
		<rect id="_Tracciato_369" x="547" y="179.9" class="st1" width="0.7" height="15.7"/>
	</g>
	<g id="_Gruppo_7">
		<rect id="_Tracciato_370" x="548.3" y="179.9" class="st1" width="0.7" height="15.7"/>
	</g>
	<g id="_Gruppo_8">
		<rect id="_Tracciato_371" x="549.6" y="179.9" class="st1" width="0.7" height="15.7"/>
	</g>
	<g id="_Gruppo_9">
		<rect id="_Tracciato_372" x="551" y="179.9" class="st1" width="0.7" height="15.7"/>
	</g>
	<g id="_Gruppo_10">
		<rect id="_Tracciato_373" x="552.3" y="179.9" class="st1" width="0.7" height="15.7"/>
	</g>
	<g id="_Gruppo_11">
		<rect id="_Tracciato_374" x="553.6" y="179.9" class="st1" width="0.7" height="15.7"/>
	</g>
	<g id="_Gruppo_12">
		<rect id="_Tracciato_375" x="554.9" y="179.9" class="st1" width="0.7" height="15.7"/>
	</g>
	<g id="_Gruppo_13">
		<rect id="_Tracciato_376" x="556.2" y="179.9" class="st1" width="0.7" height="15.7"/>
	</g>
	<g id="_Gruppo_14">
		<rect id="_Tracciato_377" x="557.5" y="179.9" class="st1" width="0.7" height="15.7"/>
	</g>
	<g id="_Gruppo_15">
		<rect id="_Tracciato_378" x="558.9" y="179.9" class="st1" width="0.7" height="15.7"/>
	</g>
	<g id="_Gruppo_16">
		<rect id="_Tracciato_379" x="560.2" y="179.9" class="st1" width="0.7" height="15.7"/>
	</g>
	<g id="_Gruppo_17">
		<rect id="_Tracciato_380" x="561.5" y="179.9" class="st1" width="0.7" height="15.7"/>
	</g>
	<g id="_Gruppo_18">
		<rect id="_Tracciato_381" x="562.8" y="179.9" class="st1" width="0.7" height="15.7"/>
	</g>
	<g id="_Gruppo_19">
		<rect id="_Tracciato_382" x="564.1" y="179.9" class="st1" width="0.7" height="15.7"/>
	</g>
	<g id="_Gruppo_20">
		<rect id="_Tracciato_383" x="565.4" y="179.9" class="st1" width="0.7" height="15.7"/>
	</g>
	<path id="_Tracciato_composto_81" class="st1" d="M538.7,170.1c-1.4,0-2.4,1.8-2.4,4s1.1,4,2.4,4s2.4-1.8,2.4-4
		S540.1,170.1,538.7,170.1z M538.7,177.4c-0.9,0-1.7-1.5-1.7-3.3s0.8-3.3,1.7-3.3s1.7,1.5,1.7,3.3S539.6,177.4,538.7,177.4
		L538.7,177.4z"/>
	<path id="_Tracciato_384" class="st6" d="M540.4,174.1c0,1.8-0.8,3.3-1.7,3.3s-1.7-1.5-1.7-3.3s0.8-3.3,1.7-3.3
		S540.4,172.3,540.4,174.1z"/>
	<path id="_Tracciato_composto_82" class="st1" d="M543.9,170.1c-1.3,0-2.4,1.8-2.4,4s1.1,4,2.4,4s2.4-1.8,2.4-4
		S545.3,170.1,543.9,170.1z M543.9,177.4c-0.9,0-1.7-1.5-1.7-3.3s0.8-3.3,1.7-3.3s1.7,1.5,1.7,3.3S544.9,177.4,543.9,177.4
		L543.9,177.4z"/>
	<path id="_Tracciato_385" class="st6" d="M545.6,174.1c0,1.8-0.8,3.3-1.7,3.3s-1.7-1.5-1.7-3.3s0.8-3.3,1.7-3.3
		S545.6,172.3,545.6,174.1z"/>
	<path id="_Tracciato_composto_83" class="st1" d="M549.2,170.1c-1.4,0-2.4,1.8-2.4,4s1.1,4,2.4,4s2.4-1.8,2.4-4
		S550.5,170.1,549.2,170.1z M549.2,177.4c-0.9,0-1.7-1.5-1.7-3.3s0.8-3.3,1.7-3.3s1.7,1.5,1.7,3.3S550.1,177.4,549.2,177.4
		L549.2,177.4z"/>
	<path id="_Tracciato_386" class="st6" d="M550.9,174.1c0,1.8-0.8,3.3-1.7,3.3s-1.7-1.5-1.7-3.3s0.8-3.3,1.7-3.3
		S550.9,172.3,550.9,174.1z"/>
	<path id="_Tracciato_composto_84" class="st1" d="M554.4,170.1c-1.3,0-2.4,1.8-2.4,4s1.1,4,2.4,4s2.4-1.8,2.4-4
		S555.7,170.1,554.4,170.1z M554.4,177.4c-0.9,0-1.7-1.5-1.7-3.3s0.8-3.3,1.7-3.3s1.7,1.5,1.7,3.3S555.3,177.4,554.4,177.4
		L554.4,177.4z"/>
	<path id="_Tracciato_387" class="st6" d="M556.1,174.1c0,1.8-0.8,3.3-1.7,3.3s-1.7-1.5-1.7-3.3s0.8-3.3,1.7-3.3
		S556.1,172.3,556.1,174.1z"/>
	<path id="_Tracciato_composto_85" class="st1" d="M559.6,170.1c-1.4,0-2.4,1.8-2.4,4s1.1,4,2.4,4s2.4-1.8,2.4-4
		S560.9,170.1,559.6,170.1z M559.6,177.4c-0.9,0-1.7-1.5-1.7-3.3s0.8-3.3,1.7-3.3s1.7,1.5,1.7,3.3S560.5,177.4,559.6,177.4
		L559.6,177.4z"/>
	<path id="_Tracciato_388" class="st6" d="M561.3,174.1c0,1.8-0.8,3.3-1.7,3.3s-1.7-1.5-1.7-3.3s0.8-3.3,1.7-3.3
		S561.3,172.3,561.3,174.1z"/>
	<path id="_Tracciato_composto_86" class="st1" d="M564.8,170.1c-1.3,0-2.4,1.8-2.4,4s1.1,4,2.4,4s2.4-1.8,2.4-4
		S566.2,170.1,564.8,170.1z M564.8,177.4c-0.9,0-1.7-1.5-1.7-3.3s0.8-3.3,1.7-3.3s1.7,1.5,1.7,3.3S565.7,177.4,564.8,177.4
		L564.8,177.4z"/>
	<path id="_Tracciato_389" class="st6" d="M566.5,174.1c0,1.8-0.8,3.3-1.7,3.3s-1.7-1.5-1.7-3.3s0.8-3.3,1.7-3.3
		S566.5,172.3,566.5,174.1z"/>
	<path id="_Tracciato_composto_87" class="st1" d="M570,170.1c-1.4,0-2.4,1.8-2.4,4s1.1,4,2.4,4s2.4-1.8,2.4-4
		S571.4,170.1,570,170.1z M570,177.4c-0.9,0-1.7-1.5-1.7-3.3s0.8-3.3,1.7-3.3s1.7,1.5,1.7,3.3S571,177.4,570,177.4L570,177.4z"/>
	<path id="_Tracciato_390" class="st6" d="M571.7,174.1c0,1.8-0.8,3.3-1.7,3.3s-1.7-1.5-1.7-3.3s0.8-3.3,1.7-3.3
		S571.7,172.3,571.7,174.1z"/>
	<rect id="_Tracciato_391" x="541.9" y="150" class="st8" width="0.7" height="12.1"/>
</g>
<path id="_Tracciato_composto_88" class="st1" d="M317.1,90.1v4.2h58.3v-4.2H317.1z M317.8,93.5v-2.8h56.9v2.8H317.8z"/>
<rect id="_Tracciato_392" x="317.8" y="90.8" class="st2" width="56.9" height="2.8"/>
<path id="_Tracciato_composto_89" class="st1" d="M317.1,86.6v4.2h58.2l1.8-4.2H317.1z M374.8,90h-57v-2.8H376L374.8,90z"/>
<polygon id="_Tracciato_393" class="st6" points="376,87.3 374.8,90.1 317.8,90.1 317.8,87.3 "/>
<polygon id="_Tracciato_394" class="st8" points="323.3,101.5 323.3,101.5 323.2,101.6 322.5,102.5 321.9,101.6 321.8,101.5 
	321.8,101.5 321.8,101.5 322.1,101.3 322.1,101.3 322.4,101.1 322.4,101.2 322.5,101.3 322.7,101.2 322.7,101.1 323,101.3 
	323,101.3 323.3,101.4 "/>
<path id="_Tracciato_395" class="st8" d="M327.2,101.2L327.2,101.2l-0.7,0.1V99c0-0.9-0.7-1.5-1.5-1.5c-0.9,0-1.5,0.7-1.5,1.5
	c0,0,0,0,0,0v2.3h-0.7V99c0-1.2,1-2.2,2.2-2.2s2.2,1,2.2,2.2L327.2,101.2z"/>
<polygon id="_Tracciato_396" class="st8" points="326.8,100.9 326.8,101.3 326.8,101.3 326.8,101.6 326.6,101.6 326.5,101.6 
	326.6,101.5 326.6,101.5 326.6,101.3 326.6,100.9 "/>
<path id="_Tracciato_397" class="st8" d="M331.9,101.2L331.9,101.2l-0.7,0.1V99c0-0.9-0.7-1.5-1.5-1.5c-0.9,0-1.5,0.7-1.5,1.5
	c0,0,0,0,0,0v2.3h-0.7V99c0-1.2,1-2.2,2.2-2.2s2.2,1,2.2,2.2L331.9,101.2z"/>
<rect id="_Tracciato_398" x="327.7" y="100.9" class="st8" width="0.3" height="0.7"/>
<polygon id="_Tracciato_399" class="st8" points="328,101.5 328,101.5 327.9,101.6 327.3,102.5 326.6,101.6 326.6,101.5 
	326.5,101.5 326.6,101.5 326.8,101.3 326.8,101.3 327.1,101.1 327.2,101.2 327.3,101.3 327.4,101.2 327.5,101.1 327.7,101.3 
	327.8,101.3 328,101.4 "/>
<path id="_Tracciato_400" class="st8" d="M331.9,101.2L331.9,101.2l-0.7,0.1V99c0-0.9-0.7-1.5-1.5-1.5c-0.9,0-1.5,0.7-1.5,1.5
	c0,0,0,0,0,0v2.3h-0.7V99c0-1.2,1-2.2,2.2-2.2s2.2,1,2.2,2.2L331.9,101.2z"/>
<polygon id="_Tracciato_401" class="st8" points="331.6,100.9 331.5,101.3 331.5,101.3 331.5,101.6 331.4,101.6 331.3,101.6 
	331.3,101.5 331.3,101.5 331.3,101.3 331.3,100.9 "/>
<path id="_Tracciato_402" class="st8" d="M336.6,101.2L336.6,101.2l-0.7,0.1V99c0-0.9-0.7-1.5-1.5-1.5c-0.9,0-1.5,0.7-1.5,1.5
	c0,0,0,0,0,0v2.3h-0.7V99c0-1.2,1-2.2,2.2-2.2s2.2,1,2.2,2.2L336.6,101.2z"/>
<rect id="_Tracciato_403" x="332.5" y="100.9" class="st8" width="0.3" height="0.7"/>
<polygon id="_Tracciato_404" class="st8" points="332.8,101.5 332.7,101.5 332.7,101.6 332,102.5 331.4,101.6 331.3,101.5 
	331.3,101.5 331.3,101.5 331.5,101.3 331.6,101.3 331.8,101.1 331.9,101.2 332,101.3 332.1,101.2 332.2,101.1 332.5,101.3 
	332.5,101.3 332.7,101.4 "/>
<path id="_Tracciato_405" class="st8" d="M336.6,101.2L336.6,101.2l-0.7,0.1V99c0-0.9-0.7-1.5-1.5-1.5c-0.9,0-1.5,0.7-1.5,1.5
	c0,0,0,0,0,0v2.3h-0.7V99c0-1.2,1-2.2,2.2-2.2s2.2,1,2.2,2.2L336.6,101.2z"/>
<polygon id="_Tracciato_406" class="st8" points="336.3,100.9 336.3,101.3 336.3,101.3 336.3,101.6 336.1,101.6 336,101.6 
	336,101.5 336,101.5 336,101.3 336.1,100.9 "/>
<path id="_Tracciato_407" class="st8" d="M341.4,101.2L341.4,101.2l-0.7,0.1V99c0-0.9-0.7-1.5-1.5-1.5c-0.9,0-1.5,0.7-1.5,1.5
	c0,0,0,0,0,0v2.3h-0.7V99c0-1.2,1-2.2,2.2-2.2s2.2,1,2.2,2.2L341.4,101.2z"/>
<rect id="_Tracciato_408" x="337.2" y="100.9" class="st8" width="0.3" height="0.7"/>
<polygon id="_Tracciato_409" class="st8" points="337.5,101.5 337.5,101.5 337.4,101.6 336.8,102.5 336.1,101.6 336,101.5 
	336,101.5 336,101.5 336.3,101.3 336.3,101.3 336.6,101.1 336.6,101.2 336.8,101.3 336.9,101.2 336.9,101.1 337.2,101.3 
	337.2,101.3 337.5,101.4 "/>
<path id="_Tracciato_410" class="st8" d="M341.4,101.2L341.4,101.2l-0.7,0.1V99c0-0.9-0.7-1.5-1.5-1.5c-0.9,0-1.5,0.7-1.5,1.5
	c0,0,0,0,0,0v2.3h-0.7V99c0-1.2,1-2.2,2.2-2.2s2.2,1,2.2,2.2L341.4,101.2z"/>
<polygon id="_Tracciato_411" class="st8" points="341,100.9 341,101.3 341,101.3 341,101.6 340.8,101.6 340.8,101.6 340.8,101.5 
	340.8,101.5 340.8,101.3 340.8,100.9 "/>
<path id="_Tracciato_412" class="st8" d="M346.1,101.2L346.1,101.2l-0.7,0.1V99c0-0.9-0.7-1.5-1.5-1.5c-0.9,0-1.5,0.7-1.5,1.5
	c0,0,0,0,0,0v2.3h-0.7V99c0-1.2,1-2.2,2.2-2.2c1.2,0,2.2,1,2.2,2.2V101.2z"/>
<rect id="_Tracciato_413" x="342" y="100.9" class="st8" width="0.3" height="0.7"/>
<polygon id="_Tracciato_414" class="st8" points="342.3,101.5 342.2,101.5 342.2,101.6 341.5,102.5 340.8,101.6 340.8,101.5 
	340.7,101.5 340.8,101.5 341,101.3 341,101.3 341.3,101.1 341.4,101.2 341.5,101.3 341.6,101.2 341.7,101.1 342,101.3 342,101.3 
	342.2,101.4 "/>
<path id="_Tracciato_415" class="st8" d="M346.1,101.2L346.1,101.2l-0.7,0.1V99c0-0.9-0.7-1.5-1.5-1.5c-0.9,0-1.5,0.7-1.5,1.5
	c0,0,0,0,0,0v2.3h-0.7V99c0-1.2,1-2.2,2.2-2.2c1.2,0,2.2,1,2.2,2.2V101.2z"/>
<polygon id="_Tracciato_416" class="st8" points="345.8,100.9 345.8,101.3 345.8,101.3 345.8,101.6 345.6,101.6 345.5,101.6 
	345.5,101.5 345.5,101.5 345.5,101.3 345.6,100.9 "/>
<path id="_Tracciato_417" class="st8" d="M350.9,101.2L350.9,101.2l-0.7,0.1V99c0-0.9-0.7-1.5-1.5-1.5c-0.9,0-1.5,0.7-1.5,1.5
	c0,0,0,0,0,0v2.3h-0.7V99c0-1.2,1-2.2,2.2-2.2s2.2,1,2.2,2.2L350.9,101.2z"/>
<rect id="_Tracciato_418" x="346.7" y="100.9" class="st8" width="0.3" height="0.7"/>
<polygon id="_Tracciato_419" class="st8" points="347,101.5 347,101.5 346.9,101.6 346.2,102.5 345.6,101.6 345.5,101.5 
	345.5,101.5 345.5,101.5 345.8,101.3 345.8,101.3 346.1,101.1 346.1,101.2 346.2,101.3 346.4,101.2 346.4,101.1 346.7,101.3 
	346.7,101.3 347,101.4 "/>
<path id="_Tracciato_420" class="st8" d="M350.9,101.2L350.9,101.2l-0.7,0.1V99c0-0.9-0.7-1.5-1.5-1.5c-0.9,0-1.5,0.7-1.5,1.5
	c0,0,0,0,0,0v2.3h-0.7V99c0-1.2,1-2.2,2.2-2.2s2.2,1,2.2,2.2L350.9,101.2z"/>
<polygon id="_Tracciato_421" class="st8" points="350.5,100.9 350.5,101.3 350.5,101.3 350.5,101.6 350.3,101.6 350.2,101.6 
	350.3,101.5 350.3,101.5 350.3,101.3 350.3,100.9 "/>
<path id="_Tracciato_422" class="st8" d="M355.6,101.2L355.6,101.2l-0.7,0.1V99c0-0.9-0.7-1.5-1.5-1.5c-0.9,0-1.5,0.7-1.5,1.5
	c0,0,0,0,0,0v2.3h-0.7V99c0-1.2,1-2.2,2.2-2.2s2.2,1,2.2,2.2L355.6,101.2z"/>
<rect id="_Tracciato_423" x="351.5" y="100.9" class="st8" width="0.3" height="0.7"/>
<polygon id="_Tracciato_424" class="st8" points="351.7,101.5 351.7,101.5 351.6,101.6 351,102.5 350.3,101.6 350.3,101.5 
	350.2,101.5 350.3,101.5 350.5,101.3 350.5,101.3 350.8,101.1 350.9,101.2 351,101.3 351.1,101.2 351.2,101.1 351.4,101.3 
	351.5,101.3 351.7,101.4 "/>
<path id="_Tracciato_425" class="st8" d="M355.6,101.2L355.6,101.2l-0.7,0.1V99c0-0.9-0.7-1.5-1.5-1.5c-0.9,0-1.5,0.7-1.5,1.5
	c0,0,0,0,0,0v2.3h-0.7V99c0-1.2,1-2.2,2.2-2.2s2.2,1,2.2,2.2L355.6,101.2z"/>
<polygon id="_Tracciato_426" class="st8" points="355.3,100.9 355.3,101.3 355.3,101.3 355.2,101.6 355.1,101.6 355,101.6 
	355,101.5 355,101.5 355,101.3 355,100.9 "/>
<path id="_Tracciato_427" class="st8" d="M360.3,101.2L360.3,101.2l-0.7,0.1V99c0-0.9-0.7-1.5-1.5-1.5c-0.9,0-1.5,0.7-1.5,1.5
	c0,0,0,0,0,0v2.3h-0.7V99c0-1.2,1-2.2,2.2-2.2c1.2,0,2.2,1,2.2,2.2V101.2z"/>
<rect id="_Tracciato_428" x="356.2" y="100.9" class="st8" width="0.3" height="0.7"/>
<polygon id="_Tracciato_429" class="st8" points="356.5,101.5 356.4,101.5 356.4,101.6 355.7,102.5 355.1,101.6 355,101.5 
	355,101.5 355,101.5 355.3,101.3 355.3,101.3 355.5,101.1 355.6,101.2 355.7,101.3 355.8,101.2 355.9,101.1 356.2,101.3 
	356.2,101.3 356.4,101.4 "/>
<path id="_Tracciato_430" class="st8" d="M360.3,101.2L360.3,101.2l-0.7,0.1V99c0-0.9-0.7-1.5-1.5-1.5c-0.9,0-1.5,0.7-1.5,1.5
	c0,0,0,0,0,0v2.3h-0.7V99c0-1.2,1-2.2,2.2-2.2c1.2,0,2.2,1,2.2,2.2V101.2z"/>
<polygon id="_Tracciato_431" class="st8" points="360,100.9 360,101.3 360,101.3 360,101.6 359.8,101.6 359.7,101.6 359.7,101.5 
	359.7,101.5 359.8,101.3 359.8,100.9 "/>
<path id="_Tracciato_432" class="st8" d="M365.1,101.2L365.1,101.2l-0.7,0.1V99c0-0.9-0.7-1.5-1.5-1.5c-0.8,0-1.5,0.7-1.5,1.5v2.3
	h-0.7V99c0-1.2,1-2.2,2.2-2.2s2.2,1,2.2,2.2L365.1,101.2z"/>
<rect id="_Tracciato_433" x="360.9" y="100.9" class="st8" width="0.3" height="0.7"/>
<polygon id="_Tracciato_434" class="st8" points="361.2,101.5 361.2,101.5 361.1,101.6 360.5,102.5 359.8,101.6 359.7,101.5 
	359.7,101.5 359.7,101.5 360,101.3 360,101.3 360.3,101.1 360.3,101.2 360.5,101.3 360.6,101.2 360.7,101.1 360.9,101.3 
	360.9,101.3 361.2,101.4 "/>
<path id="_Tracciato_435" class="st8" d="M365.1,101.2L365.1,101.2l-0.7,0.1V99c0-0.9-0.7-1.5-1.5-1.5c-0.8,0-1.5,0.7-1.5,1.5v2.3
	h-0.7V99c0-1.2,1-2.2,2.2-2.2s2.2,1,2.2,2.2L365.1,101.2z"/>
<polygon id="_Tracciato_436" class="st8" points="364.8,100.9 364.7,101.3 364.7,101.3 364.7,101.6 364.5,101.6 364.5,101.6 
	364.5,101.5 364.5,101.5 364.5,101.3 364.5,100.9 "/>
<path id="_Tracciato_437" class="st8" d="M369.8,101.2L369.8,101.2l-0.7,0.1V99c0-0.9-0.7-1.5-1.5-1.5c-0.8,0-1.5,0.7-1.5,1.5v2.3
	h-0.7V99c0-1.2,1-2.2,2.2-2.2s2.2,1,2.2,2.2L369.8,101.2z"/>
<rect id="_Tracciato_438" x="365.7" y="100.9" class="st8" width="0.3" height="0.7"/>
<polygon id="_Tracciato_439" class="st8" points="366,101.5 365.9,101.5 365.9,101.6 365.2,102.5 364.5,101.6 364.5,101.5 
	364.4,101.5 364.5,101.5 364.7,101.3 364.8,101.3 365,101.1 365.1,101.2 365.2,101.3 365.3,101.2 365.4,101.1 365.7,101.3 
	365.7,101.3 365.9,101.4 "/>
<path id="_Tracciato_440" class="st8" d="M369.8,101.2L369.8,101.2l-0.7,0.1V99c0-0.9-0.7-1.5-1.5-1.5c-0.8,0-1.5,0.7-1.5,1.5v2.3
	h-0.7V99c0-1.2,1-2.2,2.2-2.2s2.2,1,2.2,2.2L369.8,101.2z"/>
<polygon id="_Tracciato_441" class="st8" points="369.5,100.9 369.5,101.3 369.5,101.3 369.5,101.6 369.3,101.6 369.2,101.6 
	369.2,101.5 369.2,101.5 369.2,101.3 369.3,100.9 "/>
<path id="_Tracciato_442" class="st8" d="M374.6,101.3h-0.7V99c0-0.9-0.7-1.5-1.5-1.5c-0.8,0-1.5,0.7-1.5,1.5v2.3h-0.7V99
	c0-1.2,1-2.2,2.2-2.2s2.2,1,2.2,2.2L374.6,101.3z"/>
<rect id="_Tracciato_443" x="370.4" y="100.9" class="st8" width="0.3" height="0.7"/>
<polygon id="_Tracciato_444" class="st8" points="370.7,101.5 370.7,101.5 370.6,101.6 370,102.5 369.3,101.6 369.2,101.5 
	369.2,101.5 369.2,101.5 369.5,101.3 369.5,101.3 369.8,101.1 369.8,101.2 369.9,101.3 370.1,101.2 370.1,101.1 370.4,101.3 
	370.4,101.3 370.7,101.4 "/>
<path id="_Tracciato_composto_90" class="st6" d="M323.4,116.6v11.1h11.1v-11.1H323.4z M333.8,127h-9.7v-9.7h9.7V127z"/>
<rect id="_Tracciato_445" x="324.1" y="117.3" class="st8" width="9.7" height="9.7"/>
<path id="_Tracciato_composto_91" class="st6" d="M359.4,116.6v11.1h11.1v-11.1H359.4z M369.8,127h-9.7v-9.7h9.7L369.8,127z"/>
<rect id="_Tracciato_446" x="360.1" y="117.3" class="st8" width="9.7" height="9.7"/>
<path id="_Tracciato_composto_92" class="st6" d="M348.4,142.6v0.7h4.8v-0.7H348.4z M339.3,142.6v1.9h16v-1.9H339.3z M354.6,143.8
	H340v-0.6h14.6V143.8z M348.4,142.6v0.7h4.8v-0.7H348.4z"/>
<rect id="_Tracciato_447" x="340" y="143.3" class="st6" width="14.6" height="0.5"/>
<path id="_Tracciato_composto_93" class="st1" d="M252.6,194.8v1.9h20v-1.9H252.6z M253.3,196.1v-0.5H272v0.5H253.3z"/>
<rect id="_Tracciato_448" x="253.3" y="195.5" class="st9" width="18.6" height="0.5"/>
<path id="_Tracciato_composto_94" class="st1" d="M292.4,150v3.6h16V150H292.4z M307.7,152.8h-14.6v-2.2h14.6L307.7,152.8z"/>
<rect id="_Tracciato_449" x="293.1" y="150.7" class="st2" width="14.6" height="2.2"/>
<path id="_Tracciato_composto_95" class="st1" d="M214.7,150v3.6h16V150H214.7z M230.1,152.8h-14.6v-2.2h14.6L230.1,152.8z"/>
<path id="_Tracciato_450" class="st8" d="M228.3,115.4v34.5h-11v-34.5c0-1.5,1.1-2.7,2.6-2.8v-0.4h0.1c0.1-1.5,1.4-2.7,2.9-2.6
	c1.4,0.1,2.5,1.2,2.6,2.6h0.1v0.4C227.1,112.8,228.2,114,228.3,115.4z"/>
<rect id="_Tracciato_451" x="215.4" y="150.7" class="st2" width="14.6" height="2.2"/>
<path id="_Tracciato_composto_96" class="st8" d="M339.3,194.8v1.9h17.1v-1.9H339.3z M355.6,196.1H340v-0.5h15.6V196.1z"/>
<rect id="_Tracciato_452" x="340" y="195.5" class="st6" width="15.7" height="0.5"/>
<rect id="_Tracciato_453" x="347" y="123.7" class="st2" width="0.7" height="18.9"/>
<path id="_Tracciato_composto_97" class="st6" d="M339.3,123v20.3h2.1V123H339.3z M340.7,142.6H340v-18.9h0.7V142.6z"/>
<rect id="_Tracciato_454" x="340" y="123.7" class="st2" width="0.7" height="18.9"/>
<path id="_Tracciato_composto_98" class="st6" d="M353.2,123v20.3h2.1V123H353.2z M353.9,142.6v-18.9h0.7v18.9H353.9z"/>
<path id="_Tracciato_composto_99" class="st1" d="M374.6,162.3v-11.5c-0.1,0,0-55.8,0-55.8h-56.9v101.1h19.4v-30.2h0.1
	c0.2-5.9,5.1-10.5,10.9-10.3c5.6,0.2,10.1,4.7,10.3,10.3h0.2v30.2h16V162.3z M334.5,127.7h-11.1v-11.1h11.1L334.5,127.7z
	 M355.3,144.5h-16V123l0,0v-4.2c0-4.4,7.5-9,7.8-9.2l0.2-0.1l0.2,0.1c0.3,0.2,7.8,4.9,7.8,9.2v4.2l0,0L355.3,144.5z M358.1,97.5
	c-0.9,0-1.5,0.7-1.5,1.5v0v2.2h-0.1v0.2l0,0l0,0v0.1h-0.1l-0.7,0.9l-0.7-0.9h-0.1v-0.1l0,0l0,0v-0.2h-0.1V99c0-0.9-0.7-1.5-1.5-1.5
	c-0.9,0-1.5,0.7-1.5,1.5c0,0,0,0,0,0v2.3h-0.1v0.2l0,0v0.1v0.1h0l-0.7,0.9l-0.7-0.9h-0.1v-0.1l0,0l0,0v-0.3h-0.1V99
	c0-0.9-0.7-1.5-1.5-1.5c-0.9,0-1.5,0.7-1.5,1.5c0,0,0,0,0,0v2.3h-0.1v0.2l0,0v0.1v0.1h-0.1l-0.7,0.9l-0.7-0.9h-0.1v-0.1l0,0l0,0
	v-0.3h-0.1V99c0-0.9-0.7-1.5-1.5-1.5c-0.9,0-1.5,0.7-1.5,1.5c0,0,0,0,0,0v2.3h-0.1v0.2l0,0l0,0v0.1h-0.1l-0.7,0.9l-0.7-0.9h-0.1
	v-0.1l0,0l0,0v-0.2h-0.1V99c0-0.9-0.7-1.5-1.5-1.5c-0.9,0-1.5,0.7-1.5,1.5c0,0,0,0,0,0v2.3h-0.1v0.2l0,0v0.1v0.1h-0.1l-0.7,0.9
	l-0.7-0.9H336v-0.1l0,0l0,0v-0.3h-0.1V99c0-0.9-0.7-1.5-1.5-1.5c-0.9,0-1.5,0.7-1.5,1.5c0,0,0,0,0,0v2.3h-0.1v0.2l0,0v0.1v0.1h-0.1
	l-0.7,0.9l-0.7-0.9h-0.1v-0.1l0,0l0,0v-0.3h-0.1V99c0-0.9-0.7-1.5-1.5-1.5c-0.9,0-1.5,0.7-1.5,1.5c0,0,0,0,0,0v2.3H328v0.2l0,0v0.1
	v0.1l0,0l-0.7,0.9l-0.7-0.9h-0.1v-0.1l0,0l0,0v-0.3h-0.1V99c0-0.9-0.7-1.5-1.5-1.5c-0.9,0-1.5,0.7-1.5,1.5c0,0,0,0,0,0v2.3h-0.1v0.2
	l0,0l0,0v0.1h-0.1l-0.7,0.9l-0.7-0.9h-0.1v-0.1l0,0l0,0v-0.2h-0.1V99c0-0.9-0.7-1.5-1.5-1.5c-0.9,0-1.5,0.7-1.5,1.5c0,0,0,0,0,0v2.3
	h-0.7V99c0-1.2,1-2.2,2.2-2.2s2.2,1,2.2,2.2v2.2l0.1,0.2l0.1-0.2V99c0-1.2,1-2.2,2.2-2.2s2.2,1,2.2,2.2v2.2l0.1,0.2l0.1-0.2V99
	c0-1.2,1-2.2,2.2-2.2s2.2,1,2.2,2.2v2.2l0.1,0.2l0.1-0.2V99c0-1.2,1-2.2,2.2-2.2s2.2,1,2.2,2.2v2.2l0.1,0.2l0.1-0.2V99
	c0-1.2,1-2.2,2.2-2.2s2.2,1,2.2,2.2v2.2l0.1,0.2l0.1-0.2v-2.2c0-1.2,1-2.2,2.2-2.2c1.2,0,2.2,1,2.2,2.2l0,0v2.2l0.1,0.2l0.1-0.2
	v-2.2c0-1.2,1-2.2,2.2-2.2s2.2,1,2.2,2.2v2.2l0.1,0.2l0.1-0.2v-2.2c0-1.2,1-2.2,2.2-2.2s2.2,1,2.2,2.2v2.2l0.1,0.2l0.1-0.2v-2.2
	c0-1.2,1-2.2,2.2-2.2c1.2,0,2.2,1,2.2,2.2l0,0v2.2l0.1,0.2l0.1-0.2v-2.2c0-1.2,1-2.2,2.2-2.2s2.2,1,2.2,2.2v2.2l0.1,0.2l0.1-0.2
	v-2.2c0-1.2,1-2.2,2.2-2.2s2.2,1,2.2,2.2v2.2l0.1,0.2l0.1-0.2v-2.2c0-1.2,1-2.2,2.2-2.2s2.2,1,2.2,2.2v2.4h-0.7V99
	c0-0.9-0.7-1.5-1.5-1.5c-0.8,0-1.5,0.7-1.5,1.5v2.3h0v0.2l0,0l0,0v0.1l0,0l-0.7,0.9l-0.7-0.9h-0.1v-0.1l0,0l0,0v-0.2h-0.1V99
	c0-0.9-0.7-1.5-1.5-1.5c-0.8,0-1.5,0.7-1.5,1.5v2.3h-0.1v0.2l0,0v0.1v0.1h-0.1l-0.7,0.9l-0.7-0.9h-0.1v-0.1l0,0l0,0v-0.3h-0.1V99
	c0-0.9-0.7-1.5-1.5-1.5c-0.8,0-1.5,0.7-1.5,1.5v2.3h-0.1v0.2l0,0v0.1v0.1h-0.1l-0.7,0.9l-0.7-0.9h-0.1v-0.1l0,0l0,0v-0.3h-0.1V99
	C359.6,98.1,358.9,97.4,358.1,97.5L358.1,97.5z M359.4,116.6h11.1v11.1h-11L359.4,116.6z"/>
<path id="_Tracciato_455" class="st6" d="M342.5,122.1v0.7c-0.6,0.1-1,0.5-1,1.1v16.4h-0.7v-16.4c0-0.3,0.1-0.6,0.3-0.9
	c0.2-0.4,0.6-0.7,1.1-0.9C342.2,122.1,342.4,122.1,342.5,122.1z"/>
<path id="_Tracciato_456" class="st6" d="M345.6,122.7h-0.7c0-0.6-0.5-1.4-1.1-1.4c-0.7,0.1-1.2,0.7-1.1,1.4H342
	c0-0.2,0-0.4,0.1-0.6c0.2-0.9,0.9-1.5,1.8-1.5c0.9,0.1,1.6,0.7,1.8,1.5C345.6,122.3,345.6,122.5,345.6,122.7z"/>
<path id="_Tracciato_457" class="st6" d="M349.4,122.1v0.7c-0.6,0.1-1,0.5-1,1.1v16.4h-0.8v-16.4c0-0.8,0.6-1.5,1.4-1.8l0,0
	C349.1,122.1,349.3,122.1,349.4,122.1z"/>
<path id="_Tracciato_458" class="st6" d="M353.9,123.9v16.4h-0.7v-16.4c0-0.6-0.4-1-1-1.1v-0.1v-0.6c0.1,0,0.2,0,0.4,0.1
	C353.4,122.3,353.9,123.1,353.9,123.9L353.9,123.9z"/>
<path id="_Tracciato_459" class="st6" d="M352.6,122.7h-0.7c0-0.6-0.5-1.4-1.1-1.4s-1.1,0.8-1.1,1.4H349c0-0.2,0-0.4,0.1-0.6l0,0
	c0.1-1,1-1.6,2-1.5c0.8,0.1,1.4,0.7,1.5,1.5C352.6,122.3,352.6,122.5,352.6,122.7z"/>
<path id="_Tracciato_460" class="st2" d="M231.6,110.5h-1c-0.4-4.4-4.3-7.6-8.7-7.2c-3.8,0.4-6.9,3.4-7.2,7.2h-0.9
	c0.2-4.9,4.3-8.8,9.2-8.6C227.7,102,231.5,105.8,231.6,110.5L231.6,110.5z"/>
<path id="_Tracciato_461" class="st1" d="M232.4,110.9v0.4h-2v-0.7h1.3c-0.2-4.9-4.3-8.8-9.2-8.6c-4.7,0.2-8.5,3.9-8.6,8.6h1.3v0.7
	h-2v-0.4c0.2-5.3,4.6-9.5,9.9-9.3C228.1,101.7,232.2,105.8,232.4,110.9L232.4,110.9z"/>
<polygon id="_Tracciato_462" class="st8" points="345.8,114.7 345.6,114 345.7,114.4 "/>
<path id="_Tracciato_463" class="st8" d="M345.9,117.1l-0.1,0.3v0.1l-0.1,0.3l-0.2-0.1c-1-0.4-1.5-1.5-1.1-2.5
	c0.2-0.5,0.6-0.9,1.1-1.1c0.1,0,0.1-0.1,0.2-0.1l0.2-0.1l0.1,0.3l0.1,0.3l-0.2,0.1c-0.7,0.2-1.1,0.8-0.9,1.5
	C345,116.6,345.4,117,345.9,117.1L345.9,117.1z"/>
<path id="_Tracciato_464" class="st8" d="M350.4,115.9c-0.1,0.8-0.5,1.4-1.2,1.8l-0.2,0.1l-0.1-0.3l-0.1-0.3
	c0.5-0.2,0.9-0.7,0.9-1.2c0-0.5-0.6-1-1.1-1.2l0.1-0.3l0.1-0.3c0.1,0,0.2,0.1,0.3,0.1C349.9,114.5,350.3,115.1,350.4,115.9z"/>
<path id="_Tracciato_465" class="st8" d="M349.3,113.6c0,0.2,0,0.3-0.1,0.5c0,0.1-0.1,0.2-0.1,0.3l-0.6-0.3c0.3-0.6,0-1.4-0.6-1.7
	c-0.6-0.3-1.4,0-1.7,0.6c-0.1,0.2-0.1,0.3-0.1,0.5c0,0.2,0,0.4,0.1,0.5l-0.3,0.1l-0.1,0.1l0,0l-0.1,0.1c0-0.1-0.1-0.2-0.1-0.3
	c0-0.2-0.1-0.3-0.1-0.5c0-1.1,0.9-1.9,1.9-1.9S349.3,112.6,349.3,113.6L349.3,113.6z"/>
<path id="_Tracciato_466" class="st8" d="M349.3,117.4c0,0.1,0,0.1,0,0.2c-0.1,1.1-1.1,1.8-2.1,1.7c-0.9-0.1-1.6-0.8-1.7-1.7
	c0-0.1,0-0.1,0-0.2h0.7c0,0.7,0.6,1.2,1.2,1.2c0.7,0,1.2-0.6,1.2-1.2h0.4L349.3,117.4z"/>
<path id="_Tracciato_467" class="st1" d="M349.5,117.1l0.1,0.3h-0.4c0,0.7-0.6,1.2-1.2,1.2c-0.7,0-1.2-0.6-1.2-1.2h-0.4l0,0h0.4
	h-0.4l0.1-0.3c-0.7-0.2-1.1-0.8-0.9-1.5c0.1-0.4,0.5-0.8,0.9-0.9l0.2-0.1l-0.1-0.3l0.3-0.1c-0.1-0.2-0.1-0.3-0.1-0.5
	c0-0.7,0.6-1.2,1.2-1.2c0.7,0,1.2,0.6,1.2,1.2c0,0.2,0,0.4-0.1,0.5l0.3,0.1l-0.1,0.3c0.5,0.2,1.1,0.8,1.1,1.2
	C350.4,116.4,350,116.9,349.5,117.1z"/>
<polygon id="_Tracciato_468" class="st8" points="346.1,117.4 345.7,117.5 345.4,117.5 345.4,117.4 345.7,117.4 "/>
<polygon id="_Tracciato_469" class="st6" points="321.4,78.4 317.5,78.4 262,41 261.8,40.9 206.1,78.4 202.6,78.4 261.7,37.4 "/>
<path id="_Tracciato_composto_100" class="st9" d="M205.9,72.5h-4v-1.9c0-1.7-1.4-3.2-3.2-3.2s-3.2,1.4-3.2,3.2l0,0v2H194v-2
	c0-1.7-1.4-3.2-3.2-3.2s-3.2,1.4-3.2,3.2l0,0v2h-1.5v-2c0-1.7-1.4-3.2-3.2-3.2s-3.2,1.4-3.2,3.2l0,0v2.1h-1.5v-2.1
	c0-1.7-1.4-3.2-3.2-3.2s-3.2,1.4-3.2,3.2v2h-4.1v15.8l0.4,1.1h0.1v0.3l0.1,0.4h-0.1v105.9h37.5v-117h-5.5l5.5-3.8L205.9,72.5z
	 M186.9,110.8c-7.3,0-13.3-6-13.3-13.3c0-7.3,6-13.3,13.3-13.3c7.3,0,13.3,6,13.3,13.3C200.1,104.9,194.2,110.8,186.9,110.8z"/>
<polygon id="_Tracciato_470" class="st1" points="323.7,79.1 317.4,79.1 317.4,78.4 321.4,78.4 261.7,37.4 206.6,75.6 205.9,76.1 
	202.6,78.4 206.2,78.4 206.2,79.1 200.4,79.1 205.9,75.3 206.6,74.8 209.9,72.5 209.9,72.5 261.7,36.5 "/>
<polygon id="_Tracciato_471" class="st6" points="192.3,93.4 187.8,97.3 186.9,98 186,97.2 183.3,94.6 183.8,94.1 186.5,96.7 
	186.9,97.1 187.3,96.7 191.8,92.9 "/>
<polygon id="_Tracciato_472" class="st8" points="375.4,94.2 375,196.8 374.7,196.5 374.7,94.9 317.8,94.9 317.8,196.1 375,196.1 
	375,196.8 317.1,196.8 317.1,94.2 "/>
<path id="_Tracciato_composto_101" class="st6" d="M346.3,123v20.3h2.1V123H346.3z M347.6,142.6h-0.7v-18.9h0.7V142.6z"/>
<path id="_Tracciato_473" class="st6" d="M347,123.9v16.4h-0.7v-16.4c0-0.6-0.4-1.1-1-1.1v-0.1v-0.6c0.1,0,0.2,0,0.4,0.1
	C346.4,122.3,347,123.1,347,123.9L347,123.9z"/>
<path id="_Tracciato_composto_102" class="st8" d="M317.5,78.4L262,41l-0.2-0.1l-55.2,37.2l-0.5,0.3l-0.2,0.2l0,0v118.2h111.9V78.6
	L317.5,78.4z M317.1,196.1H206.5V78.9l0,0l55.2-37.2L317,78.9L317.1,196.1z"/>
<path id="_Tracciato_474" class="st6" d="M306.6,150v-34.5c0-1.6-1.1-3-2.7-3.4c-0.1-1.9-1.8-3.4-3.7-3.2c-1.7,0.1-3.1,1.5-3.2,3.2
	c-1.6,0.4-2.7,1.8-2.7,3.4V150h-1.1v-38.9c0-4,3.3-7.3,7.3-7.3s7.3,3.3,7.3,7.3l0.1,38.9L306.6,150z"/>
<path id="_Tracciato_475" class="st6" d="M229,150v-34.5c0-1.6-1.2-3-2.7-3.4c-0.2-1.9-1.9-3.3-3.8-3.1c-1.7,0.2-3,1.5-3.1,3.1
	c-1.6,0.4-2.7,1.8-2.7,3.4V150h-1.1v-38.9c0-4,3.3-7.3,7.3-7.3s7.3,3.3,7.3,7.3l0.1,38.9L229,150z"/>
<path id="_Rettangolo_12" class="st7" d="M390.8,136.6h131.9c1,0,1.9,0.8,1.9,1.9v0c0,1-0.8,1.9-1.9,1.9H390.8c-1,0-1.9-0.8-1.9-1.9
	v0C388.9,137.4,389.8,136.6,390.8,136.6z"/>
<rect id="_Rettangolo_13" x="386.3" y="112.4" class="st10" width="142.2" height="4.2"/>
<rect id="_Rettangolo_14" x="398.3" y="122.7" class="st10" width="23.1" height="10.4"/>
<rect id="_Rettangolo_15" x="490.6" y="122.7" class="st10" width="23.1" height="10.4"/>
</svg>
