<?xml version="1.0" encoding="utf-8"?>
<!-- Generator: Adobe Illustrator 22.0.0, SVG Export Plug-In . SVG Version: 6.00 Build 0)  -->
<svg version="1.1" id="Livello_1" xmlns="http://www.w3.org/2000/svg" xmlns:xlink="http://www.w3.org/1999/xlink" x="0px" y="0px"
	 viewBox="0 0 580 210" style="enable-background:new 0 0 580 210;" xml:space="preserve">
<style type="text/css">
	.st0{fill:#BACFD8;}
	.st1{fill:#C6D7DF;}
	.st2{fill:#5F9EB1;}
	.st3{fill:#C6D7DF;stroke:#5F9EB1;stroke-miterlimit:10;}
	.st4{fill:#E3EBEF;}
	.st5{fill:#A6C3CF;}
	.st6{fill:#1D1D1B;}
	.st7{fill:#CBDAE2;}
	.st8{fill:#A6C3CF;stroke:#5F9EB1;stroke-miterlimit:10;}
	.st9{fill:#85B1C0;}
	.st10{fill:#F4F7F9;stroke:#5F9EB1;stroke-miterlimit:10;}
</style>
<title>loppure-raccontiamo-promozione</title>
<g id="_Gruppo_">
	<polygon id="_Tracciato_" class="st0" points="163.6,96.8 163.6,81.8 163.6,74.5 171.4,73.3 183.6,72.4 195.5,72.4 209.8,74.4 
		217.3,76.8 220.8,78.5 209.9,83.5 194.9,89.4 178.8,93.9 170.2,96.1 	"/>
	<g id="_Gruppo_2">
		<path id="_Tracciato_2" class="st1" d="M69.1,78.5v19.6c0,0-0.7-8.8-6.9-11.6c0,0-0.1,8.8,6.9,11.6v46h-4.2l-0.4-0.1
			c0.2-8.6-1-17.2-3.4-25.5c0.6-0.5,6.6-6,4.1-12.8c0,0-5.6,5.8-4.4,12c-3.1-9.9-9-19.6-19.8-23.7c2.3-3.7,5.4-7,8.9-9.6
			C55.6,80.7,62.3,78.5,69.1,78.5z"/>
		<path id="_Tracciato_composto_" class="st2" d="M69.5,144.6h-4.8h-0.2l-0.3-0.1v-0.4c0.2-8.6-1-17.2-3.3-25.4l-0.1-0.3l0.2-0.2
			c0.3-0.2,6-5.3,4.2-11.7c-1.3,1.5-4.8,6.2-3.8,11.1l-0.8,0.2c-3.9-12.1-10.5-20-19.6-23.4l-0.4-0.2l0.3-0.4c2.3-3.8,5.4-7.1,9-9.7
			c5.6-4,12.4-6.2,19.3-6.2h0.4L69.5,144.6z M64.9,143.8h3.8V98.4c-7-2.9-6.9-11.8-6.9-11.9V86l0.6,0.3c3.7,1.7,5.5,5.3,6.4,8.1
			V78.9c-6.6,0.1-13.1,2.2-18.5,6c-3.4,2.4-6.3,5.5-8.6,9c8.4,3.3,14.7,10.4,18.7,21.1c0.4-5.1,4.4-9.3,4.6-9.5l0.4-0.4l0.2,0.6
			c2.4,6.6-2.9,12-4,13C63.9,126.8,65.1,135.3,64.9,143.8L64.9,143.8z M62.6,87.2c0.1,2,1,7.9,6,10.3C68.3,95.6,67.1,89.7,62.6,87.2
			L62.6,87.2z"/>
	</g>
	<path id="_Tracciato_composto_2" class="st3" d="M61.2,118.7L61.2,118.7c-0.1-0.3-0.2-0.6-0.2-0.9c-3.1-9.9-9-19.6-19.8-23.7
		c-9.1,14.8-5.2,34.1,8.9,44.1l0,0c4.3,3.1,9.3,5.1,14.5,5.8C64.7,135.5,63.6,126.9,61.2,118.7z M42.6,101.4
		c6.7-1.5,12.5,5.1,12.5,5.1C47.8,108.6,42.6,101.4,42.6,101.4L42.6,101.4z M53.9,122.8c6.7,1.3,9.4,9.6,9.4,9.6
		C55.8,131.3,53.9,122.8,53.9,122.8z"/>
	<path id="_Tracciato_3" class="st2" d="M60.9,119.4l-0.2-0.6c-0.1-0.3-0.2-0.6-0.2-0.9l0.8-0.2c0.1,0.3,0.2,0.6,0.3,0.8l0.1,0.2
		L60.9,119.4z"/>
	<path id="_Tracciato_4" class="st2" d="M69.1,144.8c-1.4,0-2.8-0.1-4.3-0.3v-0.8h8.3l0.1,0.8c-0.9,0.1-1.8,0.2-2.7,0.2
		C70.1,144.8,69.6,144.8,69.1,144.8z"/>
	<rect id="_Tracciato_5" x="68.7" y="144.2" class="st2" width="0.8" height="0.3"/>
	<path id="_Tracciato_composto_3" class="st3" d="M99.3,98.2c-0.6-1.4-1.4-2.8-2.2-4.1l0,0c-25.6,9.1-23.8,50.1-23.8,50.1
		c8.1-1,15.6-5,20.9-11.3c1.4-1.7,2.7-3.5,3.8-5.4C102.9,118.5,103.4,107.6,99.3,98.2z M74,132.4c0,0,2.7-8.4,9.4-9.6
		C83.4,122.8,81.5,131.3,74,132.4L74,132.4z M82.2,106.5c0,0,5.8-6.6,12.5-5.1C94.7,101.4,89.5,108.6,82.2,106.5L82.2,106.5z"/>
	<g id="_Gruppo_3">
		<path id="_Tracciato_6" class="st4" d="M126.9,127.4v26.9H94.1v-21.4c1.4-1.7,2.7-3.5,3.8-5.4L126.9,127.4z"/>
		<path id="_Tracciato_composto_4" class="st2" d="M127.3,154.7H93.7v-21.9l0.1-0.1c1.4-1.7,2.7-3.4,3.7-5.4l0.1-0.2l29.6-0.1
			L127.3,154.7z M94.5,153.9h32v-26.1l-28.4,0.1c-1,1.8-2.2,3.6-3.6,5.2L94.5,153.9z"/>
	</g>
	<g id="_Gruppo_4">
		<path id="_Tracciato_7" class="st4" d="M126.9,89.1v9H99.3c-0.6-1.4-1.4-2.8-2.2-4.1h0.1c1.1-0.1,14.7-1,22-2.4c1-0.2,2-0.4,3-0.8
			C123.9,90.3,125.5,89.7,126.9,89.1z"/>
		<path id="_Tracciato_composto_5" class="st2" d="M127.3,98.6H99l-0.1-0.2c-0.6-1.4-1.3-2.8-2.2-4.1l-0.4-0.6h0.9
			c3.5-0.2,15.3-1.1,21.8-2.4c1-0.2,2-0.4,3-0.7c1.7-0.6,3.3-1.2,4.7-1.7l0.5-0.2L127.3,98.6z M99.5,97.8h27v-8
			c-1.3,0.5-2.8,1-4.2,1.5c-1,0.3-2,0.6-3.1,0.8c-6.3,1.2-17.5,2.1-21.4,2.4C98.4,95.5,99,96.6,99.5,97.8z"/>
	</g>
	<path id="_Tracciato_8" class="st2" d="M221.1,78.9c-14.7-7.7-39.4-7.5-57.4-4l-0.1-0.8c16.8-3.3,42-4.3,57.9,4.1L221.1,78.9z"/>
	<path id="_Tracciato_9" class="st2" d="M40.9,94.5l-0.3-0.1l0.3-0.8l0.4,0.2L40.9,94.5z"/>
	<g id="_Gruppo_5">
		<path id="_Tracciato_10" class="st2" d="M73.2,144.2v44.8h-8.7v-44.8h0.4c1.4,0.2,2.8,0.3,4.2,0.3c0.5,0,1,0,1.4,0
			C71.4,144.4,72.3,144.3,73.2,144.2z"/>
		<path id="_Tracciato_composto_6" class="st2" d="M73.6,189.3h-9.5v-45.6h0.8c1.9,0.2,3.7,0.3,5.6,0.2c0.9,0,1.8-0.1,2.6-0.2
			l0.4-0.1L73.6,189.3z M64.9,188.5h7.9v-43.9c-0.7,0.1-1.5,0.1-2.3,0.2c-1.9,0.1-3.8,0-5.6-0.2V188.5z"/>
	</g>
	<path id="_Tracciato_11" class="st2" d="M69.1,144.8c-1.4,0-2.8-0.1-4.3-0.3v-0.8h8.3l0.1,0.8c-0.9,0.1-1.8,0.2-2.7,0.2
		C70.1,144.8,69.6,144.8,69.1,144.8z"/>
	<g id="_Gruppo_6">
		<path id="_Tracciato_12" class="st2" d="M63.3,132.3c-7.5-1-9.4-9.6-9.4-9.6C60.6,124,63.3,132.3,63.3,132.3z"/>
		<path id="_Tracciato_composto_7" class="st2" d="M63.9,132.8l-0.6-0.1c-7.7-1-9.8-9.9-9.8-9.9l-0.1-0.6l0.6,0.1
			c6.9,1.3,9.6,9.6,9.8,9.9L63.9,132.8z M54.4,123.2c0.6,1.9,2.8,7.5,8.3,8.6C61.9,130,59.4,124.6,54.4,123.2L54.4,123.2z"/>
	</g>
	<g id="_Gruppo_7">
		<path id="_Tracciato_13" class="st2" d="M55.1,106.5c-7.3,2-12.5-5.1-12.5-5.1C49.3,99.9,55.1,106.5,55.1,106.5z"/>
		<path id="_Tracciato_composto_8" class="st2" d="M52.5,107.3c-6,0-10.2-5.6-10.2-5.6l-0.4-0.5l0.6-0.1c6.8-1.5,12.6,5,12.9,5.2
			l0.4,0.5l-0.6,0.2C54.3,107.2,53.4,107.3,52.5,107.3z M43.3,101.7c1.3,1.5,5.5,5.8,11,4.6C52.9,104.9,48.4,100.9,43.3,101.7
			L43.3,101.7z"/>
	</g>
	<g id="_Gruppo_8">
		<path id="_Tracciato_14" class="st2" d="M61.2,118.7c-0.1-0.3-0.2-0.5-0.3-0.8c-1.3-6.2,4.4-12,4.4-12
			C67.8,112.7,61.7,118.2,61.2,118.7z"/>
		<path id="_Tracciato_composto_9" class="st2" d="M60.9,119.4l-0.2-0.6c-0.1-0.3-0.1-0.5-0.3-0.8c-1.3-6.4,4.2-12.1,4.5-12.4
			l0.4-0.4l0.2,0.6c2.6,7.2-4,13-4.2,13.2L60.9,119.4z M65.1,106.6c-1.3,1.5-4.9,6.2-3.9,11.1l0.1,0.2
			C62.7,116.6,66.7,112.1,65.1,106.6L65.1,106.6z"/>
	</g>
	<path id="_Tracciato_15" class="st2" d="M60.9,119.4l-0.2-0.6c-0.1-0.3-0.2-0.6-0.2-0.9l0.8-0.2c0.1,0.3,0.2,0.6,0.3,0.8l0.1,0.2
		L60.9,119.4z"/>
	<g id="_Gruppo_9">
		<path id="_Tracciato_16" class="st2" d="M83.4,122.8c0,0-1.9,8.6-9.4,9.6C74,132.3,76.7,124,83.4,122.8z"/>
		<path id="_Tracciato_composto_10" class="st2" d="M73.4,132.8l0.2-0.6c0.1-0.4,2.9-8.6,9.8-9.9l0.6-0.1l-0.1,0.6
			c0,0.1-2.1,8.9-9.8,9.9L73.4,132.8z M82.9,123.2c-4.9,1.3-7.5,6.8-8.3,8.6C80.1,130.8,82.3,125.1,82.9,123.2L82.9,123.2z"/>
	</g>
	<g id="_Gruppo_10">
		<path id="_Tracciato_17" class="st2" d="M94.7,101.4c0,0-5.2,7.2-12.5,5.1C82.2,106.5,88,99.9,94.7,101.4z"/>
		<path id="_Tracciato_composto_11" class="st2" d="M84.8,107.3c-0.9,0-1.8-0.1-2.7-0.4l-0.6-0.2l0.4-0.5c0.2-0.3,6-6.8,12.9-5.2
			l0.6,0.1l-0.4,0.5C94.9,101.7,90.8,107.3,84.8,107.3z M82.9,106.3c5.5,1.1,9.7-3.1,11-4.6C88.9,100.9,84.3,104.9,82.9,106.3
			L82.9,106.3z"/>
	</g>
	<g id="_Gruppo_11">
		<path id="_Tracciato_18" class="st2" d="M76,86.6c0,0,0.1,8.8-6.9,11.6C69.1,98.2,69.8,89.4,76,86.6z"/>
		<path id="_Tracciato_composto_12" class="st2" d="M68.7,98.8v-0.6c0-0.4,0.8-9,7.1-11.9l0.6-0.3v0.6c0,0.1,0.1,9.2-7.2,12
			L68.7,98.8z M75.6,87.2c-4.5,2.5-5.7,8.3-6,10.3C74.7,95.1,75.5,89.2,75.6,87.2L75.6,87.2z"/>
	</g>
	<g id="_Gruppo_12">
		<path id="_Tracciato_19" class="st2" d="M69.1,98.2c-7-2.8-6.9-11.6-6.9-11.6C68.4,89.4,69.1,98.2,69.1,98.2z"/>
		<path id="_Tracciato_composto_13" class="st2" d="M69.5,98.8L69,98.5c-7.2-2.8-7.2-11.9-7.2-12v-0.6l0.6,0.3
			c6.4,2.9,7.1,11.6,7.1,11.9L69.5,98.8z M62.6,87.2c0.1,2,1,7.9,6,10.3C68.3,95.6,67.1,89.7,62.6,87.2L62.6,87.2z"/>
	</g>
	<path id="_Tracciato_20" class="st2" d="M504.6,96l-0.3-0.1l0.3-0.8l0.4,0.2L504.6,96z"/>
	<path id="_Tracciato_composto_14" class="st3" d="M97.1,94c-4.7-7.6-12.3-12.9-21-14.8l0,0c-2.3-0.5-4.6-0.7-6.9-0.7v19.6
		c0,0,0.7-8.8,6.9-11.6c0,0,0.1,8.8-6.9,11.6v46h4.1l0,0C73.2,144.2,71.4,103.2,97.1,94z M76.2,118.8c0,0-6.8-5.7-4.2-12.8
		C72,105.9,78.1,112.2,76.2,118.8z"/>
	<g id="_Gruppo_13">
		<path id="_Tracciato_21" class="st2" d="M76.2,118.8c0,0-6.8-5.7-4.2-12.8C72,105.9,78.1,112.2,76.2,118.8z"/>
		<path id="_Tracciato_composto_15" class="st2" d="M76.4,119.4l-0.5-0.4c-0.1-0.1-6.9-6-4.3-13.3l0.2-0.6l0.4,0.4
			c0.3,0.3,6.3,6.5,4.3,13.2L76.4,119.4z M72.1,106.6c-1.5,5.4,2.4,9.9,3.8,11.3C77.1,113,73.4,108.2,72.1,106.6L72.1,106.6z"/>
	</g>
	<g id="_Gruppo_14">
		<polygon id="_Tracciato_22" class="st4" points="119.1,72.1 119.1,80 97.1,79.6 97.1,61.9 		"/>
		<path id="_Tracciato_composto_16" class="st2" d="M119.5,80.4L96.7,80V61.3l22.8,10.6L119.5,80.4z M97.5,79.3l21.2,0.4v-7.2
			l-21.2-9.9L97.5,79.3z"/>
	</g>
	<g id="_Gruppo_15">
		<path id="_Tracciato_23" class="st4" d="M97.1,61.9L76,61.4V50.1C84,51.8,92,55.2,97.1,61.9z"/>
		<path id="_Tracciato_composto_17" class="st2" d="M97.9,62.3l-22.3-0.5V49.6l0.5,0.1c9.7,2,16.8,6,21.3,11.9L97.9,62.3z M76.4,61
			l19.9,0.4c-4.3-5.3-11-9-19.9-10.9V61z"/>
	</g>
	<g id="_Gruppo_16">
		<path id="_Tracciato_24" class="st4" d="M76,50.1v11.3l-26-0.6V49.4C58.7,48.2,67.4,48.5,76,50.1z"/>
		<path id="_Tracciato_composto_18" class="st2" d="M76.4,61.8l-26.8-0.6V49l0.3-0.1c8.7-1.1,17.5-0.9,26.2,0.7l0.3,0.1L76.4,61.8z
			 M50.4,60.5L75.6,61V50.4c-8.3-1.5-16.8-1.8-25.2-0.7V60.5z"/>
	</g>
	<g id="_Gruppo_17">
		<path id="_Tracciato_25" class="st4" d="M76,61.4v17.8c-9-1.9-18.5,0-26,5.4V60.8L76,61.4z"/>
		<path id="_Tracciato_composto_19" class="st2" d="M49.6,85.4v-25L76.4,61v18.8l-0.5-0.1c-2.2-0.5-4.5-0.7-6.8-0.7
			c-6.8,0-13.4,2.1-18.9,6L49.6,85.4z M50.4,61.3v22.6c5.5-3.8,12-5.8,18.7-5.7c2.2,0,4.4,0.2,6.5,0.6v-17L50.4,61.3z"/>
	</g>
	<polygon id="_Tracciato_26" class="st2" points="49.6,84.7 49.6,84.6 50.4,84.6 	"/>
	
		<rect id="_Tracciato_27" x="138.5" y="78.9" transform="matrix(0.4223 -0.9065 0.9065 0.4223 6.4905 172.9536)" class="st2" width="0.8" height="5"/>
	<g id="_Gruppo_18">
		<path id="_Tracciato_28" class="st4" d="M271.7,149.8v4.5h-23V91.8L223.1,92V78.2c28.9-9.3,48.6,0.3,48.6,0.3v26.3h-1.2v4.9h0.8
			L271.7,149.8z"/>
		<path id="_Tracciato_composto_20" class="st2" d="M272.1,154.7h-23.8V92.2l-25.5,0.2V77.9l0.3-0.1c28.7-9.3,48.7,0.2,48.9,0.3
			l0.2,0.1v26.9h-1.2v4.1h0.9l0.4,40.5V154.7z M249.1,153.9h22.2v-4.2l-0.4-39.8H270v-5.6h1.2V78.8c-2.2-1-21.2-8.7-47.8-0.2v13.1
			l25.5-0.2L249.1,153.9z"/>
	</g>
	<g id="_Gruppo_19">
		<polygon id="_Tracciato_29" class="st4" points="223.1,138.5 223.1,154.3 197.9,154.3 197.9,138.6 		"/>
		<path id="_Tracciato_composto_21" class="st2" d="M223.5,154.7h-26v-16.5l26-0.1V154.7z M198.3,153.9h24.4v-15l-24.4,0.1V153.9z"
			/>
	</g>
	<polygon id="_Tracciato_30" class="st2" points="271.7,154.7 271.7,154.7 271.7,153.9 	"/>
	<g id="_Gruppo_20">
		<path id="_Tracciato_31" class="st4" d="M197.9,92.3v23h-54.6V98.2c6.8,0,13.6-0.5,20.4-1.5c7.2-1,14.2-2.4,21.2-4.3L197.9,92.3z"
			/>
		<path id="_Tracciato_composto_22" class="st2" d="M198.3,115.6h-55.4V97.8h0.4c6.8,0,13.6-0.5,20.3-1.5c7.1-1,14.2-2.4,21.2-4.3
			h0.1l13.5-0.1L198.3,115.6z M143.7,114.9h53.8V92.7l-12.6,0.1c-7,1.8-14.1,3.3-21.2,4.3c-6.6,1-13.3,1.5-20,1.5L143.7,114.9z"/>
	</g>
	<g id="_Gruppo_21">
		<path id="_Tracciato_32" class="st4" d="M223.1,78.2v13.9l-25.2,0.2l-13.1,0.1c9.2-2.4,18.2-5.7,26.9-9.7
			C215.4,81,219.2,79.5,223.1,78.2z"/>
		<path id="_Tracciato_composto_23" class="st2" d="M181.7,92.8l3-0.8c9.2-2.4,18.2-5.7,26.8-9.7c3.7-1.7,7.5-3.2,11.4-4.5l0.5-0.2
			v14.8L181.7,92.8z M222.7,78.7c-3.7,1.2-7.3,2.7-10.8,4.3c-7.8,3.6-15.8,6.6-24,8.9l34.8-0.3L222.7,78.7z"/>
	</g>
	<rect id="_Tracciato_33" x="74" y="153.9" class="st2" width="3.8" height="0.8"/>
	<g id="_Gruppo_22">
		<polygon id="_Tracciato_34" class="st1" points="271.7,186.1 271.7,188.9 73.2,188.9 73.2,180.5 177.5,180.5 177.5,183.4 
			172.8,183.4 172.8,186.1 		"/>
		<path id="_Tracciato_composto_24" class="st2" d="M272.1,189.3H72.8v-9.3h105v3.7h-4.5v2h98.8V189.3z M73.6,188.5h197.7v-2h-98.8
			V183h4.6v-2.1H73.6L73.6,188.5z"/>
	</g>
	<g id="_Gruppo_23">
		<rect id="_Tracciato_35" x="177.5" y="180.5" class="st1" width="94.2" height="2.9"/>
		<path id="_Tracciato_composto_25" class="st2" d="M272.1,183.8h-95v-3.7h95V183.8z M177.9,183h93.4v-2.1h-93.4V183z"/>
	</g>
	<g id="_Gruppo_24">
		<rect id="_Tracciato_36" x="172.8" y="183.4" class="st1" width="98.8" height="2.8"/>
		<path id="_Tracciato_composto_26" class="st2" d="M272.1,186.5h-99.6V183h99.6V186.5z M173.3,185.8h98v-2h-98V185.8z"/>
	</g>
	<polygon id="_Tracciato_37" class="st2" points="272.1,189.3 271.3,189.3 271.3,188.9 271.3,180.1 272.1,180.1 272.1,180.5 	"/>
	<g id="_Gruppo_25">
		<rect id="_Tracciato_38" x="159.7" y="154.3" class="st5" width="16.4" height="26.2"/>
		<path id="_Tracciato_composto_27" class="st2" d="M176.4,180.9h-17.2v-27h17.2L176.4,180.9z M160.1,180.1h15.6v-25.4h-15.6V180.1z
			"/>
	</g>
	<g id="_Gruppo_26">
		<rect id="_Tracciato_39" x="143.3" y="154.3" class="st5" width="16.4" height="26.2"/>
		<path id="_Tracciato_composto_28" class="st2" d="M160.1,180.9h-17.2v-27h17.2L160.1,180.9z M143.7,180.1h15.6v-25.4h-15.6
			L143.7,180.1z"/>
	</g>
	<g id="_Gruppo_27">
		<rect id="_Tracciato_40" x="126.9" y="154.3" class="st5" width="16.4" height="26.2"/>
		<path id="_Tracciato_composto_29" class="st2" d="M143.7,180.9h-17.2v-27h17.2V180.9z M127.3,180.1h15.6v-25.4h-15.6V180.1z"/>
	</g>
	<g id="_Gruppo_28">
		<rect id="_Tracciato_41" x="110.5" y="154.3" class="st5" width="16.4" height="26.2"/>
		<path id="_Tracciato_composto_30" class="st2" d="M127.3,180.9h-17.2v-27h17.2V180.9z M110.9,180.1h15.6v-25.4h-15.6L110.9,180.1z
			"/>
	</g>
	<g id="_Gruppo_29">
		<rect id="_Tracciato_42" x="94.1" y="154.3" class="st5" width="16.4" height="26.2"/>
		<path id="_Tracciato_composto_31" class="st2" d="M110.9,180.9H93.7v-27h17.2V180.9z M94.5,180.1h15.6v-25.4H94.5V180.1z"/>
	</g>
	<g id="_Gruppo_30">
		<path id="_Tracciato_43" class="st4" d="M94.1,132.9v21.4H77.7v26.2h-4.5v-36.3l0,0C81.3,143.2,88.8,139.1,94.1,132.9z"/>
		<path id="_Tracciato_composto_32" class="st2" d="M78.1,180.9h-5.3v-37.7l0.5,0.6c8-1,15.3-5,20.5-11.1l0.7-0.8v22.9H78.1V180.9z
			 M73.6,180.1h3.8v-26.2h16.4V134c-5.3,5.8-12.4,9.5-20.1,10.6L73.6,180.1z"/>
	</g>
	<g id="_Gruppo_31">
		<rect id="_Tracciato_44" x="77.7" y="154.3" class="st5" width="16.4" height="26.2"/>
		<path id="_Tracciato_composto_33" class="st2" d="M94.5,180.9H77.3v-27h17.2L94.5,180.9z M78.1,180.1h15.6v-25.4H78.1V180.1z"/>
	</g>
	<g id="_Gruppo_32">
		<polygon id="_Tracciato_45" class="st4" points="271.7,163.3 271.7,180.5 248.6,180.5 248.6,171 		"/>
		<path id="_Tracciato_composto_34" class="st2" d="M272.1,180.9h-23.8v-10.1l23.8-8L272.1,180.9z M249.1,180.1h22.2v-16.2
			l-22.3,7.4L249.1,180.1z"/>
	</g>
	<polygon id="_Tracciato_46" class="st2" points="271.8,163.7 271.6,162.9 271.8,163.7 	"/>
	<rect id="_Tracciato_47" x="271.3" y="177.5" class="st6" width="0.8" height="1.9"/>
	<g id="_Gruppo_33">
		<rect id="_Tracciato_48" x="190.9" y="161.5" class="st2" width="1.5" height="18.9"/>
		<path id="_Tracciato_composto_35" class="st2" d="M192.7,180.9h-2.3v-19.7h2.3V180.9z M191.2,180.1h0.7v-18.2h-0.6L191.2,180.1z"
			/>
	</g>
	<g id="_Gruppo_34">
		<rect id="_Tracciato_49" x="211.4" y="161.5" class="st2" width="1.5" height="18.9"/>
		<path id="_Tracciato_composto_36" class="st2" d="M213.3,180.9H211v-19.7h2.2V180.9z M211.8,180.1h0.7v-18.2h-0.7V180.1z"/>
	</g>
	<g id="_Gruppo_35">
		<rect id="_Tracciato_50" x="230.5" y="161.5" class="st2" width="1.5" height="18.9"/>
		<path id="_Tracciato_composto_37" class="st2" d="M232.3,180.9h-2.3v-19.7h2.3V180.9z M230.9,180.1h0.7v-18.2h-0.7V180.1z"/>
	</g>
	<polygon id="_Tracciato_51" class="st2" points="271.7,183.8 271.7,183.8 271.7,183 	"/>
	<polygon id="_Tracciato_52" class="st2" points="271.7,186.5 271.7,186.5 271.7,185.8 	"/>
	<polygon id="_Tracciato_53" class="st2" points="168.3,188.9 167.5,188.9 167.5,185.8 172.5,185.8 172.5,186.5 168.3,186.5 	"/>
	<g id="_Gruppo_36">
		<path id="_Tracciato_54" class="st4" d="M163.6,74.5v22.2c-6.7,1-13.5,1.5-20.4,1.5h-16.4v-9c10.4-4.1,13.5-7.2,26.3-11.8
			C156.6,76.1,160.1,75.2,163.6,74.5z"/>
		<path id="_Tracciato_composto_38" class="st2" d="M144.1,98.6h-17.6v-9.7l0.3-0.1c3.8-1.5,7.5-3.2,11.2-5.1
			c4.9-2.6,9.9-4.8,15.1-6.7c3.4-1.2,7-2.1,10.5-2.8l0.5-0.1v23h-0.3C157.2,98,150.7,98.5,144.1,98.6z M127.3,97.8h16
			c6.7,0,13.4-0.5,20-1.4V75c-3.4,0.6-6.7,1.5-10,2.7c-5.1,1.9-10.2,4.1-15,6.6c-3.6,1.9-7.2,3.6-11,5.1V97.8z"/>
	</g>
	<path id="_Tracciato_composto_39" class="st3" d="M361,62.7l0.1,29.8h-7.3c0,0-1.5-9.3-12.3-9.6v21.9h36.7V62.7H361z M375,69.8v9.4
		h-10.6v-9.4c0,0-0.4-1.7,1.7-1.8c-0.3-1.5,0.6-3,2.2-3.4c0.3-0.1,0.6-0.1,0.8-0.1h1.3c1.6-0.1,2.9,1,3.1,2.6c0,0.3,0,0.6-0.1,0.8
		C375.4,68.1,375,69.8,375,69.8z"/>
	<polygon id="_Tracciato_55" class="st2" points="378.6,62.7 377.8,62.7 377.8,62.6 361.4,62.6 361.4,62.7 360.6,62.7 360.6,61.8 
		378.6,61.8 	"/>
	<rect id="_Tracciato_56" x="377.8" y="177.5" class="st2" width="0.8" height="2.6"/>
	<rect id="_Tracciato_57" x="358.6" y="59.1" class="st2" width="21.6" height="3.7"/>
	<g id="_Gruppo_37">
		<path id="_Tracciato_58" class="st5" d="M378,59.1h-17c0-0.7,8.3-20.5,8.3-20.5L378,59.1z"/>
		<path id="_Tracciato_composto_40" class="st2" d="M378.6,59.4h-18v-0.4c0-0.7,5.9-14.7,8.4-20.6l0.4-0.9L378.6,59.4z M361.6,58.7
			h15.9l-8.1-19.1C366.4,46.6,362.3,56.4,361.6,58.7z"/>
	</g>
	
		<rect id="_Tracciato_59" x="377.8" y="59" transform="matrix(0.9191 -0.3941 0.3941 0.9191 7.2428 153.8259)" class="st2" width="0.8" height="0.5"/>
	<path id="_Tracciato_composto_41" class="st2" d="M341.9,172h-8.6v-6.2h8.6L341.9,172z M334.1,171.2h7v-4.6h-7V171.2z M316.3,172
		h-8.6v-6.2h8.6L316.3,172z M314.6,171.2h0.9v-4.6h-0.2C315,168.2,314.8,169.8,314.6,171.2L314.6,171.2z M308.5,171.2h5.3
		c0.2-1.5,0.4-3.1,0.7-4.6h-6L308.5,171.2z M341.1,135.3h-32.6v-0.4c0-1.6,1.9-17.1,8.7-23.5c2-2,4.7-3,7.4-2.9l0,0
		c3-0.1,5.8,1.1,7.9,3.3c7.3,7.1,8.6,22.9,8.6,23L341.1,135.3z M309.3,134.5h31c-0.2-2.5-1.9-15.8-8.3-22.1c-1.9-1.9-4.4-3-7.1-3.1
		h-0.1c-2.6-0.2-5.2,0.8-7,2.6C311.5,117.9,309.5,131.7,309.3,134.5z"/>
	<g id="_Gruppo_38">
		<path id="_Tracciato_composto_42" class="st7" d="M308.1,79.2v63.1h33.5V79.2H308.1z M308.9,134.9c0-1.2,2.7-26.8,15.9-25.9h-0.1
			c13.4-0.3,16.1,24.7,16.1,25.9L308.9,134.9z"/>
		<path id="_Tracciato_composto_43" class="st2" d="M342,142.7h-34.3V78.8H342L342,142.7z M308.5,141.9h32.7V79.6h-32.7V141.9z
			 M341.1,135.3h-32.6v-0.4c0-1.6,1.9-17.1,8.7-23.5c2-2,4.7-3,7.4-2.9l0,0c3-0.1,5.8,1.1,7.9,3.3c7.3,7.1,8.6,22.9,8.6,23V135.3z
			 M309.3,134.5h31c-0.2-2.5-1.9-15.8-8.3-22.1c-1.9-1.9-4.4-3-7.1-3.1h-0.1c-2.6-0.2-5.2,0.8-7,2.6
			C311.5,117.9,309.5,131.7,309.3,134.5z"/>
	</g>
	<g id="_Gruppo_39">
		<path id="_Tracciato_60" class="st1" d="M314.1,171.6c-0.3,2.7-0.5,4.8-0.6,5.9h-5.5v-5.9H314.1z"/>
		<path id="_Tracciato_composto_44" class="st2" d="M313.9,177.9h-6.2v-6.7h6.9l-0.1,0.4c-0.3,2.5-0.5,4.6-0.6,5.9L313.9,177.9z
			 M308.5,177.1h4.7c0.1-1.2,0.2-3,0.5-5.1h-5.2L308.5,177.1z"/>
	</g>
	<g id="_Gruppo_40">
		<path id="_Tracciato_61" class="st1" d="M341.6,142.3v35.2h-4.9c-0.1-1.1-0.2-3.2-0.6-5.9h5.4v-5.4h-6.2
			c-1.5-8.4-4.6-18-10.3-17.8c-5.6-0.5-8.5,9.3-10.1,17.8h-6.9v-23.9H341.6z"/>
		<path id="_Tracciato_composto_45" class="st2" d="M342,177.9h-5.7v-0.4c-0.1-1.3-0.3-3.4-0.6-5.9l-0.1-0.4h5.5v-4.6h-6.2l-0.1-0.3
			c-1.5-8-4.3-17.4-9.7-17.4H325c-5.3-0.5-8.2,9.2-9.7,17.4l-0.1,0.3h-7.6v-24.7H342L342,177.9z M337,177.1h4.1V172h-4.6
			C336.8,174.1,337,175.9,337,177.1L337,177.1z M335.6,165.8h5.6v-23.1h-32.7v23.1h6.1c1.6-8.5,4.6-18.3,10.4-17.8
			C330.9,147.9,334,157.5,335.6,165.8L335.6,165.8z"/>
	</g>
	<g id="_Gruppo_41">
		<path id="_Tracciato_composto_46" class="st1" d="M308.1,51.5v24.6h33.5V51.5H308.1z"/>
		<path id="_Tracciato_composto_47" class="st2" d="M342,76.5h-34.3V51.1H342L342,76.5z M308.5,75.7h32.7V51.9h-32.7V75.7z"/>
	</g>
	<g id="_Gruppo_42">
		<path id="_Tracciato_62" class="st4" d="M378.3,180.1v8.9h-36.7v-8.9c0-0.2,0.1-1.1,0.3-2.6H378
			C378.2,178.9,378.3,179.8,378.3,180.1z"/>
		<path id="_Tracciato_composto_48" class="st2" d="M378.6,189.3h-37.4v-9.3c0-0.2,0.1-1.1,0.3-2.6v-0.3h36.8v0.3
			c0.2,1.4,0.3,2.4,0.3,2.6L378.6,189.3z M342,188.6h35.9v-8.5c0-0.2-0.1-0.9-0.2-2.1h-35.4c-0.2,1.3-0.2,2-0.2,2.1L342,188.6z"/>
	</g>
	<path id="_Tracciato_63" class="st2" d="M342,180.1h-0.8v-2.9h1.1l-0.1,0.4C342,179,342,179.9,342,180.1z"/>
	<path id="_Tracciato_64" class="st2" d="M378.6,180.1h-0.8c0-0.2-0.1-1-0.3-2.5l-0.1-0.4h1.1L378.6,180.1z"/>
	<path id="_Tracciato_65" class="st2" d="M272.1,179.4h-0.8v-2.3h1.1l-0.1,0.4C272.2,178.3,272.2,179,272.1,179.4z"/>
	<path id="_Tracciato_66" class="st2" d="M308.5,180.1h-0.8c0-0.2-0.1-1-0.3-2.5l-0.1-0.4h1.1V180.1z"/>
	<path id="_Tracciato_67" class="st2" d="M359.9,150.8h-0.1V150h0.1V150.8z"/>
	<g id="_Gruppo_43">
		<path id="_Tracciato_68" class="st2" d="M378,177.5h-36.1c1-7.4,5.3-27.9,17.9-27.2C372.7,150.1,376.9,170.2,378,177.5z"/>
		<path id="_Tracciato_composto_49" class="st2" d="M378.4,177.9h-37l0.1-0.4c0.9-6.6,5-28.3,18.3-27.5c13.7-0.3,17.7,21,18.6,27.5
			L378.4,177.9z M342.3,177.1h35.2c-0.8-5.4-4.8-26.7-17.7-26.4C347.1,150,343.1,171.6,342.3,177.1z"/>
	</g>
	<polygon id="_Tracciato_69" class="st2" points="325.1,148.9 325,148.9 325,148.1 325.1,148.1 	"/>
	<path id="_Tracciato_70" class="st2" d="M314.5,171.7l-0.8-0.1c0.2-1.8,0.5-3.6,0.8-5.4l0.8,0.1C315,168.1,314.7,169.9,314.5,171.7
		z"/>
	<path id="_Tracciato_71" class="st2" d="M313.9,178.2h-0.8c0-0.1,0-0.2,0-0.3v-0.4h0.8v0.4C313.9,178,313.9,178.1,313.9,178.2z"/>
	<g id="_Gruppo_44">
		<path id="_Tracciato_72" class="st2" d="M336.7,177.3h-23.1c0.1-1,0.2-3.2,0.6-5.8h1.8v-5.4h-0.9c1.5-8.4,4.5-18.1,10.1-17.6
			c5.7-0.2,8.7,9.3,10.3,17.6h-1.6v5.4h2.4C336.4,174.1,336.6,176.2,336.7,177.3z"/>
		<path id="_Tracciato_composto_50" class="st2" d="M337.1,177.6h-24v-0.4c0.1-1.3,0.3-3.4,0.6-5.9V171h1.7v-4.6h-1l0.1-0.5
			c1.5-8.5,4.6-18.4,10.5-17.9c6-0.2,9.1,9.6,10.6,17.9l0.1,0.5H334v4.6h2.4v0.3c0.3,2.5,0.5,4.6,0.6,5.9L337.1,177.6z M314,176.9
			h22.3c-0.1-1.2-0.2-3-0.5-5h-2.5v-6.2h1.5c-1.5-7.9-4.4-17-9.8-16.8c-5.2-0.5-8.1,8.8-9.6,16.8h0.9v6.2h-1.8
			C314.2,173.9,314.1,175.6,314,176.9z"/>
	</g>
	<path id="_Tracciato_73" class="st2" d="M336.3,171.7c-0.2-1.7-0.5-3.6-0.8-5.4l0.8-0.1c0.3,1.9,0.6,3.7,0.8,5.4L336.3,171.7z"/>
	<path id="_Tracciato_74" class="st2" d="M337.6,178.2h-0.8c0-0.1,0-0.1,0-0.3v-0.4h0.8v0.4C337.6,178,337.6,178.1,337.6,178.2z"/>
	<path id="_Tracciato_composto_51" class="st2" d="M354.7,133.3h-3.1v-0.4c0-0.1-0.1-10,0-13.1c0-0.6,0.9-0.9,1.6-0.8
		s1.5,0.3,1.5,0.9L354.7,133.3z M352.4,132.5h1.5v-12.6c-0.2-0.1-0.5-0.1-0.8-0.1c-0.3,0-0.5,0-0.8,0.1
		C352.3,122.8,352.4,130.7,352.4,132.5z M349.8,133.3h-3.1v-0.4c0-0.3-0.1-8.1,0-10.7l0,0c0-0.7,1.3-0.8,1.7-0.7
		c1.2,0,1.4,0.5,1.4,0.8L349.8,133.3z M347.5,132.5h1.5v-10.2c-0.5-0.1-1-0.1-1.5,0C347.4,124.7,347.5,130.9,347.5,132.5
		L347.5,132.5z"/>
	<path id="_Tracciato_composto_52" class="st8" d="M353.1,116.4H353c-9.5-0.5-11.5,17.8-11.5,18.7h23.1
		C364.7,134.2,362.8,116.3,353.1,116.4z M349.4,132.9h-2.3c0,0-0.1-8.1,0-10.7c0-0.5,2.3-0.5,2.3,0V132.9z M354.3,132.9H352
		c0,0-0.1-9.9,0-13.1c0-0.6,2.3-0.6,2.3,0V132.9z M356.5,132.9c0,0-0.1-8.1,0-10.7c0-0.5,2.3-0.5,2.3,0v10.7H356.5z"/>
	<g id="_Gruppo_45">
		<path id="_Tracciato_75" class="st5" d="M340.8,134.9h-31.9c0-1.2,2.7-26.8,15.9-25.9h-0.1C338.1,108.7,340.8,133.7,340.8,134.9z"
			/>
		<path id="_Tracciato_composto_53" class="st2" d="M341.1,135.3h-32.6v-0.4c0-1.6,1.9-17.1,8.7-23.5c2-2,4.7-3,7.4-2.9l0,0
			c3-0.1,5.9,1.1,7.9,3.3c7.3,7.1,8.6,22.9,8.6,23V135.3z M309.3,134.5h31c-0.2-2.5-1.9-15.8-8.3-22.1c-1.9-1.9-4.4-3-7.1-3.1h-0.1
			c-2.6-0.2-5.2,0.8-7,2.6C311.5,117.9,309.5,131.7,309.3,134.5z"/>
	</g>
	<path id="_Tracciato_76" class="st2" d="M335.4,134.8h-21.1c0-0.9,1.8-19,10.5-18.4h-0.1C333.6,116.1,335.4,133.9,335.4,134.8z"/>
	<g id="_Gruppo_46">
		<polygon id="_Tracciato_77" class="st5" points="358,104.8 352,109.3 346.4,104.8 		"/>
		<path id="_Tracciato_composto_54" class="st2" d="M351.9,109.8l-6.6-5.4h13.9L351.9,109.8z M347.5,105.2l4.4,3.6l4.9-3.6H347.5z"
			/>
	</g>
	<g id="_Gruppo_47">
		<polygon id="_Tracciato_78" class="st9" points="378.2,105.8 378.2,109.7 342.1,109.7 346.9,104.8 352.3,109.3 358.3,104.8 
			363.8,109.2 369.3,105.3 374.1,109 		"/>
		<path id="_Tracciato_composto_55" class="st2" d="M378.6,110.1h-37.4l5.7-5.8l5.5,4.6l6-4.5l5.5,4.5l5.5-4l4.8,3.7l4.6-3.5V110.1z
			 M374.4,109.3h3.5v-2.7L374.4,109.3z M364.4,109.3h9.4l-4.5-3.5L364.4,109.3z M353.1,109.3h10.2l-4.9-4L353.1,109.3z M343.1,109.3
			h8.6l-4.7-4L343.1,109.3z"/>
	</g>
	<g id="_Gruppo_48">
		<path id="_Tracciato_79" class="st2" d="M375,69.8v9.4h-10.6v-9.4c0,0-0.4-1.7,1.7-1.8c-0.3-1.5,0.6-3,2.2-3.4
			c0.3-0.1,0.6-0.1,0.8-0.1h1.3c1.6-0.1,2.9,1,3.1,2.6c0,0.3,0,0.6-0.1,0.8C375.4,68.1,375,69.8,375,69.8z"/>
		<path id="_Tracciato_composto_56" class="st2" d="M375.4,79.6h-11.4v-9.8c-0.1-0.5,0-1.1,0.3-1.5c0.3-0.4,0.8-0.7,1.3-0.7
			c-0.1-0.9,0.2-1.7,0.7-2.4c0.7-0.8,1.7-1.2,2.7-1.1h1.3c1-0.1,2,0.3,2.7,1.1c0.5,0.7,0.8,1.5,0.7,2.4c0.5,0.1,1,0.3,1.3,0.7
			c0.3,0.4,0.4,1,0.3,1.5L375.4,79.6z M364.9,78.8h9.8v-9.1c0.1-0.3,0-0.6-0.2-0.9c-0.3-0.3-0.7-0.5-1.1-0.5h-0.4l0.1-0.4
			c0.1-0.8-0.1-1.5-0.5-2.2c-0.5-0.6-1.3-0.9-2.1-0.8h-1.3c-0.8,0-1.5,0.2-2.1,0.8c-0.4,0.6-0.6,1.4-0.5,2.2l0.1,0.4h-0.4
			c-0.4,0-0.8,0.2-1.1,0.5c-0.2,0.3-0.3,0.6-0.2,0.9L364.9,78.8L364.9,78.8z"/>
	</g>
	<polygon id="_Tracciato_80" class="st2" points="364.5,79.6 364.4,79.6 364.4,78.8 	"/>
	<polygon id="_Tracciato_81" class="st2" points="375.1,79.6 375,79.6 375,78.8 	"/>
	<g id="_Gruppo_49">
		<path id="_Tracciato_82" class="st2" d="M349.4,122.3v10.7h-2.3c0,0-0.1-8.1,0-10.7C347.1,121.8,349.4,121.8,349.4,122.3z"/>
		<path id="_Tracciato_composto_57" class="st2" d="M349.8,133.3h-3.1v-0.4c0-0.3-0.1-8.1,0-10.7c0-0.7,1.3-0.8,1.7-0.7
			c1.2,0,1.4,0.5,1.4,0.8L349.8,133.3z M347.5,132.5h1.5v-10.2c-0.5-0.1-1-0.1-1.5,0C347.4,124.7,347.5,130.9,347.5,132.5
			L347.5,132.5z"/>
	</g>
	<g id="_Gruppo_50">
		<path id="_Tracciato_83" class="st2" d="M354.3,119.9v13.1H352c0,0-0.1-9.9,0-13.1C352,119.3,354.3,119.2,354.3,119.9z"/>
		<path id="_Tracciato_composto_58" class="st2" d="M354.7,133.3h-3.1v-0.4c0-0.1-0.1-10,0-13.1c0-0.6,0.9-0.9,1.6-0.8
			s1.5,0.3,1.5,0.9L354.7,133.3z M352.4,132.5h1.5v-12.6c-0.2-0.1-0.5-0.1-0.8-0.1c-0.3,0-0.5,0-0.8,0.1
			C352.3,122.8,352.4,130.7,352.4,132.5z"/>
	</g>
	<g id="_Gruppo_51">
		<path id="_Tracciato_84" class="st2" d="M358.9,122.3v10.7h-2.3c0,0-0.1-8.1,0-10.7C356.6,121.8,358.9,121.8,358.9,122.3z"/>
		<path id="_Tracciato_composto_59" class="st2" d="M359.3,133.3h-3.1v-0.4c0-0.3-0.1-8.1,0-10.7c0-0.7,1.2-0.8,1.7-0.7
			c0.9,0,1.4,0.3,1.4,0.8L359.3,133.3z M356.9,132.5h1.5v-10.2c-0.5-0.1-1-0.1-1.5,0C356.8,124.7,356.9,130.9,356.9,132.5
			L356.9,132.5z"/>
	</g>
	<polygon id="_Tracciato_85" class="st2" points="271.7,189.3 271.7,189.3 271.7,188.5 	"/>
	
		<rect id="_Tracciato_86" x="271.5" y="58.8" transform="matrix(0.3554 -0.9347 0.9347 0.3554 119.7998 292.177)" class="st2" width="0.5" height="0.8"/>
	<path id="_Tracciato_87" class="st2" d="M272.1,189.3h-0.8v-0.4v-11.8h1.1l-0.1,0.4c-0.1,0.8-0.2,1.4-0.2,1.9L272.1,189.3z"/>
	<path id="_Tracciato_88" class="st2" d="M308.5,180.1h-0.8c0-0.2-0.1-1-0.3-2.5l-0.1-0.4h1.1V180.1z"/>
	<path id="_Tracciato_89" class="st2" d="M272.1,180h-0.8c0-0.1,0-0.3,0-0.7l0.8,0.1C272.1,179.8,272.1,179.9,272.1,180z"/>
	
		<rect id="_Tracciato_90" x="270.5" y="104.5" transform="matrix(0.6341 -0.7733 0.7733 0.6341 17.8713 247.8979)" class="st2" width="0.8" height="1.1"/>
	<polygon id="_Tracciato_91" class="st2" points="274.6,79.6 274.6,79.6 274.6,78.8 	"/>
	<g id="_Gruppo_52">
		<rect id="_Tracciato_92" x="308.1" y="76.1" class="st2" width="33.5" height="3.1"/>
		<path id="_Tracciato_composto_60" class="st2" d="M342,79.6h-34.3v-3.9H342L342,79.6z M308.5,78.8h32.7v-2.3h-32.7V78.8z"/>
	</g>
	<g id="_Gruppo_53">
		<rect id="_Tracciato_93" x="303.2" y="76.1" class="st2" width="4.9" height="3.1"/>
		<path id="_Tracciato_composto_61" class="st2" d="M308.5,79.6h-5.6v-3.9h5.6V79.6z M303.6,78.8h4.1v-2.3h-4.1V78.8z"/>
	</g>
	<g id="_Gruppo_54">
		<rect id="_Tracciato_94" x="341.6" y="76.1" class="st2" width="4.1" height="3.1"/>
		<path id="_Tracciato_composto_62" class="st2" d="M346.1,79.6h-4.9v-3.9h4.9V79.6z M342,78.8h3.3v-2.3H342L342,78.8z"/>
	</g>
	<g id="_Gruppo_55">
		<path id="_Tracciato_95" class="st2" d="M328.6,70.6c0,1.9-1.6,3.5-3.5,3.5s-3.5-1.6-3.5-3.5c0-1.9,1.6-3.5,3.5-3.5c0,0,0,0,0,0
			C327,67.1,328.6,68.7,328.6,70.6z"/>
		<path id="_Tracciato_composto_63" class="st2" d="M325.1,74.5c-2.2,0-3.9-1.8-3.9-3.9c0-2.2,1.8-3.9,3.9-3.9
			c2.2,0,3.9,1.7,3.9,3.9C329,72.8,327.3,74.5,325.1,74.5C325.1,74.5,325.1,74.5,325.1,74.5z M325.1,67.5c-1.7,0-3.1,1.4-3.1,3.2
			c0,1.7,1.4,3.1,3.2,3.1c1.7,0,3.1-1.4,3.1-3.1C328.3,68.9,326.9,67.5,325.1,67.5C325.1,67.5,325.1,67.5,325.1,67.5L325.1,67.5z"/>
	</g>
	<path id="_Tracciato_composto_64" class="st10" d="M325.1,81.9c-5.3,0-9.5,4.3-9.5,9.5c0,5.3,4.3,9.5,9.5,9.5
		c5.3,0,9.5-4.3,9.5-9.5C334.6,86.2,330.4,81.9,325.1,81.9z M325.1,95.5c-2.2,0-4-1.8-4-4s1.8-4,4-4s4,1.8,4,4
		S327.3,95.4,325.1,95.5z"/>
	<g id="_Gruppo_56">
		<path id="_Tracciato_96" class="st2" d="M329.1,91.4c0,2.2-1.8,4-4,4s-4-1.8-4-4s1.8-4,4-4S329.1,89.2,329.1,91.4z"/>
		<path id="_Tracciato_composto_65" class="st2" d="M325.1,95.8c-2.4,0-4.4-2-4.4-4.4s2-4.4,4.4-4.4c2.4,0,4.4,2,4.4,4.4
			C329.5,93.9,327.5,95.8,325.1,95.8z M325.1,87.8c-2,0-3.6,1.6-3.6,3.6s1.6,3.6,3.6,3.6c2,0,3.6-1.6,3.6-3.6
			C328.8,89.4,327.1,87.8,325.1,87.8C325.1,87.8,325.1,87.8,325.1,87.8L325.1,87.8z"/>
	</g>
	<path id="_Tracciato_composto_66" class="st2" d="M342,142.7h-34.3v-8H342L342,142.7z M308.5,141.9h32.7v-6.4h-32.7V141.9z"/>
	<rect id="_Tracciato_97" x="307.9" y="135.1" class="st2" width="0.8" height="7.2"/>
	<rect id="_Tracciato_98" x="313.1" y="134.9" class="st2" width="0.8" height="7.2"/>
	<rect id="_Tracciato_99" x="310.4" y="134.9" class="st2" width="0.8" height="7.2"/>
	<rect id="_Tracciato_100" x="316.1" y="134.9" class="st2" width="0.8" height="7.2"/>
	<rect id="_Tracciato_101" x="318.9" y="135.1" class="st2" width="0.8" height="7.2"/>
	<rect id="_Tracciato_102" x="321.9" y="135.1" class="st2" width="0.8" height="7.2"/>
	<rect id="_Tracciato_103" x="324.9" y="134.9" class="st2" width="0.8" height="7.2"/>
	<rect id="_Tracciato_104" x="327.5" y="134.7" class="st2" width="0.8" height="7.2"/>
	<rect id="_Tracciato_105" x="330.5" y="134.7" class="st2" width="0.8" height="7.2"/>
	<rect id="_Tracciato_106" x="333.1" y="135.1" class="st2" width="0.8" height="7.2"/>
	<rect id="_Tracciato_107" x="335.9" y="134.9" class="st2" width="0.8" height="7.2"/>
	<rect id="_Tracciato_108" x="338.6" y="135.1" class="st2" width="0.8" height="7.2"/>
	<g id="_Gruppo_57">
		<rect id="_Tracciato_109" x="308.1" y="166.2" class="st4" width="7.8" height="5.4"/>
		<path id="_Tracciato_composto_67" class="st2" d="M316.3,172h-8.6v-6.2h8.6V172z M308.5,171.2h7v-4.6h-7V171.2z"/>
	</g>
	<g id="_Gruppo_58">
		<rect id="_Tracciato_110" x="334.5" y="166.2" class="st4" width="7" height="5.4"/>
		<path id="_Tracciato_composto_68" class="st2" d="M341.9,172h-7.8v-6.2h7.8V172z M334.9,171.2h6.2v-4.6h-6.2V171.2z"/>
	</g>
	<polygon id="_Tracciato_111" class="st2" points="316.2,51.1 315.4,51 316.9,39.8 319.9,36.1 320.5,36.6 317.7,40.1 	"/>
	<polygon id="_Tracciato_112" class="st2" points="334,51.1 332.5,40.1 329.7,36.6 330.3,36.1 333.3,39.8 334.8,51 	"/>
	<g id="_Gruppo_59">
		<path id="_Tracciato_113" class="st2" d="M330.9,43.7h-11.6l1.7-13c0-2.3,1.9-4.2,4.2-4.2c2.3,0,4.2,1.9,4.2,4.2l0.6,5.7
			L330.9,43.7z"/>
		<path id="_Tracciato_composto_69" class="st2" d="M331.3,44.1h-12.5l1.8-13.5c0-2.6,2.1-4.6,4.6-4.6c2.6,0,4.6,2.1,4.6,4.6l0,0
			L331.3,44.1z M319.7,43.3h10.7L329,30.8c0.1-2.1-1.5-3.9-3.6-4s-3.9,1.5-4,3.6c0,0.1,0,0.3,0,0.4L319.7,43.3z"/>
	</g>
	<rect id="_Tracciato_114" x="324.8" y="22.4" class="st2" width="0.8" height="4"/>
	<path id="_Tracciato_composto_70" class="st2" d="M325.2,22.7c-0.8,0-1.5-0.7-1.5-1.5s0.7-1.5,1.5-1.5c0.8,0,1.5,0.7,1.5,1.5
		C326.7,22,326,22.6,325.2,22.7z M325.2,20.5c-0.4,0-0.7,0.3-0.7,0.7c0,0.4,0.3,0.7,0.7,0.7c0.4,0,0.7-0.3,0.7-0.7c0,0,0,0,0,0
		C325.9,20.8,325.6,20.5,325.2,20.5z"/>
	<g id="_Gruppo_60">
		<rect id="_Tracciato_115" x="446.4" y="118.7" class="st5" width="14.2" height="45.4"/>
		<path id="_Tracciato_composto_71" class="st2" d="M461,164.5h-15v-46.1h15V164.5z M446.8,163.8h13.5v-44.6h-13.5V163.8z"/>
	</g>
	<g id="_Gruppo_61">
		<rect id="_Tracciato_116" x="394.5" y="118.7" class="st5" width="14.1" height="45.4"/>
		<path id="_Tracciato_composto_72" class="st2" d="M409,164.5h-14.9v-46.1H409V164.5z M394.9,163.8h13.3v-44.6h-13.3V163.8z"/>
	</g>
	<g id="_Gruppo_62">
		<rect id="_Tracciato_117" x="464.3" y="118.7" class="st5" width="13.7" height="45.4"/>
		<path id="_Tracciato_composto_73" class="st2" d="M478.4,164.5h-14.5v-46.1h14.5V164.5z M464.7,163.8h12.9v-44.6h-12.9V163.8z"/>
	</g>
	<g id="_Gruppo_63">
		<rect id="_Tracciato_118" x="464.3" y="89" class="st9" width="13.7" height="20.7"/>
		<path id="_Tracciato_composto_74" class="st2" d="M478.4,110.1h-14.5V88.6h14.5V110.1z M464.7,109.3h12.9V89.4h-12.9L464.7,109.3z
			"/>
	</g>
	<path id="_Tracciato_composto_75" class="st2" d="M482.1,164.5h-4.5V80.6h4.5V164.5z M478.4,163.7h2.9V81.4h-2.9L478.4,163.7z
		 M464.7,164.5h-4.5V80.6h4.5V164.5z M461,163.7h2.9V81.4H461V163.7z M446.8,164.5h-4.5V80.6h4.5V164.5z M443.1,163.7h2.9V81.4h-2.9
		V163.7z M429.1,164.5h-4.5V80.6h4.5V164.5z M425.4,163.7h2.9V81.4h-2.9V163.7z M412.7,164.5h-4.5V80.6h4.5L412.7,164.5z M409,163.7
		h2.9V81.4H409V163.7z M394.9,164.5h-4.5V80.6h4.5V164.5z M391.2,163.7h2.9V81.4h-2.9L391.2,163.7z M379.6,110.1h-2v-5.7h2V110.1z
		 M378.4,109.3h0.4v-4.1h-0.4V109.3z M380.1,63.1h-2.5v-4.4h2.5L380.1,63.1z M378.4,62.3h1v-2.9h-1V62.3z"/>
	<g id="_Gruppo_64">
		<polygon id="_Tracciato_119" class="st5" points="378.2,104.8 378.2,105.8 374,109 369.1,105.3 363.6,109.2 358,104.8 		"/>
		<path id="_Tracciato_composto_76" class="st2" d="M363.6,109.8l-6.7-5.4h21.7v1.6l-4.6,3.5l-4.9-3.8L363.6,109.8z M359.2,105.2
			l4.5,3.6l5-3.6H359.2z M369.7,105.2l4.3,3.3l3.8-2.9v-0.4L369.7,105.2z"/>
	</g>
	<g id="_Gruppo_65">
		<rect id="_Tracciato_120" x="464.3" y="81" class="st4" width="13.7" height="8"/>
		<path id="_Tracciato_composto_77" class="st2" d="M478.4,89.4h-14.5v-8.8h14.5V89.4z M464.7,88.6h12.9v-7.2h-12.9L464.7,88.6z"/>
	</g>
	<g id="_Gruppo_66">
		<rect id="_Tracciato_121" x="446.4" y="81" class="st4" width="14.2" height="8"/>
		<path id="_Tracciato_composto_78" class="st2" d="M461,89.4h-15v-8.8h15V89.4z M446.8,88.6h13.5v-7.2h-13.5V88.6z"/>
	</g>
	<g id="_Gruppo_67">
		<rect id="_Tracciato_122" x="428.7" y="81" class="st4" width="13.9" height="8"/>
		<path id="_Tracciato_composto_79" class="st2" d="M443.1,89.4h-14.7v-8.8h14.7L443.1,89.4z M429.1,88.6h13.2v-7.2h-13.2V88.6z"/>
	</g>
	<g id="_Gruppo_68">
		<rect id="_Tracciato_123" x="412.3" y="81" class="st4" width="12.8" height="8"/>
		<path id="_Tracciato_composto_80" class="st2" d="M425.4,89.4h-13.5v-8.8h13.5L425.4,89.4z M412.7,88.6h12v-7.2h-12V88.6z"/>
	</g>
	<g id="_Gruppo_69">
		<rect id="_Tracciato_124" x="394.5" y="81" class="st4" width="14.1" height="8"/>
		<path id="_Tracciato_composto_81" class="st2" d="M409,89.4h-14.9v-8.8H409V89.4z M394.9,88.6h13.3v-7.2h-13.3V88.6z"/>
	</g>
	<g id="_Gruppo_70">
		<rect id="_Tracciato_125" x="394.5" y="109.7" class="st4" width="14.1" height="9.1"/>
		<path id="_Tracciato_composto_82" class="st2" d="M409,119.1h-14.9v-9.9H409V119.1z M394.9,118.3h13.3v-8.3h-13.3V118.3z"/>
	</g>
	<g id="_Gruppo_71">
		<rect id="_Tracciato_126" x="464.3" y="109.7" class="st4" width="13.7" height="9.1"/>
		<path id="_Tracciato_composto_83" class="st2" d="M478.4,119.1h-14.5v-9.9h14.5V119.1z M464.7,118.3h12.9v-8.3h-12.9L464.7,118.3z
			"/>
	</g>
	<g id="_Gruppo_72">
		<polygon id="_Tracciato_127" class="st4" points="494.6,49 494.6,164.1 481.7,164.1 481.7,81 390.8,81 390.8,164.1 378,164.1 
			378,109.7 379.2,109.7 379.2,104.8 378,104.8 378,62.7 379.7,62.7 379.7,59.1 378,59.1 378,49 		"/>
		<path id="_Tracciato_composto_84" class="st2" d="M495,164.5h-13.8V81.4h-90.1v83.1h-13.6v-55.2h1.2v-4.1h-1.2V62.3h1.8v-2.9h-1.8
			V48.7H495V164.5z M482.1,163.8h12.2V49.4H378.4v9.2h1.8v4.4h-1.8v41.3h1.2v5.7h-1.2v53.7h12V80.6h91.7L482.1,163.8z"/>
	</g>
	<rect id="_Tracciato_128" x="390.8" y="81" class="st2" width="3.7" height="83.1"/>
	<rect id="_Tracciato_129" x="408.6" y="81" class="st2" width="3.7" height="83.1"/>
	<rect id="_Tracciato_130" x="425" y="81" class="st2" width="3.7" height="83.1"/>
	<rect id="_Tracciato_131" x="442.7" y="81" class="st2" width="3.7" height="83.1"/>
	<rect id="_Tracciato_132" x="460.6" y="81" class="st2" width="3.7" height="83.1"/>
	<rect id="_Tracciato_133" x="478" y="81" class="st2" width="3.7" height="83.1"/>
	<rect id="_Tracciato_134" x="478" y="109.3" class="st2" width="1.5" height="0.8"/>
	<rect id="_Tracciato_135" x="442.7" y="109.3" class="st2" width="3.7" height="0.8"/>
	<rect id="_Tracciato_136" x="408.6" y="109.3" class="st2" width="3.7" height="0.8"/>
	<rect id="_Tracciato_137" x="393.7" y="109.3" class="st2" width="0.8" height="0.8"/>
	<rect id="_Tracciato_138" x="425" y="109.3" class="st2" width="3.7" height="0.8"/>
	<rect id="_Tracciato_139" x="460.6" y="109.3" class="st2" width="3.7" height="0.8"/>
	<rect id="_Tracciato_140" x="478" y="88.6" class="st2" width="1.5" height="0.8"/>
	<g id="_Gruppo_73">
		<rect id="_Tracciato_141" x="446.4" y="89" class="st9" width="14.2" height="20.7"/>
		<path id="_Tracciato_composto_85" class="st2" d="M461,110.1h-15V88.6h15V110.1z M446.8,109.3h13.5V89.4h-13.5V109.3z"/>
	</g>
	<g id="_Gruppo_74">
		<rect id="_Tracciato_142" x="428.7" y="89" class="st9" width="13.9" height="20.7"/>
		<path id="_Tracciato_composto_86" class="st2" d="M443.1,110.1h-14.7V88.6h14.7L443.1,110.1z M429.1,109.3h13.2V89.4h-13.2V109.3z
			"/>
	</g>
	<g id="_Gruppo_75">
		<rect id="_Tracciato_143" x="428.7" y="109.7" class="st4" width="13.9" height="9.1"/>
		<path id="_Tracciato_composto_87" class="st2" d="M443.1,119.1h-14.7v-9.9h14.7L443.1,119.1z M429.1,118.3h13.2v-8.3h-13.2V118.3z
			"/>
	</g>
	<rect id="_Tracciato_144" x="442.7" y="88.6" class="st2" width="3.7" height="0.8"/>
	<g id="_Gruppo_76">
		<rect id="_Tracciato_145" x="412.3" y="89" class="st9" width="12.8" height="20.7"/>
		<path id="_Tracciato_composto_88" class="st2" d="M425.4,110.1h-13.5V88.6h13.5L425.4,110.1z M412.7,109.3h12V89.4h-12V109.3z"/>
	</g>
	<g id="_Gruppo_77">
		<rect id="_Tracciato_146" x="394.5" y="89" class="st9" width="14.1" height="20.7"/>
		<path id="_Tracciato_composto_89" class="st2" d="M409,110.1h-14.9V88.6H409V110.1z M394.9,109.3h13.3V89.4h-13.3V109.3z"/>
	</g>
	<rect id="_Tracciato_147" x="408.6" y="88.6" class="st2" width="3.7" height="0.8"/>
	<rect id="_Tracciato_148" x="393.7" y="88.6" class="st2" width="0.8" height="0.8"/>
	<g id="_Gruppo_78">
		<rect id="_Tracciato_149" x="412.3" y="109.7" class="st4" width="12.8" height="9.1"/>
		<path id="_Tracciato_composto_90" class="st2" d="M425.4,119.1h-13.5v-9.9h13.5L425.4,119.1z M412.7,118.3h12v-8.3h-12V118.3z"/>
	</g>
	<rect id="_Tracciato_150" x="425" y="88.6" class="st2" width="3.7" height="0.8"/>
	<g id="_Gruppo_79">
		<rect id="_Tracciato_151" x="446.4" y="109.7" class="st4" width="14.2" height="9.1"/>
		<path id="_Tracciato_composto_91" class="st2" d="M461,119.1h-15v-9.9h15V119.1z M446.8,118.3h13.5v-8.3h-13.5V118.3z"/>
	</g>
	<rect id="_Tracciato_152" x="460.6" y="88.6" class="st2" width="3.7" height="0.8"/>
	<rect id="_Tracciato_153" x="460.6" y="118.4" class="st2" width="3.7" height="0.8"/>
	<rect id="_Tracciato_154" x="478" y="118.4" class="st2" width="1.5" height="0.8"/>
	<g id="_Gruppo_80">
		<rect id="_Tracciato_155" x="428.7" y="118.7" class="st5" width="13.9" height="45.4"/>
		<path id="_Tracciato_composto_92" class="st2" d="M443.1,164.5h-14.7v-46.1h14.7L443.1,164.5z M429.1,163.8h13.2v-44.6h-13.2
			V163.8z"/>
	</g>
	<g id="_Gruppo_81">
		<rect id="_Tracciato_156" x="412.3" y="118.7" class="st5" width="12.8" height="45.4"/>
		<path id="_Tracciato_composto_93" class="st2" d="M425.4,164.5h-13.5v-46.1h13.5L425.4,164.5z M412.7,163.8h12v-44.6h-12V163.8z"
			/>
	</g>
	<rect id="_Tracciato_157" x="425" y="118.4" class="st2" width="3.7" height="0.8"/>
	<rect id="_Tracciato_158" x="393.7" y="118.4" class="st2" width="0.8" height="0.8"/>
	<rect id="_Tracciato_159" x="408.6" y="118.4" class="st2" width="3.7" height="0.8"/>
	<rect id="_Tracciato_160" x="442.7" y="118.4" class="st2" width="3.7" height="0.8"/>
	<g id="_Gruppo_82">
		<rect id="_Tracciato_161" x="399" y="172" class="st4" width="73.5" height="4.5"/>
		<path id="_Tracciato_composto_94" class="st2" d="M472.9,176.9h-74.3v-5.3h74.3V176.9z M399.4,176.1h72.7v-3.7h-72.7L399.4,176.1z
			"/>
	</g>
	<g id="_Gruppo_83">
		<rect id="_Tracciato_162" x="399" y="167.6" class="st4" width="73.5" height="4.5"/>
		<path id="_Tracciato_composto_95" class="st2" d="M472.9,172.4h-74.3v-5.3h74.3V172.4z M399.4,171.7h72.7V168h-72.7L399.4,171.7z"
			/>
	</g>
	<g id="_Gruppo_84">
		<rect id="_Tracciato_163" x="399" y="164.1" class="st4" width="73.5" height="3.4"/>
		<path id="_Tracciato_composto_96" class="st2" d="M472.9,167.9h-74.3v-4.2h74.3V167.9z M399.4,167.2h72.7v-2.7h-72.7L399.4,167.2z
			"/>
	</g>
	<polygon id="_Tracciato_164" class="st2" points="399.4,176.9 398.6,176.9 398.6,176.5 398.6,163.7 399.4,163.7 399.4,164.1 	"/>
	<g id="_Gruppo_85">
		<rect id="_Tracciato_165" x="391.9" y="184.6" class="st4" width="88.8" height="4.4"/>
		<path id="_Tracciato_composto_97" class="st2" d="M481.1,189.4h-89.6v-5.2h89.6V189.4z M392.3,188.6h88V185h-88V188.6z"/>
	</g>
	<g id="_Gruppo_86">
		<rect id="_Tracciato_166" x="391.9" y="180.1" class="st4" width="88.8" height="4.5"/>
		<path id="_Tracciato_composto_98" class="st2" d="M481.1,185h-89.6v-5.3h89.6V185z M392.3,184.2h88v-3.7h-88V184.2z"/>
	</g>
	<g id="_Gruppo_87">
		<polygon id="_Tracciato_167" class="st4" points="485.9,176.5 485.9,177 480.7,177 480.7,180.1 391.9,180.1 391.9,177 386.2,177 
			386.2,176.5 		"/>
		<path id="_Tracciato_composto_99" class="st2" d="M481.1,180.5h-89.6v-3h-5.7v-1.3h100.5v1.3h-5.3V180.5z M392.3,179.7h88v-2.8
			h-88V179.7z"/>
	</g>
	<path id="_Tracciato_composto_100" class="st2" d="M392.3,189.4h-6.5v-12.7h6.5V189.4z M386.5,188.6h4.9v-11.1h-4.9L386.5,188.6z"
		/>
	<path id="_Tracciato_composto_101" class="st2" d="M486.3,189.4h-6v-12.7h6V189.4z M481.1,188.6h4.5v-11.1h-4.5V188.6z"/>
	<rect id="_Tracciato_168" x="386.2" y="164.1" class="st2" width="12.8" height="12.4"/>
	<rect id="_Tracciato_169" x="472.6" y="164.1" class="st2" width="14" height="12.4"/>
	<rect id="_Tracciato_170" x="480.7" y="177" class="st2" width="14.5" height="12.4"/>
	<g id="_Gruppo_88">
		<path id="_Tracciato_171" class="st1" d="M378.3,109.7v67.9H378c-1-7.3-5.2-27.5-18.2-27.2c-12.6-0.7-16.9,19.8-17.9,27.2h-0.3
			v-42.4h23.1c0-0.9-1.9-18.8-11.6-18.7h-0.1c-9.5-0.5-11.5,17.8-11.5,18.7v-25.4H378.3z"/>
		<path id="_Tracciato_composto_102" class="st2" d="M378.6,177.9h-1v-0.3c-0.6-4.5-4.4-26.8-17.5-26.8h-0.3
			c-13-0.8-16.9,22.2-17.5,26.8v0.3h-1v-68.7h37.4L378.6,177.9z M360.1,149.9c11.7,0,16.2,16,17.8,24.4v-64.2H342v20
			c0.8-3.9,2.5-9,5.5-11.9c1.5-1.5,3.5-2.3,5.6-2.1h0.1c2.2,0,4.3,0.9,5.8,2.5c5.2,5.2,6.2,16.6,6.2,16.7v0.4H342v38.8
			c1.6-8.6,6.1-25,17.8-24.4L360.1,149.9z M342,134.7h22.3c-0.2-2.2-1.6-11.4-5.9-15.7c-1.3-1.4-3.2-2.2-5.1-2.2h-0.2
			c-1.9-0.1-3.7,0.6-5,1.9C343.7,122.9,342.2,132.4,342,134.7L342,134.7z"/>
	</g>
	<path id="_Tracciato_composto_103" class="st3" d="M271.4,62.7v42.1h36.6V82.8c-10.9,0.4-12.3,9.6-12.3,9.6h-7.3l0.1-29.8H271.4z
		 M276.3,68c-0.3-1.5,0.6-3,2.2-3.4c0.3-0.1,0.6-0.1,0.8-0.1h1.3c1.6-0.1,2.9,1,3.1,2.6c0,0.3,0,0.6-0.1,0.8c2,0.1,1.7,1.8,1.7,1.8
		v9.4h-10.6v-9.4C274.6,69.8,274.3,68.1,276.3,68z"/>
	<polygon id="_Tracciato_172" class="st2" points="289,62.7 288.2,62.7 288.2,62.6 271.8,62.6 271.8,62.7 271,62.7 271,61.8 
		289,61.8 	"/>
	<rect id="_Tracciato_173" x="269.5" y="59.1" class="st2" width="21.6" height="3.7"/>
	<g id="_Gruppo_89">
		<path id="_Tracciato_174" class="st5" d="M271.6,59.1h17c0-0.7-8.3-20.5-8.3-20.5L271.6,59.1z"/>
		<path id="_Tracciato_composto_104" class="st2" d="M289,59.4h-18l9.2-21.9l0.4,0.9c2.5,6,8.4,20,8.4,20.6L289,59.4z M272.2,58.7
			h15.9c-0.8-2.2-4.9-12-7.8-19.1L272.2,58.7z"/>
	</g>
	<g id="_Gruppo_90">
		<path id="_Tracciato_175" class="st4" d="M271.4,180.1v8.9h36.6v-8.9c0-0.2-0.1-1.1-0.3-2.6h-36.1
			C271.5,178.9,271.4,179.8,271.4,180.1z"/>
		<path id="_Tracciato_composto_105" class="st2" d="M308.5,189.3H271v-9.3c0-0.2,0.1-1.1,0.3-2.6v-0.3h36.8v0.3
			c0.2,1.5,0.3,2.4,0.3,2.6L308.5,189.3z M271.8,188.6h35.9v-8.5c0-0.2-0.1-0.9-0.2-2.1H272c-0.2,1.3-0.2,2-0.2,2.1L271.8,188.6z"/>
	</g>
	<path id="_Tracciato_176" class="st2" d="M289.8,150.8V150h0.2v0.8H289.8z"/>
	<g id="_Gruppo_91">
		<path id="_Tracciato_177" class="st2" d="M271.7,177.5h36.1c-1-7.4-5.3-27.9-17.9-27.2C276.9,150.1,272.7,170.2,271.7,177.5z"/>
		<path id="_Tracciato_composto_106" class="st2" d="M308.3,177.9h-37l0.1-0.4c0.9-6.5,4.9-27.8,18.6-27.5
			c13.3-0.7,17.3,20.9,18.3,27.5L308.3,177.9z M272.2,177.1h35.2c-0.8-5.5-4.8-27.1-17.4-26.4C276.9,150.4,273,171.8,272.2,177.1
			L272.2,177.1z"/>
	</g>
	<path id="_Tracciato_composto_107" class="st2" d="M303,133.3h-3.1v-11.1c0-0.3,0.2-0.7,1.4-0.8c0.4,0,1.7,0,1.7,0.7
		c0.1,2.6,0,10.4,0,10.7L303,133.3z M300.6,132.5h1.5c0-1.6,0.1-7.9,0-10.1c-0.5-0.1-1-0.1-1.5,0V132.5z M298,133.3h-3.1v-13.5
		c0-0.5,0.5-0.8,1.5-0.9s1.6,0.2,1.6,0.8c0.1,3.1,0,13,0,13.1L298,133.3z M295.7,132.5h1.6c0-1.9,0.1-9.8,0-12.6
		c-0.2-0.1-0.5-0.2-0.8-0.1l0,0c-0.3,0-0.5,0-0.8,0.1L295.7,132.5z"/>
	<path id="_Tracciato_composto_108" class="st8" d="M285,135.1h23.1c0-0.9-2-19.3-11.5-18.7h-0.1C286.9,116.3,285,134.2,285,135.1z
		 M300.3,122.3c0-0.5,2.3-0.5,2.3,0c0.1,2.6,0,10.7,0,10.7h-2.3V122.3z M295.3,119.9c0-0.6,2.3-0.6,2.3,0c0.1,3.1,0,13.1,0,13.1
		h-2.3V119.9z M290.8,132.9v-10.7c0-0.5,2.3-0.5,2.3,0c0.1,2.6,0,10.7,0,10.7L290.8,132.9z"/>
	<polygon id="_Tracciato_178" class="st5" points="291.6,105.2 297.7,109.3 303.2,105.2 	"/>
	<g id="_Gruppo_92">
		<polygon id="_Tracciato_179" class="st9" points="271.4,105.8 271.4,109.7 307.2,109.7 302.4,104.9 297.1,109.3 291.1,104.8 
			285.7,109.2 280.3,105.3 275.5,109 		"/>
		<path id="_Tracciato_composto_109" class="st2" d="M308.1,110.1H271V105l4.5,3.5l4.7-3.7l5.4,4l5.4-4.5l5.9,4.6l5.4-4.4
			L308.1,110.1z M297.8,109.3h8.5l-3.8-3.8L297.8,109.3z M286.3,109.3h10.1l-5.2-4L286.3,109.3z M275.8,109.3h9.3l-4.8-3.5
			L275.8,109.3z M271.8,109.3h3.4l-3.5-2.7L271.8,109.3z"/>
	</g>
	<g id="_Gruppo_93">
		<path id="_Tracciato_180" class="st2" d="M274.6,69.8v9.4h10.6v-9.4c0,0,0.4-1.7-1.7-1.8c0.3-1.5-0.6-3-2.2-3.4
			c-0.3-0.1-0.6-0.1-0.8-0.1h-1.3c-1.6-0.1-2.9,1-3.1,2.6c0,0.3,0,0.6,0.1,0.8C274.3,68.1,274.6,69.8,274.6,69.8z"/>
		<path id="_Tracciato_composto_110" class="st2" d="M285.6,79.6h-11.3v-9.8c-0.1-0.5,0-1.1,0.3-1.5c0.3-0.4,0.8-0.7,1.3-0.7
			c-0.1-0.9,0.2-1.7,0.7-2.4c0.7-0.8,1.7-1.2,2.7-1.1h1.3c1-0.1,2,0.3,2.7,1.1c0.5,0.7,0.8,1.5,0.7,2.4c0.5,0.1,1,0.3,1.3,0.7
			c0.3,0.4,0.4,1,0.3,1.5L285.6,79.6z M275,78.8h9.8v-9.1c0.1-0.3,0-0.6-0.2-0.9c-0.3-0.3-0.7-0.5-1.1-0.5h-0.4l0.1-0.4
			c0.1-0.8-0.1-1.5-0.5-2.2c-0.5-0.6-1.3-0.9-2.1-0.8h-1.3c-0.8-0.1-1.6,0.2-2.1,0.8c-0.4,0.6-0.6,1.4-0.5,2.2l0.1,0.4h-0.4
			c-0.4,0-0.8,0.2-1.1,0.5c-0.2,0.3-0.2,0.6-0.2,0.9L275,78.8L275,78.8z"/>
	</g>
	<polygon id="_Tracciato_181" class="st2" points="285.2,79.6 285.2,78.8 285.2,78.8 	"/>
	<polygon id="_Tracciato_182" class="st2" points="274.6,79.6 274.6,78.8 274.6,78.8 	"/>
	<g id="_Gruppo_94">
		<path id="_Tracciato_183" class="st2" d="M300.3,122.3v10.7h2.3c0,0,0.1-8.1,0-10.7C302.5,121.8,300.3,121.8,300.3,122.3z"/>
		<path id="_Tracciato_composto_111" class="st2" d="M303,133.3h-3.1v-11.1c0-0.3,0.2-0.7,1.4-0.8c0.4,0,1.7,0,1.7,0.7
			c0.1,2.6,0,10.4,0,10.7L303,133.3z M300.6,132.5h1.5c0-1.6,0.1-7.9,0-10.1c-0.5-0.1-1-0.1-1.5,0V132.5z"/>
	</g>
	<g id="_Gruppo_95">
		<path id="_Tracciato_184" class="st2" d="M295.3,119.9v13.1h2.3c0,0,0.1-9.9,0-13.1C297.6,119.3,295.3,119.2,295.3,119.9z"/>
		<path id="_Tracciato_composto_112" class="st2" d="M298,133.3h-3.1v-13.5c0-0.5,0.5-0.8,1.5-0.9s1.6,0.2,1.6,0.8
			c0.1,3.1,0,13,0,13.1L298,133.3z M295.7,132.5h1.6c0-1.9,0.1-9.8,0-12.6c-0.2-0.1-0.5-0.2-0.8-0.1c-0.3,0-0.5,0-0.8,0.1
			L295.7,132.5z"/>
	</g>
	<g id="_Gruppo_96">
		<path id="_Tracciato_185" class="st2" d="M290.8,122.3v10.7h2.3c0,0,0.1-8.1,0-10.7C293.1,121.8,290.8,121.8,290.8,122.3z"/>
		<path id="_Tracciato_composto_113" class="st2" d="M293.5,133.3h-3.1v-11.1c0-0.5,0.5-0.7,1.4-0.8c0.5,0,1.6,0,1.7,0.8
			c0.1,2.5,0,10.4,0,10.7L293.5,133.3z M291.2,132.5h1.5c0-1.6,0.1-7.9,0-10.1c-0.5-0.1-1-0.1-1.5,0V132.5z"/>
	</g>
	<g id="_Gruppo_97">
		<polygon id="_Tracciato_186" class="st5" points="271.4,104.8 271.4,105.8 275.7,109 280.5,105.3 286.1,109.2 291.6,104.8 		"/>
		<path id="_Tracciato_composto_114" class="st2" d="M286.1,109.8l-5.5-4l-4.9,3.7L271,106v-1.6h21.7L286.1,109.8z M281.1,105.2
			l5,3.6l4.5-3.6H281.1z M271.8,105.6l3.8,2.9l4.3-3.3h-8.2L271.8,105.6z"/>
	</g>
	<g id="_Gruppo_98">
		<path id="_Tracciato_187" class="st1" d="M271.4,109.7v67.9h0.3c1-7.3,5.2-27.5,18.2-27.2c12.6-0.7,16.9,19.8,17.9,27.2h0.3v-42.4
			H285c0-0.9,1.9-18.8,11.6-18.7h0.1c9.5-0.5,11.5,17.8,11.5,18.7v-25.4H271.4z"/>
		<path id="_Tracciato_composto_115" class="st2" d="M308.5,177.9h-1v-0.3c-0.6-4.6-4.5-27.6-17.5-26.8
			c-13.4-0.3-17.2,22.3-17.8,26.8v0.3h-1v-68.7h37.4L308.5,177.9z M271.8,110.1v64.3c1.6-8.4,6.1-24.4,17.8-24.4h0.3
			c11.6-0.6,16.2,15.8,17.8,24.4v-38.8h-23.1v-0.4c0-0.1,1-11.5,6.2-16.7c1.5-1.6,3.5-2.5,5.7-2.5h0.2c2.1-0.1,4.1,0.7,5.5,2.1
			c3.1,2.9,4.7,8,5.5,11.9v-20L271.8,110.1z M285.4,134.7h22.3c-0.2-2.3-1.6-11.9-6-16c-1.3-1.3-3.1-2-5-1.9h-0.1
			c-2,0-3.9,0.8-5.2,2.2C287,123.3,285.6,132.5,285.4,134.7L285.4,134.7z"/>
	</g>
	<rect id="_Tracciato_188" x="378" y="177" class="st2" width="14" height="12.4"/>
	<polygon id="_Tracciato_189" class="st2" points="478,167.9 472.6,167.9 472.5,167.1 478,167.1 	"/>
	<polygon id="_Tracciato_190" class="st2" points="399,167.9 389.8,167.9 389.8,167.1 399,167.1 	"/>
	<polygon id="_Tracciato_191" class="st2" points="473.5,172.4 472.6,172.4 472.5,171.6 473.5,171.6 	"/>
	<polygon id="_Tracciato_192" class="st2" points="399,172.4 398.6,172.4 398.6,171.6 399,171.6 	"/>
	<rect id="_Tracciato_193" x="480.7" y="179.7" class="st2" width="5.3" height="0.8"/>
	<polygon id="_Tracciato_194" class="st2" points="391.9,180.5 386.2,180.5 386.2,179.7 391.9,179.7 	"/>
	<rect id="_Tracciato_195" x="480.7" y="184.2" class="st2" width="5" height="0.8"/>
	<polygon id="_Tracciato_196" class="st2" points="391.9,185 386.2,185 386.2,184.2 391.9,184.2 	"/>
	<rect id="_Tracciato_197" x="431.1" y="111.8" class="st2" width="9.3" height="0.8"/>
	<rect id="_Tracciato_198" x="431.1" y="114.8" class="st2" width="9.3" height="0.8"/>
	<rect id="_Tracciato_199" x="390.8" y="61.2" class="st2" width="90.5" height="1.6"/>
	<rect id="_Tracciato_200" x="390.8" y="66.9" class="st2" width="90.5" height="1.6"/>
	<rect id="_Tracciato_201" x="390.8" y="72.3" class="st2" width="90.5" height="1.6"/>
	<g id="_Gruppo_99">
		<polygon id="_Tracciato_202" class="st4" points="494.6,164.1 494.6,177 485.9,177 485.9,176.5 486.5,176.5 486.5,164.1 		"/>
		<path id="_Tracciato_composto_116" class="st2" d="M495,177.4h-9.5v-1.3h0.6v-12.4h8.9V177.4z M486.9,176.6h7.4v-12.1h-7.3
			L486.9,176.6z"/>
	</g>
	<rect id="_Tracciato_203" x="494.3" y="177" class="st2" width="0.8" height="3"/>
	<g id="_Gruppo_100">
		<path id="_Tracciato_204" class="st4" d="M64.5,144.1v44.8H50v-50.6C54.3,141.4,59.3,143.4,64.5,144.1z"/>
		<path id="_Tracciato_composto_117" class="st2" d="M64.9,189.3H49.6v-51.8l0.6,0.4c4.3,3,9.2,5,14.4,5.7h0.3V189.3z M50.4,188.5
			h13.7v-44.1c-4.9-0.7-9.6-2.6-13.7-5.4V188.5z"/>
	</g>
	<rect id="_Tracciato_205" x="248.3" y="74.5" class="st2" width="0.8" height="17.3"/>
	<rect id="_Tracciato_206" x="197.5" y="88.4" class="st2" width="0.8" height="3.9"/>
	<rect id="_Tracciato_207" x="172.1" y="154.3" class="st2" width="0.8" height="0.4"/>
	<rect id="_Tracciato_208" x="172.1" y="95.4" class="st2" width="0.8" height="19.8"/>
	<rect id="_Tracciato_209" x="93.7" y="132.3" class="st2" width="0.8" height="0.6"/>
	<polygon id="_Tracciato_210" class="st2" points="96.7,94.1 96.7,94 97.5,94 	"/>
	<g id="_Gruppo_101">
		<path id="_Tracciato_211" class="st4" d="M119.1,80v11.6c-7.3,1.4-20.9,2.3-22,2.4V79.6L119.1,80z"/>
		<path id="_Tracciato_composto_118" class="st2" d="M96.7,94.5V79.2l22.8,0.4v12.3l-0.3,0.1c-6.6,1.3-18.4,2.2-21.9,2.4L96.7,94.5z
			 M97.5,80v13.6c3.7-0.3,14.8-1.1,21.2-2.3V80.4L97.5,80z"/>
	</g>
	<g id="_Gruppo_102">
		<polygon id="_Tracciato_212" class="st4" points="223.1,92.1 223.1,115.3 197.9,115.3 197.9,92.3 		"/>
		<path id="_Tracciato_composto_119" class="st2" d="M223.5,115.6h-26V91.9l26-0.2V115.6z M198.3,114.9h24.4V92.4l-24.4,0.2V114.9z"
			/>
	</g>
	
		<rect id="_Tracciato_213" x="248.6" y="91.4" transform="matrix(1 -8.726535e-03 8.726535e-03 1 -0.7908 2.2711)" class="st2" width="22.4" height="0.8"/>
	<g id="_Gruppo_103">
		<polygon id="_Tracciato_214" class="st4" points="223.1,115.3 223.1,138.5 197.9,138.6 197.9,115.3 		"/>
		<path id="_Tracciato_composto_120" class="st2" d="M197.5,139v-24.2h26v24L197.5,139z M198.3,115.6v22.6l24.4-0.1v-22.5H198.3z"/>
	</g>
	<g id="_Gruppo_104">
		<polygon id="_Tracciato_215" class="st4" points="197.9,115.3 197.9,138.6 172.5,138.7 172.5,115.3 		"/>
		<path id="_Tracciato_composto_121" class="st2" d="M172.1,139.1v-24.3h26.2V139L172.1,139.1z M172.9,115.7v22.7l24.6-0.1v-22.6
			L172.9,115.7z"/>
	</g>
	<rect id="_Tracciato_216" x="248.6" y="114.9" class="st2" width="22.4" height="0.8"/>
	<g id="_Gruppo_105">
		<polygon id="_Tracciato_217" class="st4" points="248.6,91.8 248.6,115.3 223.1,115.3 223.1,92.1 		"/>
		<path id="_Tracciato_composto_122" class="st2" d="M249,115.6h-26.3v-24l26.3-0.2V115.6z M223.5,114.9h24.8V92.2l-24.8,0.2
			L223.5,114.9z"/>
	</g>
	<g id="_Gruppo_106">
		<polygon id="_Tracciato_218" class="st4" points="248.6,115.3 248.6,138.4 223.1,138.5 223.1,115.3 		"/>
		<path id="_Tracciato_composto_123" class="st2" d="M222.7,138.9v-24H249v23.9L222.7,138.9z M223.5,115.7v22.5l24.8-0.1v-22.4
			L223.5,115.7z"/>
	</g>
	<g id="_Gruppo_107">
		<polygon id="_Tracciato_219" class="st4" points="248.6,138.4 248.6,154.3 223.1,154.3 223.1,138.5 		"/>
		<path id="_Tracciato_composto_124" class="st2" d="M249,154.7h-26.3v-16.6L249,138V154.7z M223.5,153.9h24.8v-15.1l-24.8,0.1
			L223.5,153.9z"/>
	</g>
	<g id="_Gruppo_108">
		<polygon id="_Tracciato_220" class="st1" points="271.7,154.3 271.7,163.3 248.6,171 248.6,154.3 		"/>
		<path id="_Tracciato_composto_125" class="st2" d="M248.3,171.5v-17.6h23.8v9.7L248.3,171.5z M249.1,154.7v15.8l22.2-7.4v-8.3
			L249.1,154.7z"/>
	</g>
	<g id="_Gruppo_109">
		<rect id="_Tracciato_221" x="192.3" y="161.5" class="st5" width="19.1" height="18.9"/>
		<path id="_Tracciato_composto_126" class="st2" d="M211.8,180.9h-19.9v-19.7h19.9L211.8,180.9z M192.7,180.1h18.4v-18.2h-18.4
			L192.7,180.1z"/>
	</g>
	<g id="_Gruppo_110">
		<rect id="_Tracciato_222" x="183.3" y="161.5" class="st5" width="7.6" height="18.9"/>
		<path id="_Tracciato_composto_127" class="st2" d="M191.3,180.9h-8.4v-19.7h8.4V180.9z M183.7,180.1h6.8v-18.2h-6.8V180.1z"/>
	</g>
	<g id="_Gruppo_111">
		<rect id="_Tracciato_223" x="212.9" y="161.5" class="st5" width="17.6" height="18.9"/>
		<path id="_Tracciato_composto_128" class="st2" d="M230.9,180.9h-18.4v-19.7h18.4L230.9,180.9z M213.3,180.1h16.8v-18.2h-16.8
			L213.3,180.1z"/>
	</g>
	<g id="_Gruppo_112">
		<rect id="_Tracciato_224" x="232" y="161.5" class="st5" width="9.1" height="18.9"/>
		<path id="_Tracciato_composto_129" class="st2" d="M241.5,180.9h-9.9v-19.7h9.9V180.9z M232.4,180.1h8.3v-18.2h-8.3V180.1z"/>
	</g>
	<g id="_Gruppo_113">
		<polygon id="_Tracciato_225" class="st4" points="248.6,154.3 248.6,180.5 241.1,180.5 241.1,161.5 183.3,161.5 183.3,180.5 
			176.1,180.5 176.1,154.3 		"/>
		<path id="_Tracciato_composto_130" class="st2" d="M249,180.9h-8.4v-18.9h-57v18.9h-8v-27h73.4L249,180.9z M241.5,180.1h6.8v-25.4
			h-71.8v25.4h6.4v-18.9h58.6L241.5,180.1z"/>
	</g>
	<g id="_Gruppo_114">
		<polygon id="_Tracciato_226" class="st4" points="197.9,138.6 197.9,154.3 172.5,154.3 172.5,138.7 		"/>
		<path id="_Tracciato_composto_131" class="st2" d="M198.3,154.7h-26.2v-16.4l26.2-0.1L198.3,154.7z M172.8,153.9h24.6V139
			l-24.6,0.1V153.9z"/>
	</g>
	
		<rect id="_Tracciato_227" x="248.6" y="138" transform="matrix(1 -3.839715e-03 3.839715e-03 1 -0.5295 0.9988)" class="st2" width="22.4" height="0.8"/>
	<g id="_Gruppo_115">
		<path id="_Tracciato_228" class="st4" d="M126.9,98.2v29.2l-29,0.1c5-9,5.5-19.9,1.4-29.3H126.9z"/>
		<path id="_Tracciato_composto_132" class="st2" d="M97.2,127.9l0.3-0.6c5-8.9,5.5-19.7,1.3-29l-0.2-0.6h28.6v30L97.2,127.9z
			 M99.9,98.6c3.9,9.2,3.4,19.7-1.3,28.5l27.9-0.1V98.6H99.9z"/>
	</g>
	<polygon id="_Tracciato_229" class="st2" points="99.2,98.6 99.2,98.6 99.2,97.8 	"/>
	<g id="_Gruppo_116">
		<polygon id="_Tracciato_230" class="st4" points="172.5,115.3 172.5,138.7 143.3,138.9 143.3,115.3 		"/>
		<path id="_Tracciato_composto_133" class="st2" d="M142.9,139.2v-24.4h30v24.3L142.9,139.2z M143.7,115.7v22.8l28.4-0.1v-22.7
			L143.7,115.7z"/>
	</g>
	<g id="_Gruppo_117">
		<polygon id="_Tracciato_231" class="st4" points="172.5,138.7 172.5,154.3 143.3,154.3 143.3,138.9 		"/>
		<path id="_Tracciato_composto_134" class="st2" d="M172.9,154.7h-30v-16.3l30-0.1V154.7z M143.7,153.9h28.4v-14.8l-28.4,0.1V153.9
			z"/>
	</g>
	<g id="_Gruppo_118">
		<polygon id="_Tracciato_232" class="st4" points="143.3,127.4 143.3,154.3 126.9,154.3 126.9,127.4 		"/>
		<path id="_Tracciato_composto_135" class="st2" d="M143.7,154.7h-17.2V127h17.2L143.7,154.7z M127.3,153.9h15.6v-26.2h-15.6V153.9
			z"/>
	</g>
	<g id="_Gruppo_119">
		<polygon id="_Tracciato_233" class="st4" points="143.3,98.2 143.3,127.4 126.9,127.4 126.9,98.2 		"/>
		<path id="_Tracciato_composto_136" class="st2" d="M126.5,127.8V97.8h17.2v30L126.5,127.8z M127.3,98.6V127h15.6V98.6H127.3z"/>
	</g>
	<rect id="_Tracciato_234" x="75.6" y="49.7" class="st2" width="0.8" height="0.4"/>
	<g id="_Gruppo_120">
		<polygon id="_Tracciato_235" class="st4" points="136.7,80.3 119.1,80 119.1,72.1 		"/>
		<path id="_Tracciato_composto_137" class="st2" d="M138.5,80.8l-19.8-0.3v-8.9L138.5,80.8z M119.5,79.6l15.3,0.3l-15.3-7.1
			L119.5,79.6z"/>
	</g>
	<g id="_Gruppo_121">
		<polygon id="_Tracciato_236" class="st4" points="97.1,61.9 97.1,79.6 76,79.3 76,79.3 76,61.4 		"/>
		<path id="_Tracciato_composto_138" class="st2" d="M97.5,80l-21.9-0.4V61l21.9,0.5L97.5,80z M76.4,78.9l20.3,0.4v-17l-20.3-0.4
			V78.9z"/>
	</g>
	<g id="_Gruppo_122">
		<path id="_Tracciato_237" class="st4" d="M97.1,79.6V94h-0.1c-4.7-7.6-12.3-12.9-21-14.8L97.1,79.6z"/>
		<path id="_Tracciato_composto_139" class="st2" d="M97.5,94.4h-0.6l-0.2-0.2C92,86.8,84.6,81.5,75.9,79.7l0.1-0.8l21.5,0.4
			L97.5,94.4z M79.3,79.8c7.1,2.3,13.3,6.9,17.5,13.1V80L79.3,79.8z"/>
	</g>
	
		<rect id="_Tracciato_238" x="308.1" y="134.6" transform="matrix(1 -5.934085e-03 5.934085e-03 1 -0.7952 1.9276)" class="st2" width="32.7" height="0.8"/>
	<g id="_Gruppo_123">
		<polygon id="_Tracciato_239" class="st4" points="119.1,91.6 119.1,80 136.7,80.3 140.7,82.2 134.4,85.8 124.5,90 		"/>
		<path id="_Tracciato_composto_140" class="st2" d="M118.7,92.2V79.6l18.1,0.3l4.7,2.2l-6.9,4l-10,4.2L118.7,92.2z M119.5,80.4
			v10.7l4.9-1.4l9.9-4.2l5.5-3.2l-3.2-1.5L119.5,80.4z"/>
	</g>
	<path id="_Tracciato_composto_141" class="st3" d="M491.1,119.6L491.1,119.6c-0.1-0.3-0.2-0.6-0.2-0.9c-3.2-9.9-9-19.6-19.8-23.7
		c-9.5,15.5-4.7,35.9,10.9,45.4c3.9,2.4,8.1,3.9,12.6,4.6C494.7,136.4,493.5,127.9,491.1,119.6z M472.6,102.4
		c6.7-1.5,12.5,5.1,12.5,5.1C477.8,109.5,472.6,102.4,472.6,102.4z M483.8,123.7c6.7,1.3,9.5,9.6,9.5,9.6
		C485.8,132.3,483.8,123.6,483.8,123.7L483.8,123.7z"/>
	<g id="_Gruppo_124">
		<path id="_Tracciato_240" class="st1" d="M499.1,79.5v19.6c0,0-0.7-8.8-6.9-11.6c0,0-0.2,8.8,6.9,11.6v46h-4.2l-0.4-0.1
			c0.2-8.6-1-17.2-3.4-25.4c0.6-0.5,6.6-6,4.1-12.8c0,0-5.6,5.7-4.4,12c-3.2-9.9-9-19.6-19.8-23.7C477,85.4,487.6,79.5,499.1,79.5z"
			/>
		<path id="_Tracciato_composto_142" class="st2" d="M499.5,145.5l-5-0.1l-0.3-0.1V145c0.1-8.6-1-17.1-3.4-25.3l-0.1-0.2l0.2-0.2
			c0.6-0.6,6-5.6,4.2-11.7c-1.3,1.5-4.8,6.1-3.8,11.1l-0.8,0.2c-3.9-12.1-10.5-20-19.6-23.4l-0.5-0.2l0.3-0.4
			c6.1-9.9,16.8-15.9,28.4-15.8h0.4L499.5,145.5z M494.9,144.7h3.8V99.4c-7-2.9-6.9-11.8-6.9-11.9v-0.6l0.5,0.3
			c3.7,1.7,5.5,5.3,6.4,8.1V79.9c-11,0.1-21.2,5.7-27.1,15c8.4,3.3,14.7,10.4,18.7,21.1c0.4-5.1,4.4-9.3,4.6-9.5l0.4-0.4l0.2,0.6
			c2.4,6.5-2.8,11.9-4,13.1C493.9,127.9,495,136.3,494.9,144.7L494.9,144.7z M492.6,88.2c0.1,2,0.9,7.9,6,10.3
			C498.3,96.5,497.1,90.6,492.6,88.2z"/>
	</g>
	<path id="_Tracciato_241" class="st2" d="M490.9,120.4l-0.2-0.7c-0.1-0.3-0.2-0.6-0.2-0.9l0.8-0.2l0.3,1.1l-0.3,0.2l-0.2-0.3
		l0.2,0.3L490.9,120.4z"/>
	<path id="_Tracciato_composto_143" class="st3" d="M527,95c-6-9.7-16.6-15.5-28-15.5v19.6c0,0,0.7-8.8,6.9-11.6
		c0,0,0.2,8.8-6.9,11.6v46h4.1l0,0C503.1,145.1,501.4,104.1,527,95z M506.1,119.6c0,0-6.7-5.7-4.2-12.8
		C501.9,106.8,508.1,113.1,506.1,119.6z"/>
	<path id="_Tracciato_242" class="st2" d="M499.1,145.8c-1.4,0-2.8-0.1-4.2-0.3v-0.8h8.3l0,0.8c-0.9,0.1-1.8,0.2-2.7,0.2
		C500,145.8,499.5,145.8,499.1,145.8z"/>
	<path id="_Tracciato_composto_144" class="st3" d="M527,95c-25.6,9.2-23.8,50.1-23.8,50.1c0.3,0,0.5-0.1,0.8-0.1
		c0-0.5-0.1-1.1-0.1-1.6c0-3.7,1-7.3,3-10.4c0.2-0.3,0.4-0.6,0.6-0.9c-1.1,0.6-2.3,1-3.5,1.2c0,0,2.7-8.4,9.4-9.6
		c-0.4,1.4-0.9,2.7-1.6,4c5.1-3.8,11.8-5,17.9-3C533.5,114.9,532.6,103.9,527,95L527,95z M512.1,107.4c0,0,5.8-6.6,12.5-5.1
		C524.6,102.4,519.4,109.5,512.1,107.4L512.1,107.4z"/>
	<path id="_Tracciato_243" class="st2" d="M506.1,133.3l1-1.4c1.2-1.8,2.7-3.3,4.4-4.6l1.5-1.2l-1,1.7c-1,1.9-2.6,3.5-4.5,4.6
		L506.1,133.3z"/>
	<path id="_Tracciato_composto_145" class="st2" d="M523.1,135.6l0.3-1.5c0.4-1.7,1.5-4.7,4.2-5.9l0.6-0.3v0.8v0.1
		c-1.1,2-2.5,3.9-4,5.6L523.1,135.6z M526.7,129.6c-0.8,0.7-1.4,1.6-1.8,2.7C525.5,131.4,526.1,130.6,526.7,129.6L526.7,129.6z"/>
	<rect id="_Tracciato_244" x="498.7" y="145.1" class="st2" width="0.8" height="0.3"/>
	<polygon id="_Tracciato_245" class="st2" points="494.1,145.1 494.1,145.1 494.9,145.1 	"/>
	<path id="_Tracciato_246" class="st2" d="M503.2,145.1v43.8h-8.7v-43.8h0.4c1.4,0.2,2.8,0.3,4.2,0.3c0.5,0,0.9,0,1.4,0
		C501.4,145.3,502.3,145.2,503.2,145.1z"/>
	<path id="_Tracciato_247" class="st2" d="M499.1,145.8c-1.4,0-2.8-0.1-4.2-0.3v-0.8h8.3l0,0.8c-0.9,0.1-1.8,0.2-2.7,0.2
		C500,145.8,499.5,145.8,499.1,145.8z"/>
	<g id="_Gruppo_125">
		<path id="_Tracciato_248" class="st2" d="M493.3,133.3c-7.5-1-9.5-9.6-9.5-9.6C490.5,124.9,493.3,133.3,493.3,133.3z"/>
		<path id="_Tracciato_composto_146" class="st2" d="M493.8,133.8l-0.6-0.1c-7.7-1-9.8-9.9-9.8-9.9l-0.1-0.6l0.6,0.1
			c6.9,1.3,9.6,9.6,9.8,9.9L493.8,133.8z M484.4,124.2c0.6,1.9,2.8,7.5,8.3,8.6C491.9,130.9,489.3,125.5,484.4,124.2L484.4,124.2z"
			/>
	</g>
	<g id="_Gruppo_126">
		<path id="_Tracciato_249" class="st2" d="M485.1,107.4c-7.3,2.1-12.5-5.1-12.5-5.1C479.3,100.8,485.1,107.4,485.1,107.4z"/>
		<path id="_Tracciato_composto_147" class="st2" d="M482.5,108.2c-6,0-10.2-5.6-10.2-5.6l-0.3-0.5l0.6-0.1c6.8-1.5,12.6,5,12.9,5.2
			l0.4,0.5l-0.6,0.2C484.3,108.1,483.4,108.2,482.5,108.2z M473.3,102.6c1.3,1.5,5.5,5.8,11,4.6
			C482.9,105.8,478.4,101.9,473.3,102.6L473.3,102.6z"/>
	</g>
	<g id="_Gruppo_127">
		<path id="_Tracciato_250" class="st2" d="M491.1,119.6l-0.3-0.8c-1.3-6.2,4.4-12,4.4-12C497.7,113.6,491.7,119.1,491.1,119.6z"/>
		<path id="_Tracciato_composto_148" class="st2" d="M490.9,120.3l-0.4-1.4c-1.3-6.4,4.2-12.1,4.5-12.4l0.4-0.4l0.2,0.6
			c2.5,7-3.5,12.6-4.2,13.2L490.9,120.3z M495.1,107.6c-1.3,1.5-4.8,6.2-3.8,11.2l0.1,0.2C492.8,117.5,496.6,113,495.1,107.6
			L495.1,107.6z"/>
	</g>
	<path id="_Tracciato_251" class="st2" d="M490.9,120.4l-0.2-0.7c-0.1-0.3-0.2-0.6-0.2-0.9l0.8-0.2l0.3,1.1l-0.3,0.2l-0.2-0.3
		l0.2,0.3L490.9,120.4z"/>
	<g id="_Gruppo_128">
		<path id="_Tracciato_252" class="st2" d="M513.4,123.6c-0.4,1.4-0.9,2.7-1.6,4c-1.7,1.3-3.1,2.8-4.3,4.5c-1.1,0.6-2.3,1-3.5,1.2
			C503.9,133.3,506.6,124.9,513.4,123.6z"/>
		<path id="_Tracciato_composto_149" class="st2" d="M503.4,133.8l0.2-0.6c0.1-0.4,2.9-8.6,9.7-9.9l0.6-0.1l-0.1,0.6
			c-0.4,1.4-0.9,2.8-1.7,4.1l-0.1,0.1c-1.6,1.2-3.1,2.7-4.3,4.4l-0.1,0.1c-1.1,0.6-2.4,1.1-3.6,1.2L503.4,133.8z M512.8,124.2
			c-5,1.3-7.5,6.8-8.3,8.6c0.9-0.2,1.8-0.5,2.6-1c1.2-1.7,2.6-3.2,4.3-4.5C512,126.3,512.5,125.3,512.8,124.2L512.8,124.2z"/>
	</g>
	<path id="_Tracciato_253" class="st2" d="M506.1,133.3l1-1.4c1.2-1.8,2.7-3.3,4.4-4.6l1.5-1.2l-1,1.7c-1,1.9-2.6,3.5-4.5,4.6
		L506.1,133.3z"/>
	<g id="_Gruppo_129">
		<path id="_Tracciato_254" class="st2" d="M524.6,102.4c0,0-5.2,7.2-12.5,5.1C512.1,107.4,517.9,100.8,524.6,102.4z"/>
		<path id="_Tracciato_composto_150" class="st2" d="M514.7,108.2c-0.9,0-1.8-0.1-2.7-0.4l-0.6-0.2l0.4-0.5c0.2-0.3,6-6.8,12.9-5.2
			l0.6,0.1l-0.3,0.5C524.9,102.6,520.8,108.2,514.7,108.2z M512.9,107.2c5.5,1.1,9.7-3.1,11-4.6
			C518.8,101.9,514.3,105.8,512.9,107.2L512.9,107.2z"/>
	</g>
	<g id="_Gruppo_130">
		<path id="_Tracciato_255" class="st2" d="M506,87.5c0,0,0.2,8.8-6.9,11.6C499.1,99.1,499.7,90.3,506,87.5z"/>
		<path id="_Tracciato_composto_151" class="st2" d="M498.6,99.8v-0.6c0-0.4,0.8-9,7.2-11.9l0.5-0.3v0.6c0,0.1,0.1,9.2-7.2,12
			L498.6,99.8z M505.6,88.2c-4.5,2.4-5.7,8.3-6,10.3C504.6,96.1,505.4,90.1,505.6,88.2L505.6,88.2z"/>
	</g>
	<g id="_Gruppo_131">
		<path id="_Tracciato_256" class="st2" d="M499.1,99.1c-7.1-2.7-6.9-11.6-6.9-11.6C498.4,90.3,499.1,99.1,499.1,99.1z"/>
		<path id="_Tracciato_composto_152" class="st2" d="M499.5,99.8l-0.6-0.2c-7.2-2.8-7.2-11.9-7.2-12v-0.6l0.5,0.3
			c6.4,2.9,7.1,11.6,7.1,11.9L499.5,99.8z M492.6,88.2c0.1,2,0.9,7.9,6,10.3C498.3,96.5,497.1,90.6,492.6,88.2L492.6,88.2z"/>
	</g>
	<g id="_Gruppo_132">
		<path id="_Tracciato_257" class="st2" d="M506.1,119.6c0,0-6.7-5.7-4.2-12.8C501.9,106.8,508.1,113.1,506.1,119.6z"/>
		<path id="_Tracciato_composto_153" class="st2" d="M506.3,120.3l-0.5-0.4c-0.1-0.1-6.9-6-4.3-13.3l0.2-0.6l0.4,0.4
			c0.3,0.3,6.3,6.5,4.3,13.2L506.3,120.3z M502.1,107.6c-1.5,5.4,2.4,9.9,3.8,11.3C507,113.9,503.4,109.1,502.1,107.6L502.1,107.6z"
			/>
	</g>
	<path id="_Tracciato_258" class="st5" d="M527.8,128.6v-0.1c-2.6,1.2-3.6,4-3.9,5.7l-0.2,0.2v-10.7c1.9,0,3.7,0.3,5.5,0.8l0.5,0.2
		C529.2,126,528.5,127.3,527.8,128.6z"/>
	<path id="_Tracciato_259" class="st2" d="M506.1,133.3l1-1.4c1.2-1.8,2.7-3.3,4.4-4.6l1.5-1.2l-1,1.7c-1,1.9-2.6,3.5-4.5,4.6
		L506.1,133.3z"/>
	<path id="_Tracciato_composto_154" class="st8" d="M506.8,133c-1.9,3.1-3,6.7-3,10.4c0,0.5,0,1.1,0.1,1.6c4.2-0.6,8.2-2.1,11.9-4.2
		C513.8,137.2,510.6,134.5,506.8,133z M507.7,137.4c4-0.9,7.5,3.1,7.5,3.1C510.9,141.6,507.7,137.4,507.7,137.4z"/>
	<path id="_Tracciato_composto_155" class="st8" d="M540.4,132.9c-15.4,5.5-14.3,30.1-14.3,30.1c10.8-1.4,18.5-11.3,17.1-22.1
		C542.9,138.1,541.9,135.4,540.4,132.9z M526.5,155.9c0,0,1.6-5,5.7-5.8C532.2,150.1,531.1,155.3,526.5,155.9L526.5,155.9z
		 M531.5,140.4c0,0,3.5-4,7.5-3.1C539,137.4,535.8,141.6,531.5,140.4L531.5,140.4z"/>
	<path id="_Tracciato_composto_156" class="st8" d="M540.4,132.9c-2.5-4-6.3-6.9-10.7-8.4c-0.5,1.4-1.2,2.7-1.9,4
		c0,0.7-0.3,5.4-4.1,6.9V163h2.5C526.1,163,525,138.4,540.4,132.9z M527.9,147.8c0,0-4-3.4-2.5-7.7
		C525.4,140.1,529.1,143.8,527.9,147.8z"/>
	<path id="_Tracciato_composto_157" class="st8" d="M518.9,147.8L518.9,147.8c-0.1-0.2-0.1-0.3-0.1-0.5l0,0
		c-0.7-2.3-1.7-4.4-2.9-6.4c-3.7,2.2-7.7,3.6-11.9,4.2c0.7,9.2,7.8,16.7,17,18C521,157.9,520.3,152.7,518.9,147.8z M514.5,150.2
		c4,0.8,5.7,5.8,5.7,5.8C515.7,155.3,514.5,150.1,514.5,150.2L514.5,150.2z"/>
	<path id="_Tracciato_260" class="st2" d="M518.7,148.5l-0.2-0.6c-0.1-0.2-0.1-0.4-0.1-0.6l0.8-0.2c0,0.2,0.1,0.3,0.1,0.5l0.1,0.2
		L518.7,148.5z"/>
	<path id="_Tracciato_261" class="st2" d="M523.6,163.6c-0.8,0-1.7-0.1-2.5-0.2l0-0.8h4.9l0,0.8c-0.5,0.1-1.1,0.1-1.6,0.1
		L523.6,163.6z"/>
	<path id="_Tracciato_262" class="st2" d="M524,136l-0.5-0.2c-0.2-0.1-0.5-0.2-0.7-0.3l-0.5-0.3l0.3-0.4c0.2-0.2,0.4-0.4,0.5-0.6
		l0.1-0.1l0.2-0.2l1-1.2l-0.3,1.5c-0.1,0.4-0.1,0.8-0.2,1.2L524,136z"/>
	<path id="_Tracciato_composto_158" class="st2" d="M523.1,135.6l0.3-1.5c0.4-1.7,1.5-4.7,4.2-5.9l0.6-0.3v0.8v0.1
		c-1.1,2-2.5,3.9-4,5.6L523.1,135.6z M526.7,129.6c-0.8,0.7-1.4,1.6-1.8,2.7C525.5,131.4,526.1,130.6,526.7,129.6L526.7,129.6z"/>
	<g id="_Gruppo_133">
		<path id="_Tracciato_263" class="st5" d="M523.6,123.6v10.7c0,0.1-0.1,0.1-0.1,0.1c-0.3-1.6-1.3-4.8-4-6c0,0-0.1,4.7,3.5,6.6
			c-2.1,2.2-4.5,4.1-7.1,5.7c-2-3.5-5.2-6.3-9-7.8c0.2-0.3,0.4-0.6,0.6-0.9c1.8-1.1,3.3-2.6,4.3-4.5
			C515.2,125.1,519.4,123.7,523.6,123.6z"/>
		<path id="_Tracciato_composto_159" class="st2" d="M515.7,141.3l-0.2-0.3c-2-3.5-5.1-6.2-8.8-7.6l-0.5-0.2l0.3-0.4
			c0.2-0.3,0.4-0.6,0.6-0.9l0.1-0.1c1.8-1.1,3.2-2.6,4.2-4.4l0.1-0.1c3.5-2.6,7.8-4,12.1-4h0.4v11.3l-0.1,0.1
			c-0.1,0.1-0.1,0.1-0.2,0.2l-0.2,0.2h0l-0.4,0.4c-2.1,2.2-4.5,4.2-7.2,5.7L515.7,141.3z M507.4,132.8c3.6,1.5,6.6,4.1,8.6,7.4
			c2.3-1.4,4.5-3.1,6.3-5.1c-3.3-2.1-3.3-6.5-3.2-6.7v-0.6l0.5,0.3c1.7,0.8,3,2.3,3.6,4.1v-8.1c-4,0.1-8,1.4-11.2,3.8
			c-1,1.9-2.5,3.4-4.4,4.5L507.4,132.8z M519.9,129.2c0.1,1.3,0.7,4.3,3.2,5.6l0,0v-0.2C522.8,133.1,522,130.5,519.9,129.2
			L519.9,129.2z"/>
	</g>
	<rect id="_Tracciato_264" x="523.2" y="163" class="st2" width="0.8" height="0.2"/>
	<rect id="_Tracciato_265" x="523.2" y="134.4" class="st2" width="0.8" height="1.1"/>
	<polygon id="_Tracciato_266" class="st2" points="540.4,133.3 540.4,133.3 540.4,132.6 	"/>
	<path id="_Tracciato_267" class="st2" d="M506.7,133.4L506.7,133.4l-0.2-0.1l0.3-0.7h0.1h0.1L506.7,133.4z"/>
	<g id="_Gruppo_134">
		<path id="_Tracciato_268" class="st5" d="M523.6,135.4V163h-2.4c-0.1,0-0.2,0-0.3,0c0.1-5.2-0.6-10.3-2-15.3
			c0.3-0.3,4-3.6,2.5-7.7c0,0-3.4,3.5-2.6,7.2c-0.7-2.3-1.7-4.4-2.9-6.4c2.6-1.6,5-3.5,7.1-5.7C523.2,135.3,523.4,135.4,523.6,135.4
			z"/>
		<path id="_Tracciato_composto_160" class="st2" d="M524,163.4h-2.8c-0.1,0-0.3,0-0.4,0l-0.3-0.1V163c0.1-5.1-0.6-10.2-2-15.1
			l-0.1-0.3l0.2-0.2l0.2-0.2l-0.5,0.1c-0.7-2.2-1.6-4.4-2.8-6.4l-0.2-0.3l0.3-0.2c2.6-1.5,4.9-3.4,7-5.6l0.2-0.2l0.3,0.1
			c0.2,0.1,0.4,0.2,0.6,0.3l0.3,0.1L524,163.4z M521.3,162.6h2v-26.9l-0.2-0.1c-2,2.1-4.2,3.8-6.7,5.3c0.7,1.3,1.4,2.6,1.9,4
			c0.4-1.9,1.4-3.7,2.8-5.2l0.4-0.4l0.2,0.6c1.4,3.9-1.6,7.1-2.4,7.9C520.7,152.6,521.4,157.6,521.3,162.6L521.3,162.6z
			 M521.2,140.9c-0.8,1.1-2.5,3.5-2.1,6.1C520,146,521.8,143.7,521.2,140.9z"/>
	</g>
	<polygon id="_Tracciato_269" class="st2" points="520.5,163 520.5,163 521.3,163 	"/>
	<path id="_Tracciato_270" class="st2" d="M526.1,163v26.4h-5.2V163h0.3c0.8,0.1,1.6,0.2,2.4,0.2h0.8
		C525,163.2,525.6,163.1,526.1,163L526.1,163z"/>
	<path id="_Tracciato_271" class="st2" d="M523.6,163.6c-0.8,0-1.7-0.1-2.5-0.2l0-0.8h4.9l0,0.8c-0.5,0.1-1.1,0.1-1.6,0.1
		L523.6,163.6z"/>
	<g id="_Gruppo_135">
		<path id="_Tracciato_272" class="st2" d="M520.2,155.9c-4.5-0.6-5.7-5.8-5.7-5.8C518.5,150.9,520.2,155.9,520.2,155.9z"/>
		<path id="_Tracciato_composto_161" class="st2" d="M520.7,156.4l-0.6-0.1c-4.7-0.6-6-5.9-6-6.1l-0.1-0.6l0.6,0.1
			c4.2,0.8,5.9,5.8,6,6L520.7,156.4z M515.1,150.7c0.4,1.3,1.7,4,4.5,4.7C519,154.2,517.6,151.5,515.1,150.7L515.1,150.7z"/>
	</g>
	<g id="_Gruppo_136">
		<path id="_Tracciato_273" class="st2" d="M515.3,140.4c-4.4,1.2-7.5-3.1-7.5-3.1C511.8,136.5,515.3,140.4,515.3,140.4z"/>
		<path id="_Tracciato_composto_162" class="st2" d="M513.6,141.1c-3.7,0-6.1-3.3-6.2-3.4l-0.3-0.5l0.6-0.1c4.2-0.9,7.7,3,7.9,3.2
			l0.4,0.5l-0.6,0.2C514.8,141,514.2,141,513.6,141.1z M508.5,137.7c0.9,1,3.1,3,6,2.6C513.5,139.3,511.1,137.4,508.5,137.7
			L508.5,137.7z"/>
	</g>
	<g id="_Gruppo_137">
		<path id="_Tracciato_274" class="st2" d="M518.9,147.8c0-0.2-0.1-0.3-0.1-0.5s0,0,0,0c-0.8-3.7,2.6-7.2,2.6-7.2
			C522.8,144.1,519.2,147.4,518.9,147.8z"/>
		<path id="_Tracciato_composto_163" class="st2" d="M518.6,148.4l-0.2-0.6c0-0.1-0.1-0.2-0.1-0.4l0,0v-0.1
			c-0.8-3.9,2.6-7.4,2.7-7.5l0.4-0.4l0.2,0.6c1.6,4.4-2.4,8-2.6,8.1L518.6,148.4z M521.2,140.8c-0.8,1.1-2.5,3.5-2.1,6.1
			C520,146,521.8,143.7,521.2,140.8L521.2,140.8z"/>
	</g>
	<path id="_Tracciato_275" class="st2" d="M518.7,148.5l-0.2-0.6c-0.1-0.2-0.1-0.4-0.1-0.6l0.8-0.2c0,0.2,0.1,0.3,0.1,0.5l0.1,0.2
		L518.7,148.5z"/>
	<g id="_Gruppo_138">
		<path id="_Tracciato_276" class="st2" d="M532.2,150.1c0,0-1.2,5.2-5.7,5.8C526.6,155.9,528.2,150.9,532.2,150.1z"/>
		<path id="_Tracciato_composto_164" class="st2" d="M526,156.4l0.2-0.6c0.1-0.2,1.8-5.3,6-6l0.6-0.1l-0.1,0.6c0,0.2-1.3,5.5-6,6.1
			L526,156.4z M531.6,150.7c-2.5,0.8-3.9,3.5-4.5,4.7C529.9,154.7,531.2,151.9,531.6,150.7L531.6,150.7z"/>
	</g>
	<g id="_Gruppo_139">
		<path id="_Tracciato_277" class="st2" d="M539,137.4c0,0-3.1,4.3-7.5,3.1C531.5,140.4,535,136.5,539,137.4z"/>
		<path id="_Tracciato_composto_165" class="st2" d="M533.1,141.1c-0.6,0-1.2-0.1-1.7-0.2l-0.6-0.2l0.4-0.5c0.2-0.2,3.7-4.1,7.9-3.2
			l0.6,0.1l-0.3,0.5C539.2,137.8,536.7,141.1,533.1,141.1z M532.3,140.2c2.8,0.4,5-1.6,6-2.6C535.6,137.4,533.3,139.3,532.3,140.2
			L532.3,140.2z"/>
	</g>
	<g id="_Gruppo_140">
		<path id="_Tracciato_278" class="st2" d="M527.8,128.6c0,0.7-0.3,5.4-4.1,6.9c0-0.4,0.1-0.9,0.2-1.3
			C525.3,132.4,526.7,130.6,527.8,128.6z"/>
		<path id="_Tracciato_composto_166" class="st2" d="M523.2,136l0-0.6c0-0.4,0.1-0.9,0.2-1.3V134l0.1-0.1c1.5-1.7,2.8-3.5,3.9-5.5
			l0.8-1.4v1.6c0,0.6-0.2,5.6-4.4,7.2L523.2,136z M524.2,134.3c0,0.2-0.1,0.3-0.1,0.4c1.6-1,2.7-2.6,3-4.4
			C526.2,131.8,525.3,133.1,524.2,134.3L524.2,134.3z"/>
	</g>
	<path id="_Tracciato_composto_167" class="st2" d="M523.1,135.6l0.3-1.5c0.4-1.7,1.5-4.7,4.2-5.9l0.6-0.3v0.8v0.1
		c-1.1,2-2.5,3.9-4,5.6L523.1,135.6z M526.7,129.6c-0.8,0.7-1.4,1.6-1.8,2.7C525.5,131.4,526.1,130.6,526.7,129.6L526.7,129.6z"/>
	<g id="_Gruppo_141">
		<path id="_Tracciato_279" class="st2" d="M523.5,134.5c-0.2,0.2-0.4,0.4-0.5,0.6c-3.5-1.9-3.5-6.6-3.5-6.6
			C522.3,129.8,523.2,132.9,523.5,134.5z"/>
		<path id="_Tracciato_composto_168" class="st2" d="M523.1,135.6l-0.3-0.1c-3.7-2-3.7-6.8-3.7-7v-0.6l0.5,0.3
			c2.9,1.3,3.9,4.5,4.3,6.3v0.2l-0.1,0.1c-0.2,0.2-0.3,0.4-0.5,0.6L523.1,135.6z M519.9,129.1c0.1,1.3,0.7,4.1,3,5.5l0.2-0.2
			C522.8,132.9,521.9,130.4,519.9,129.1z"/>
	</g>
	<path id="_Tracciato_280" class="st2" d="M524.1,136l-0.6-0.2c-0.2-0.1-0.5-0.2-0.7-0.3l-0.5-0.3l0.3-0.4c0.2-0.2,0.4-0.4,0.5-0.6
		l0.5-0.6l0.2,0.8c0.1,0.3,0.1,0.7,0.1,1L524.1,136z"/>
	<g id="_Gruppo_142">
		<path id="_Tracciato_281" class="st2" d="M527.9,147.8c0,0-4-3.4-2.5-7.7C525.4,140.1,529.1,143.8,527.9,147.8z"/>
		<path id="_Tracciato_composto_169" class="st2" d="M528.1,148.4l-0.5-0.4c-0.2-0.1-4.2-3.6-2.6-8.1l0.2-0.6l0.4,0.4
			c0.2,0.2,3.8,4,2.6,8.1L528.1,148.4z M525.5,140.8c-0.6,2.8,1.2,5.1,2.1,6.1C528.1,144.4,526.4,141.9,525.5,140.8L525.5,140.8z"/>
	</g>
	<polyline id="_Tracciato_282" class="st5" points="516.5,140.9 516,140.1 518.6,136.7 522.1,135.1 523,135.8 523,136.7 
		516.7,141.1 	"/>
	<polyline id="_Tracciato_283" class="st5" points="514,141.1 515.4,141 515.8,141.8 507,145.9 504.5,145.5 504.4,144.4 507,141.8 	
		"/>
	<path id="_Tracciato_284" class="st5" d="M527.5,128l0.7-0.2l0.1,0.9c0.3-0.1,0.5-0.2,0.8-0.4c0.1-0.1,0.6-1.7,0.6-1.7l1.2-1.2
		l-2.5-0.9l-0.8,1.7L527.5,128z"/>
	<path id="_Tracciato_285" class="st2" d="M524.2,123.7v0.5c2.4,0,4.7,0.5,6.9,1.5c3.5,1.6-1-1.2-1-1.2l-5.9-1L524.2,123.7z"/>
	<g id="_Gruppo_143">
		<rect id="_Tracciato_286" x="492" y="188.5" class="st2" width="33.5" height="0.8"/>
	</g>
	<g id="_Gruppo_144">
		<rect id="_Tracciato_287" x="308.1" y="177.5" class="st4" width="33.5" height="11.4"/>
		<path id="_Tracciato_composto_170" class="st2" d="M342,189.3h-34.3v-12.2H342L342,189.3z M308.5,188.6h32.7v-10.6h-32.7V188.6z"
			/>
	</g>
	<rect id="_Rettangolo_" x="378.7" y="164.7" class="st4" width="7.5" height="12.4"/>
	<polygon id="_Tracciato_288" class="st5" points="303.5,105.3 307.5,109.3 307.5,105.3 	"/>
	<polygon id="_Tracciato_289" class="st5" points="346,105.2 342,109.2 342,105.2 	"/>
	<rect id="_Rettangolo_2" x="342.1" y="101.9" class="st1" width="35.2" height="2.3"/>
</g>
</svg>
