<?xml version="1.0" encoding="utf-8"?>
<!-- Generator: Adobe Illustrator 22.0.0, SVG Export Plug-In . SVG Version: 6.00 Build 0)  -->
<svg version="1.1" id="Livello_1" xmlns="http://www.w3.org/2000/svg" xmlns:xlink="http://www.w3.org/1999/xlink" x="0px" y="0px"
	 viewBox="0 0 300 300" style="enable-background:new 0 0 300 300;" xml:space="preserve">
<style type="text/css">
	.st0{fill:#E0D4A0;}
</style>
<title>icone-loppure-75</title>
<g id="Rubriche">
	<path class="st0" d="M182.7,130.6l21.5-18c14.4-12.8,23-28.2,24-49H70.7c0.9,20.8,9.5,36.2,24,49l21.5,18.6
		c4.8,4.2,7.6,10.2,7.6,16.6c0,6.4-2.8,12.5-7.6,16.7l-21.1,19C80,197.1,71.4,216.6,71.6,237v1.8h17.8V237c0-14.3,7.5-28,18.2-37.5
		l22.2-19.1c10.9-8.5,26.1-8.8,37.3-0.7l1.2,0.8l22.3,19.1c10.7,9.5,17.6,23.2,17.6,37.5v1.8H229V237c-0.1-20.5-9-40-24.4-53.6
		l-21.7-19.1c-9.3-8.2-10.2-22.4-2-31.8C181.5,131.9,182.1,131.2,182.7,130.6 M168.5,114.5l-13.7,10.4c-3.1,2.4-7.5,2.4-10.6,0
		l-13.7-10.3l-21.5-19.1l6.9,1.2c22.3,3.9,45,3.9,67.3,0l6.9-1.2L168.5,114.5z"/>
	<path class="st0" d="M56.7,29.7H243c3.8,0,6.9,3.1,6.9,6.9v13.2c0,3.8-3.1,6.9-6.9,6.9H56.7c-3.8,0-6.9-3.1-6.9-6.9V36.5
		C49.8,32.7,52.9,29.7,56.7,29.7z"/>
	<path class="st0" d="M56.7,243.8H243c3.8,0,6.9,3.1,6.9,6.9v13.2c0,3.8-3.1,6.9-6.9,6.9H56.7c-3.8,0-6.9-3.1-6.9-6.9v-13.2
		C49.8,246.9,52.9,243.8,56.7,243.8z"/>
</g>
</svg>
