<?xml version="1.0" encoding="utf-8"?>
<!-- Generator: Adobe Illustrator 22.0.0, SVG Export Plug-In . SVG Version: 6.00 Build 0)  -->
<svg version="1.1" id="Livello_1" xmlns="http://www.w3.org/2000/svg" xmlns:xlink="http://www.w3.org/1999/xlink" x="0px" y="0px"
	 viewBox="0 0 300 300" style="enable-background:new 0 0 300 300;" xml:space="preserve">
<style type="text/css">
	.st0{fill:#BCA291;}
</style>
<title>icone-loppure-75</title>
<g id="Rubriche">
	<path class="st0" d="M251.9,205.8H34.1c-3,0-5.4,2.4-5.4,5.4c0,3,2.4,5.4,5.4,5.4c0,0,0,0,0,0h15.4L62.7,229h164.1l12-12.4H252
		c3,0,5.4-2.4,5.4-5.4C257.3,208.2,254.9,205.8,251.9,205.8L251.9,205.8z"/>
	<path class="st0" d="M270.1,111c-2.5-26.8-36.6-23.2-36.6-23.2c0.8-10.1,0.6-16.4,0.6-16.4H53.2c-4.4,99.9,51.1,128.8,51.1,128.8
		H182c8.4-5.4,21.4-19.9,21.4-19.9C259,177.4,272.2,134.2,270.1,111z M175.3,139.5L148.7,166l-26.5-26.6c-6.7-6.5-6.8-17.3-0.2-24
		s17.3-6.8,24-0.2c1.1,1.1,2,2.2,2.8,3.5c4.7-8.1,15.1-10.8,23.2-6c5.2,3.1,8.4,8.6,8.3,14.6C180.4,134.4,175.3,139.4,175.3,139.5
		L175.3,139.5z M212.8,164.5c11.1-19.9,17.7-42,19.4-64.7c0,0,22.5-2.6,24.3,9.5C259.5,128.7,251.3,155.9,212.8,164.5L212.8,164.5z"
		/>
</g>
</svg>
