<?xml version="1.0" encoding="utf-8"?>
<!-- Generator: Adobe Illustrator 22.0.0, SVG Export Plug-In . SVG Version: 6.00 Build 0)  -->
<svg version="1.1" id="Livello_1" xmlns="http://www.w3.org/2000/svg" xmlns:xlink="http://www.w3.org/1999/xlink" x="0px" y="0px"
	 viewBox="0 0 300 300" style="enable-background:new 0 0 300 300;" xml:space="preserve">
<style type="text/css">
	.st0{fill:#A9C476;}
</style>
<title>icone-loppure-75</title>
<g id="Rubriche">
	<path class="st0" d="M158.6,58.2v-8.3h12.6V29.7h-48v20.2h12.6v8.9l0,0c-50.5,7.4-91.8,51.8-91.8,105.4
		C44,222.9,91.5,270.6,150.2,270.7c0.1,0,0.1,0,0.2,0c58.8,0,105.6-47.7,105.6-106.5C255.9,108.8,211.7,63.3,158.6,58.2z
		 M150.1,255.5c-50.4,0-91.3-40.9-91.3-91.3s40.9-91.3,91.3-91.3s91.3,40.9,91.3,91.3C241.4,214.7,200.5,255.5,150.1,255.5
		L150.1,255.5z"/>
	<path class="st0" d="M134.8,149c0.4-0.4,0.8-0.6,1.2-0.9C135.6,148.4,135.2,148.6,134.8,149z"/>
	<path class="st0" d="M187.4,124.1l-51.3,24c-0.5,0.2-0.9,0.5-1.2,0.9l0,0c-0.4,0.4-0.6,0.8-0.9,1.2l-24,51.3
		c-0.5,1.1-0.1,2.4,1,2.9c0.6,0.3,1.3,0.3,1.8,0l51.3-24c0.5-0.2,0.9-0.5,1.2-0.9l0,0l0.3-0.3c0.2-0.2,0.3-0.4,0.4-0.6
		c0.1-0.1,0.1-0.2,0.2-0.3c0,0.1-0.1,0.2-0.2,0.3c0.1-0.1,0.1-0.2,0.2-0.3l24-51.3c0.5-1.1,0-2.4-1-2.9
		C188.6,123.8,187.9,123.8,187.4,124.1L187.4,124.1z M158.7,172.8L158.7,172.8c-4.8,4.8-12.5,4.8-17.2,0s-4.8-12.5,0-17.2l0,0
		c4.8-4.8,12.5-4.8,17.2,0S163.5,168.1,158.7,172.8z"/>
	<path class="st0" d="M154.1,90.1h6.9v23.2h-6.4l-9.1-11.8v11.8h-7V90.1h6.4l9.2,11.9V90.1z"/>
	<path class="st0" d="M208.1,157.1h19.6v5.8h-11.9v2.8h10.8v5.8h-10.8v2.9h12.2v5.8h-19.9V157.1z"/>
	<path class="st0" d="M154.7,223.4c-1.2-0.5-2.5-0.8-3.8-0.8c-0.9,0-1.4,0.3-1.4,1c0,0.6,0.4,1,0.9,1.2c0.9,0.4,1.9,0.7,2.9,1
		c1.4,0.4,2.8,0.8,4.1,1.4c1.1,0.5,2.1,1.2,2.9,2.2c0.9,1.1,1.3,2.5,1.2,3.9c0.1,1.5-0.4,3-1.3,4.2c-0.9,1.2-2.1,2-3.5,2.5
		c-1.6,0.6-3.2,0.9-4.9,0.8c-2.1,0-4.2-0.3-6.2-1c-1.9-0.6-3.8-1.5-5.4-2.8l2.8-5.8c1.3,1.1,2.8,2,4.4,2.6c1.4,0.6,2.9,1,4.4,1.1
		c0.5,0,0.9-0.1,1.4-0.3c0.3-0.2,0.5-0.6,0.5-1c0-0.6-0.4-1.1-0.9-1.2c-1-0.4-2-0.7-3-0.9c-1.4-0.3-2.8-0.8-4.1-1.3
		c-1.1-0.5-2.1-1.2-2.8-2.1c-0.8-1.1-1.3-2.4-1.2-3.8c0-1.4,0.4-2.8,1.2-4c0.9-1.2,2.1-2.1,3.5-2.7c1.7-0.6,3.4-1,5.2-0.9
		c1.8,0,3.6,0.3,5.4,0.8c1.6,0.4,3.2,1.1,4.7,2l-2.8,5.8C157.5,224.6,156.1,224,154.7,223.4z"/>
	<path class="st0" d="M100.5,157.5h7.8l-7.8,23.1h-7.9l-3.5-13.8l-3.6,13.8h-7.9L70,157.5h8.2l3.7,15.2l3.7-15.2h7.5l3.8,15.2
		L100.5,157.5z"/>
</g>
</svg>
