<?xml version="1.0" encoding="utf-8"?>
<!-- Generator: Adobe Illustrator 22.0.0, SVG Export Plug-In . SVG Version: 6.00 Build 0)  -->
<svg version="1.1" id="Livello_1" xmlns="http://www.w3.org/2000/svg" xmlns:xlink="http://www.w3.org/1999/xlink" x="0px" y="0px"
	 viewBox="0 0 300 300" style="enable-background:new 0 0 300 300;" xml:space="preserve">
<style type="text/css">
	.st0{fill:#CE6B6B;}
</style>
<title>icone-loppure-75</title>
<g id="Rubriche">
	<path class="st0" d="M111.7,142.3C99.9,131,94.2,107.8,94.9,85.4h110.2c0.7,22.4-5,45.6-16.8,56.9
		C168.8,161.1,131.3,161.1,111.7,142.3"/>
	<path class="st0" d="M195.2,264l-37.6-7v-76.6c16.6-1.6,32.1-8.7,44.1-20.2c28.6-27.6,30.5-98.2,3.5-128.1l-2.3-2.5H97l-2.3,2.5
		c-27,29.9-25,100.5,3.5,128.1c12,11.5,27.6,18.6,44.1,20.2v76.5l-39.1,6.9c-4.2,0-7.7,0.1-7.7,4.3s4.7,4,8.9,4h90.9
		c4.2,0,7.8,0.2,7.8-4S199.4,264,195.2,264 M104,33.7h92c25.6,33.8,17.2,94.3-4.9,115.7s-60.2,21.5-82.3,0S77.4,64.8,104,33.7"/>
</g>
</svg>
