<?xml version="1.0" encoding="utf-8"?>
<!-- Generator: Adobe Illustrator 21.0.2, SVG Export Plug-In . SVG Version: 6.00 Build 0)  -->
<svg version="1.1" id="Livello_1" xmlns="http://www.w3.org/2000/svg" xmlns:xlink="http://www.w3.org/1999/xlink" x="0px" y="0px"
	 viewBox="0 0 300 300" style="enable-background:new 0 0 300 300;" xml:space="preserve">
<style type="text/css">
	.st0{fill:#C4A7D8;}
</style>
<title>Risorsa 29</title>
<g id="Livello_2">
	<g id="Livello_1-2">
		<path class="st0" d="M66.3,206.1c28.9,0.6,54,4.9,72.5,12.5c0.3,0.1,0.6,0.2,1,0.2c1.4,0,2.6-1.2,2.6-2.6l0,0V77.9
			c0-1.1-0.6-2-1.6-2.4L67.3,46.2c-1.3-0.5-2.8,0.1-3.3,1.5c-0.1,0.3-0.2,0.6-0.2,0.9v154.9C63.8,204.9,64.9,206.1,66.3,206.1"/>
		<path class="st0" d="M276.7,70.8c-0.7-0.5-1.5-0.6-2.3-0.4l-26,7.8c-1.1,0.3-1.8,1.3-1.8,2.5v133.6c0.1,1.1-0.7,2-1.8,2.1
			c-0.1,0-0.2,0-0.3,0h-4.2c-21,0-59.9,2.2-85.3,16.7l-5,2.9l-5-2.9c-25.4-14.6-64.3-16.7-85.3-16.7h-5.4c-1,0-0.9-1.2-0.9-1.2V80.7
			c0-1.1-0.7-2.1-1.8-2.5l-26-7.8c-1.4-0.4-2.8,0.4-3.2,1.7c-0.1,0.2-0.1,0.5-0.1,0.7v161.7c0,1.4,1.2,2.6,2.6,2.6
			c0.1,0,0.2,0,0.3,0c7.7-0.8,19.8-1.7,33.5-1.7c30,0,54.1,4.4,69.7,12.7c2.3,1.2,15.6,8.4,21.8,8.4s19.5-7.2,21.8-8.4
			c15.6-8.3,39.7-12.7,69.7-12.7c13.7,0,25.7,0.9,33.5,1.7c1.4,0.1,2.7-0.9,2.8-2.3c0-0.1,0-0.2,0-0.3V72.9
			C277.8,72.1,277.4,71.3,276.7,70.8"/>
		<path class="st0" d="M158.8,218.4c0.7,0.5,1.6,0.6,2.4,0.2c18.5-7.6,43.6-12,72.5-12.5c1.4,0,2.5-1.2,2.5-2.6V48.6
			c0-1.4-1.2-2.6-2.6-2.6c-0.3,0-0.6,0.1-0.9,0.2l-73.5,29.2c-1,0.4-1.6,1.3-1.6,2.4v138.3C157.6,217.1,158.1,217.9,158.8,218.4"/>
	</g>
</g>
</svg>
